<?xml version="1.0" encoding="utf-8" standalone="no"?>
<!DOCTYPE svg PUBLIC "-//W3C//DTD SVG 1.1//EN"
  "http://www.w3.org/Graphics/SVG/1.1/DTD/svg11.dtd">
<!-- Created with matplotlib (https://matplotlib.org/) -->
<svg height="612pt" version="1.1" viewBox="0 0 792 612" width="792pt" xmlns="http://www.w3.org/2000/svg" xmlns:xlink="http://www.w3.org/1999/xlink">
 <defs>
  <style type="text/css">
*{stroke-linecap:butt;stroke-linejoin:round;}
  </style>
 </defs>
 <g id="figure_1">
  <g id="patch_1">
   <path d="M 0 612 
L 792 612 
L 792 0 
L 0 0 
z
" style="fill:#ffffff;"/>
  </g>
  <g id="axes_1">
   <g id="patch_2">
    <path d="M 99 173.887826 
L 712.8 173.887826 
L 712.8 73.44 
L 99 73.44 
z
" style="fill:#ffffff;"/>
   </g>
   <g id="matplotlib.axis_1">
    <g id="xtick_1">
     <g id="line2d_1">
      <defs>
       <path d="M 0 0 
L 0 3.5 
" id="m483a9ec2fc" style="stroke:#000000;stroke-width:0.8;"/>
      </defs>
      <g>
       <use style="stroke:#000000;stroke-width:0.8;" x="172.719539" xlink:href="#m483a9ec2fc" y="173.887826"/>
      </g>
     </g>
    </g>
    <g id="xtick_2">
     <g id="line2d_2">
      <g>
       <use style="stroke:#000000;stroke-width:0.8;" x="249.234334" xlink:href="#m483a9ec2fc" y="173.887826"/>
      </g>
     </g>
    </g>
    <g id="xtick_3">
     <g id="line2d_3">
      <g>
       <use style="stroke:#000000;stroke-width:0.8;" x="326.58995" xlink:href="#m483a9ec2fc" y="173.887826"/>
      </g>
     </g>
    </g>
    <g id="xtick_4">
     <g id="line2d_4">
      <g>
       <use style="stroke:#000000;stroke-width:0.8;" x="403.945567" xlink:href="#m483a9ec2fc" y="173.887826"/>
      </g>
     </g>
    </g>
    <g id="xtick_5">
     <g id="line2d_5">
      <g>
       <use style="stroke:#000000;stroke-width:0.8;" x="480.460361" xlink:href="#m483a9ec2fc" y="173.887826"/>
      </g>
     </g>
    </g>
    <g id="xtick_6">
     <g id="line2d_6">
      <g>
       <use style="stroke:#000000;stroke-width:0.8;" x="556.975156" xlink:href="#m483a9ec2fc" y="173.887826"/>
      </g>
     </g>
    </g>
    <g id="xtick_7">
     <g id="line2d_7">
      <g>
       <use style="stroke:#000000;stroke-width:0.8;" x="634.330772" xlink:href="#m483a9ec2fc" y="173.887826"/>
      </g>
     </g>
    </g>
    <g id="xtick_8">
     <g id="line2d_8">
      <g>
       <use style="stroke:#000000;stroke-width:0.8;" x="711.686389" xlink:href="#m483a9ec2fc" y="173.887826"/>
      </g>
     </g>
    </g>
   </g>
   <g id="matplotlib.axis_2">
    <g id="ytick_1">
     <g id="line2d_9">
      <defs>
       <path d="M 0 0 
L -3.5 0 
" id="m0703397778" style="stroke:#000000;stroke-width:0.8;"/>
      </defs>
      <g>
       <use style="stroke:#000000;stroke-width:0.8;" x="99" xlink:href="#m0703397778" y="169.322016"/>
      </g>
     </g>
     <g id="text_1">
      <!-- 0.00 -->
      <defs>
       <path d="M 31.78125 66.40625 
Q 24.171875 66.40625 20.328125 58.90625 
Q 16.5 51.421875 16.5 36.375 
Q 16.5 21.390625 20.328125 13.890625 
Q 24.171875 6.390625 31.78125 6.390625 
Q 39.453125 6.390625 43.28125 13.890625 
Q 47.125 21.390625 47.125 36.375 
Q 47.125 51.421875 43.28125 58.90625 
Q 39.453125 66.40625 31.78125 66.40625 
z
M 31.78125 74.21875 
Q 44.046875 74.21875 50.515625 64.515625 
Q 56.984375 54.828125 56.984375 36.375 
Q 56.984375 17.96875 50.515625 8.265625 
Q 44.046875 -1.421875 31.78125 -1.421875 
Q 19.53125 -1.421875 13.0625 8.265625 
Q 6.59375 17.96875 6.59375 36.375 
Q 6.59375 54.828125 13.0625 64.515625 
Q 19.53125 74.21875 31.78125 74.21875 
z
" id="DejaVuSans-48"/>
       <path d="M 10.6875 12.40625 
L 21 12.40625 
L 21 0 
L 10.6875 0 
z
" id="DejaVuSans-46"/>
      </defs>
      <g transform="translate(69.734375 173.121235)scale(0.1 -0.1)">
       <use xlink:href="#DejaVuSans-48"/>
       <use x="63.623047" xlink:href="#DejaVuSans-46"/>
       <use x="95.410156" xlink:href="#DejaVuSans-48"/>
       <use x="159.033203" xlink:href="#DejaVuSans-48"/>
      </g>
     </g>
    </g>
    <g id="ytick_2">
     <g id="line2d_10">
      <g>
       <use style="stroke:#000000;stroke-width:0.8;" x="99" xlink:href="#m0703397778" y="146.492964"/>
      </g>
     </g>
     <g id="text_2">
      <!-- 0.25 -->
      <defs>
       <path d="M 19.1875 8.296875 
L 53.609375 8.296875 
L 53.609375 0 
L 7.328125 0 
L 7.328125 8.296875 
Q 12.9375 14.109375 22.625 23.890625 
Q 32.328125 33.6875 34.8125 36.53125 
Q 39.546875 41.84375 41.421875 45.53125 
Q 43.3125 49.21875 43.3125 52.78125 
Q 43.3125 58.59375 39.234375 62.25 
Q 35.15625 65.921875 28.609375 65.921875 
Q 23.96875 65.921875 18.8125 64.3125 
Q 13.671875 62.703125 7.8125 59.421875 
L 7.8125 69.390625 
Q 13.765625 71.78125 18.9375 73 
Q 24.125 74.21875 28.421875 74.21875 
Q 39.75 74.21875 46.484375 68.546875 
Q 53.21875 62.890625 53.21875 53.421875 
Q 53.21875 48.921875 51.53125 44.890625 
Q 49.859375 40.875 45.40625 35.40625 
Q 44.1875 33.984375 37.640625 27.21875 
Q 31.109375 20.453125 19.1875 8.296875 
z
" id="DejaVuSans-50"/>
       <path d="M 10.796875 72.90625 
L 49.515625 72.90625 
L 49.515625 64.59375 
L 19.828125 64.59375 
L 19.828125 46.734375 
Q 21.96875 47.46875 24.109375 47.828125 
Q 26.265625 48.1875 28.421875 48.1875 
Q 40.625 48.1875 47.75 41.5 
Q 54.890625 34.8125 54.890625 23.390625 
Q 54.890625 11.625 47.5625 5.09375 
Q 40.234375 -1.421875 26.90625 -1.421875 
Q 22.3125 -1.421875 17.546875 -0.640625 
Q 12.796875 0.140625 7.71875 1.703125 
L 7.71875 11.625 
Q 12.109375 9.234375 16.796875 8.0625 
Q 21.484375 6.890625 26.703125 6.890625 
Q 35.15625 6.890625 40.078125 11.328125 
Q 45.015625 15.765625 45.015625 23.390625 
Q 45.015625 31 40.078125 35.4375 
Q 35.15625 39.890625 26.703125 39.890625 
Q 22.75 39.890625 18.8125 39.015625 
Q 14.890625 38.140625 10.796875 36.28125 
z
" id="DejaVuSans-53"/>
      </defs>
      <g transform="translate(69.734375 150.292183)scale(0.1 -0.1)">
       <use xlink:href="#DejaVuSans-48"/>
       <use x="63.623047" xlink:href="#DejaVuSans-46"/>
       <use x="95.410156" xlink:href="#DejaVuSans-50"/>
       <use x="159.033203" xlink:href="#DejaVuSans-53"/>
      </g>
     </g>
    </g>
    <g id="ytick_3">
     <g id="line2d_11">
      <g>
       <use style="stroke:#000000;stroke-width:0.8;" x="99" xlink:href="#m0703397778" y="123.663913"/>
      </g>
     </g>
     <g id="text_3">
      <!-- 0.50 -->
      <g transform="translate(69.734375 127.463132)scale(0.1 -0.1)">
       <use xlink:href="#DejaVuSans-48"/>
       <use x="63.623047" xlink:href="#DejaVuSans-46"/>
       <use x="95.410156" xlink:href="#DejaVuSans-53"/>
       <use x="159.033203" xlink:href="#DejaVuSans-48"/>
      </g>
     </g>
    </g>
    <g id="ytick_4">
     <g id="line2d_12">
      <g>
       <use style="stroke:#000000;stroke-width:0.8;" x="99" xlink:href="#m0703397778" y="100.834862"/>
      </g>
     </g>
     <g id="text_4">
      <!-- 0.75 -->
      <defs>
       <path d="M 8.203125 72.90625 
L 55.078125 72.90625 
L 55.078125 68.703125 
L 28.609375 0 
L 18.3125 0 
L 43.21875 64.59375 
L 8.203125 64.59375 
z
" id="DejaVuSans-55"/>
      </defs>
      <g transform="translate(69.734375 104.63408)scale(0.1 -0.1)">
       <use xlink:href="#DejaVuSans-48"/>
       <use x="63.623047" xlink:href="#DejaVuSans-46"/>
       <use x="95.410156" xlink:href="#DejaVuSans-55"/>
       <use x="159.033203" xlink:href="#DejaVuSans-53"/>
      </g>
     </g>
    </g>
    <g id="ytick_5">
     <g id="line2d_13">
      <g>
       <use style="stroke:#000000;stroke-width:0.8;" x="99" xlink:href="#m0703397778" y="78.00581"/>
      </g>
     </g>
     <g id="text_5">
      <!-- 1.00 -->
      <defs>
       <path d="M 12.40625 8.296875 
L 28.515625 8.296875 
L 28.515625 63.921875 
L 10.984375 60.40625 
L 10.984375 69.390625 
L 28.421875 72.90625 
L 38.28125 72.90625 
L 38.28125 8.296875 
L 54.390625 8.296875 
L 54.390625 0 
L 12.40625 0 
z
" id="DejaVuSans-49"/>
      </defs>
      <g transform="translate(69.734375 81.805029)scale(0.1 -0.1)">
       <use xlink:href="#DejaVuSans-49"/>
       <use x="63.623047" xlink:href="#DejaVuSans-46"/>
       <use x="95.410156" xlink:href="#DejaVuSans-48"/>
       <use x="159.033203" xlink:href="#DejaVuSans-48"/>
      </g>
     </g>
    </g>
    <g id="text_6">
     <!-- recommendation -->
     <defs>
      <path d="M 41.109375 46.296875 
Q 39.59375 47.171875 37.8125 47.578125 
Q 36.03125 48 33.890625 48 
Q 26.265625 48 22.1875 43.046875 
Q 18.109375 38.09375 18.109375 28.8125 
L 18.109375 0 
L 9.078125 0 
L 9.078125 54.6875 
L 18.109375 54.6875 
L 18.109375 46.1875 
Q 20.953125 51.171875 25.484375 53.578125 
Q 30.03125 56 36.53125 56 
Q 37.453125 56 38.578125 55.875 
Q 39.703125 55.765625 41.0625 55.515625 
z
" id="DejaVuSans-114"/>
      <path d="M 56.203125 29.59375 
L 56.203125 25.203125 
L 14.890625 25.203125 
Q 15.484375 15.921875 20.484375 11.0625 
Q 25.484375 6.203125 34.421875 6.203125 
Q 39.59375 6.203125 44.453125 7.46875 
Q 49.3125 8.734375 54.109375 11.28125 
L 54.109375 2.78125 
Q 49.265625 0.734375 44.1875 -0.34375 
Q 39.109375 -1.421875 33.890625 -1.421875 
Q 20.796875 -1.421875 13.15625 6.1875 
Q 5.515625 13.8125 5.515625 26.8125 
Q 5.515625 40.234375 12.765625 48.109375 
Q 20.015625 56 32.328125 56 
Q 43.359375 56 49.78125 48.890625 
Q 56.203125 41.796875 56.203125 29.59375 
z
M 47.21875 32.234375 
Q 47.125 39.59375 43.09375 43.984375 
Q 39.0625 48.390625 32.421875 48.390625 
Q 24.90625 48.390625 20.390625 44.140625 
Q 15.875 39.890625 15.1875 32.171875 
z
" id="DejaVuSans-101"/>
      <path d="M 48.78125 52.59375 
L 48.78125 44.1875 
Q 44.96875 46.296875 41.140625 47.34375 
Q 37.3125 48.390625 33.40625 48.390625 
Q 24.65625 48.390625 19.8125 42.84375 
Q 14.984375 37.3125 14.984375 27.296875 
Q 14.984375 17.28125 19.8125 11.734375 
Q 24.65625 6.203125 33.40625 6.203125 
Q 37.3125 6.203125 41.140625 7.25 
Q 44.96875 8.296875 48.78125 10.40625 
L 48.78125 2.09375 
Q 45.015625 0.34375 40.984375 -0.53125 
Q 36.96875 -1.421875 32.421875 -1.421875 
Q 20.0625 -1.421875 12.78125 6.34375 
Q 5.515625 14.109375 5.515625 27.296875 
Q 5.515625 40.671875 12.859375 48.328125 
Q 20.21875 56 33.015625 56 
Q 37.15625 56 41.109375 55.140625 
Q 45.0625 54.296875 48.78125 52.59375 
z
" id="DejaVuSans-99"/>
      <path d="M 30.609375 48.390625 
Q 23.390625 48.390625 19.1875 42.75 
Q 14.984375 37.109375 14.984375 27.296875 
Q 14.984375 17.484375 19.15625 11.84375 
Q 23.34375 6.203125 30.609375 6.203125 
Q 37.796875 6.203125 41.984375 11.859375 
Q 46.1875 17.53125 46.1875 27.296875 
Q 46.1875 37.015625 41.984375 42.703125 
Q 37.796875 48.390625 30.609375 48.390625 
z
M 30.609375 56 
Q 42.328125 56 49.015625 48.375 
Q 55.71875 40.765625 55.71875 27.296875 
Q 55.71875 13.875 49.015625 6.21875 
Q 42.328125 -1.421875 30.609375 -1.421875 
Q 18.84375 -1.421875 12.171875 6.21875 
Q 5.515625 13.875 5.515625 27.296875 
Q 5.515625 40.765625 12.171875 48.375 
Q 18.84375 56 30.609375 56 
z
" id="DejaVuSans-111"/>
      <path d="M 52 44.1875 
Q 55.375 50.25 60.0625 53.125 
Q 64.75 56 71.09375 56 
Q 79.640625 56 84.28125 50.015625 
Q 88.921875 44.046875 88.921875 33.015625 
L 88.921875 0 
L 79.890625 0 
L 79.890625 32.71875 
Q 79.890625 40.578125 77.09375 44.375 
Q 74.3125 48.1875 68.609375 48.1875 
Q 61.625 48.1875 57.5625 43.546875 
Q 53.515625 38.921875 53.515625 30.90625 
L 53.515625 0 
L 44.484375 0 
L 44.484375 32.71875 
Q 44.484375 40.625 41.703125 44.40625 
Q 38.921875 48.1875 33.109375 48.1875 
Q 26.21875 48.1875 22.15625 43.53125 
Q 18.109375 38.875 18.109375 30.90625 
L 18.109375 0 
L 9.078125 0 
L 9.078125 54.6875 
L 18.109375 54.6875 
L 18.109375 46.1875 
Q 21.1875 51.21875 25.484375 53.609375 
Q 29.78125 56 35.6875 56 
Q 41.65625 56 45.828125 52.96875 
Q 50 49.953125 52 44.1875 
z
" id="DejaVuSans-109"/>
      <path d="M 54.890625 33.015625 
L 54.890625 0 
L 45.90625 0 
L 45.90625 32.71875 
Q 45.90625 40.484375 42.875 44.328125 
Q 39.84375 48.1875 33.796875 48.1875 
Q 26.515625 48.1875 22.3125 43.546875 
Q 18.109375 38.921875 18.109375 30.90625 
L 18.109375 0 
L 9.078125 0 
L 9.078125 54.6875 
L 18.109375 54.6875 
L 18.109375 46.1875 
Q 21.34375 51.125 25.703125 53.5625 
Q 30.078125 56 35.796875 56 
Q 45.21875 56 50.046875 50.171875 
Q 54.890625 44.34375 54.890625 33.015625 
z
" id="DejaVuSans-110"/>
      <path d="M 45.40625 46.390625 
L 45.40625 75.984375 
L 54.390625 75.984375 
L 54.390625 0 
L 45.40625 0 
L 45.40625 8.203125 
Q 42.578125 3.328125 38.25 0.953125 
Q 33.9375 -1.421875 27.875 -1.421875 
Q 17.96875 -1.421875 11.734375 6.484375 
Q 5.515625 14.40625 5.515625 27.296875 
Q 5.515625 40.1875 11.734375 48.09375 
Q 17.96875 56 27.875 56 
Q 33.9375 56 38.25 53.625 
Q 42.578125 51.265625 45.40625 46.390625 
z
M 14.796875 27.296875 
Q 14.796875 17.390625 18.875 11.75 
Q 22.953125 6.109375 30.078125 6.109375 
Q 37.203125 6.109375 41.296875 11.75 
Q 45.40625 17.390625 45.40625 27.296875 
Q 45.40625 37.203125 41.296875 42.84375 
Q 37.203125 48.484375 30.078125 48.484375 
Q 22.953125 48.484375 18.875 42.84375 
Q 14.796875 37.203125 14.796875 27.296875 
z
" id="DejaVuSans-100"/>
      <path d="M 34.28125 27.484375 
Q 23.390625 27.484375 19.1875 25 
Q 14.984375 22.515625 14.984375 16.5 
Q 14.984375 11.71875 18.140625 8.90625 
Q 21.296875 6.109375 26.703125 6.109375 
Q 34.1875 6.109375 38.703125 11.40625 
Q 43.21875 16.703125 43.21875 25.484375 
L 43.21875 27.484375 
z
M 52.203125 31.203125 
L 52.203125 0 
L 43.21875 0 
L 43.21875 8.296875 
Q 40.140625 3.328125 35.546875 0.953125 
Q 30.953125 -1.421875 24.3125 -1.421875 
Q 15.921875 -1.421875 10.953125 3.296875 
Q 6 8.015625 6 15.921875 
Q 6 25.140625 12.171875 29.828125 
Q 18.359375 34.515625 30.609375 34.515625 
L 43.21875 34.515625 
L 43.21875 35.40625 
Q 43.21875 41.609375 39.140625 45 
Q 35.0625 48.390625 27.6875 48.390625 
Q 23 48.390625 18.546875 47.265625 
Q 14.109375 46.140625 10.015625 43.890625 
L 10.015625 52.203125 
Q 14.9375 54.109375 19.578125 55.046875 
Q 24.21875 56 28.609375 56 
Q 40.484375 56 46.34375 49.84375 
Q 52.203125 43.703125 52.203125 31.203125 
z
" id="DejaVuSans-97"/>
      <path d="M 18.3125 70.21875 
L 18.3125 54.6875 
L 36.8125 54.6875 
L 36.8125 47.703125 
L 18.3125 47.703125 
L 18.3125 18.015625 
Q 18.3125 11.328125 20.140625 9.421875 
Q 21.96875 7.515625 27.59375 7.515625 
L 36.8125 7.515625 
L 36.8125 0 
L 27.59375 0 
Q 17.1875 0 13.234375 3.875 
Q 9.28125 7.765625 9.28125 18.015625 
L 9.28125 47.703125 
L 2.6875 47.703125 
L 2.6875 54.6875 
L 9.28125 54.6875 
L 9.28125 70.21875 
z
" id="DejaVuSans-116"/>
      <path d="M 9.421875 54.6875 
L 18.40625 54.6875 
L 18.40625 0 
L 9.421875 0 
z
M 9.421875 75.984375 
L 18.40625 75.984375 
L 18.40625 64.59375 
L 9.421875 64.59375 
z
" id="DejaVuSans-105"/>
     </defs>
     <g transform="translate(63.654687 166.404538)rotate(-90)scale(0.1 -0.1)">
      <use xlink:href="#DejaVuSans-114"/>
      <use x="41.082031" xlink:href="#DejaVuSans-101"/>
      <use x="102.605469" xlink:href="#DejaVuSans-99"/>
      <use x="157.585938" xlink:href="#DejaVuSans-111"/>
      <use x="218.767578" xlink:href="#DejaVuSans-109"/>
      <use x="316.179688" xlink:href="#DejaVuSans-109"/>
      <use x="413.591797" xlink:href="#DejaVuSans-101"/>
      <use x="475.115234" xlink:href="#DejaVuSans-110"/>
      <use x="538.494141" xlink:href="#DejaVuSans-100"/>
      <use x="601.970703" xlink:href="#DejaVuSans-97"/>
      <use x="663.25" xlink:href="#DejaVuSans-116"/>
      <use x="702.458984" xlink:href="#DejaVuSans-105"/>
      <use x="730.242188" xlink:href="#DejaVuSans-111"/>
      <use x="791.423828" xlink:href="#DejaVuSans-110"/>
     </g>
    </g>
   </g>
   <g id="line2d_14">
    <path clip-path="url(#p0383d38d0e)" d="M 104.985734 84.436344 
L 112.556572 81.008135 
L 124.053061 79.665223 
L 136.579592 79.121509 
L 149.106122 78.846167 
L 161.632653 78.679829 
L 174.159184 78.56846 
L 186.685714 78.488675 
L 194.47387 78.449554 
L 211.738776 78.38199 
L 224.265306 78.344567 
L 236.791837 78.313917 
L 247.295272 78.29219 
L 261.844898 78.266705 
L 274.371429 78.248139 
L 288.62862 78.229982 
L 299.42449 78.217946 
L 311.95102 78.205506 
L 323.546467 78.195224 
L 337.004082 78.184543 
L 354.268758 78.172485 
L 362.057143 78.167563 
L 374.583673 78.160228 
L 381.986359 78.156198 
L 399.636735 78.147388 
L 407.421253 78.143822 
L 424.689796 78.136519 
L 431.048581 78.134021 
L 453.200023 78.126017 
L 462.269388 78.123022 
L 474.11762 78.119326 
L 487.322449 78.115472 
L 493.984237 78.113626 
L 512.941927 78.108696 
L 531.103584 78.104378 
L 537.428571 78.102958 
L 548.560657 78.100556 
L 565.388428 78.097142 
L 575.008163 78.095299 
L 581.649735 78.094069 
L 597.397664 78.091284 
L 612.677538 78.088745 
L 627.52841 78.086418 
L 641.984216 78.084274 
L 656.074657 78.082292 
L 662.693878 78.081395 
L 669.825908 78.080451 
L 683.261172 78.078737 
L 696.401132 78.077135 
L 709.264318 78.075633 
" style="fill:none;stroke:#0343df;stroke-linecap:square;stroke-width:1.5;"/>
   </g>
   <g id="line2d_15">
    <path clip-path="url(#p0383d38d0e)" d="M 98.999916 78.00581 
L 99 78.00581 
L 99 78.00581 
L 99.385806 121.286229 
L 99.38589 78.00581 
L 99.752642 109.117471 
L 99.752726 78.00581 
L 100.141048 102.120672 
L 100.141132 78.00581 
L 100.581771 97.258051 
L 100.581855 78.00581 
L 101.116957 93.487527 
L 101.117041 78.00581 
L 101.82546 90.308162 
L 101.825544 78.00581 
L 102.897661 87.396011 
L 102.897745 78.00581 
L 104.98565 84.436094 
L 104.985734 78.00581 
L 111.526531 80.605532 
L 112.556488 81.008103 
L 112.556572 78.00581 
L 124.053061 78.068217 
L 136.579592 78.136166 
L 149.106122 78.204065 
L 161.632653 78.271914 
L 174.159184 78.339711 
L 186.685714 78.407459 
L 194.473786 78.449553 
L 194.47387 78.00581 
L 199.212245 78.031537 
L 211.738776 78.099514 
L 224.265306 78.16744 
L 236.791837 78.235315 
L 247.295188 78.292189 
L 247.295272 78.00581 
L 249.318367 78.016795 
L 261.844898 78.084783 
L 274.371429 78.15272 
L 286.897959 78.220607 
L 288.628536 78.229982 
L 288.62862 78.00581 
L 299.42449 78.064415 
L 311.95102 78.132367 
L 323.546383 78.195223 
L 323.546467 78.00581 
L 324.477551 78.010866 
L 337.004082 78.078858 
L 349.530612 78.1468 
L 354.268674 78.172485 
L 354.268758 78.00581 
L 362.057143 78.048093 
L 374.583673 78.116057 
L 381.986275 78.156197 
L 381.986359 78.00581 
L 387.110204 78.033629 
L 399.636735 78.101605 
L 407.421169 78.143821 
L 407.421253 78.00581 
L 412.163265 78.031557 
L 424.689796 78.099533 
L 431.048497 78.13402 
L 431.048581 78.00581 
L 437.216327 78.039296 
L 449.742857 78.107267 
L 453.199938 78.126017 
L 453.200023 78.00581 
L 462.269388 78.055045 
L 474.117536 78.119325 
L 474.11762 78.00581 
L 474.795918 78.009493 
L 487.322449 78.077487 
L 493.984153 78.113625 
L 493.984237 78.00581 
L 499.84898 78.037651 
L 512.37551 78.105624 
L 512.941843 78.108695 
L 512.941927 78.00581 
L 524.902041 78.070733 
L 531.1035 78.104378 
L 531.103584 78.00581 
L 537.428571 78.04015 
L 548.560573 78.100556 
L 548.560657 78.00581 
L 549.955102 78.013382 
L 562.481633 78.081372 
L 565.388344 78.097142 
L 565.388428 78.00581 
L 575.008163 78.058032 
L 581.649651 78.094069 
L 581.649735 78.00581 
L 587.534694 78.037761 
L 597.39758 78.091284 
L 597.397664 78.00581 
L 600.061224 78.020273 
L 612.587755 78.088258 
L 612.677454 78.088745 
L 612.677538 78.00581 
L 625.114286 78.073319 
L 627.528326 78.086417 
L 627.52841 78.00581 
L 637.640816 78.060706 
L 641.984132 78.084274 
L 641.984216 78.00581 
L 650.167347 78.050235 
L 656.074573 78.082291 
L 656.074657 78.00581 
L 662.693878 78.041747 
L 669.825824 78.080451 
L 669.825908 78.00581 
L 675.220408 78.035099 
L 683.261088 78.078737 
L 683.261172 78.00581 
L 687.746939 78.030166 
L 696.401048 78.077134 
L 696.401132 78.00581 
L 700.273469 78.026835 
L 709.264234 78.075632 
L 709.264318 78.00581 
L 712.8 78.025008 
" style="fill:none;stroke:#fe420f;stroke-linecap:square;stroke-width:1.5;"/>
   </g>
   <g id="line2d_16">
    <path clip-path="url(#p0383d38d0e)" d="M 99 169.322016 
L 99 78.00581 
" style="fill:none;stroke:#1f77b4;stroke-linecap:square;stroke-width:1.5;"/>
   </g>
   <g id="line2d_17">
    <path clip-path="url(#p0383d38d0e)" d="M 99 169.322016 
L 99 78.00581 
" style="fill:none;stroke:#a5a391;stroke-dasharray:9.6,2.4,1.5,2.4;stroke-dashoffset:0;stroke-width:1.5;"/>
   </g>
   <g id="line2d_18">
    <path clip-path="url(#p0383d38d0e)" d="M 99.38589 169.322016 
L 99.38589 121.292954 
" style="fill:none;stroke:#a5a391;stroke-dasharray:9.6,2.4,1.5,2.4;stroke-dashoffset:0;stroke-width:1.5;"/>
   </g>
   <g id="line2d_19">
    <path clip-path="url(#p0383d38d0e)" d="M 99.752726 169.322016 
L 99.752726 109.123221 
" style="fill:none;stroke:#a5a391;stroke-dasharray:9.6,2.4,1.5,2.4;stroke-dashoffset:0;stroke-width:1.5;"/>
   </g>
   <g id="line2d_20">
    <path clip-path="url(#p0383d38d0e)" d="M 100.141132 169.322016 
L 100.141132 102.125134 
" style="fill:none;stroke:#a5a391;stroke-dasharray:9.6,2.4,1.5,2.4;stroke-dashoffset:0;stroke-width:1.5;"/>
   </g>
   <g id="line2d_21">
    <path clip-path="url(#p0383d38d0e)" d="M 100.581855 169.322016 
L 100.581855 97.261307 
" style="fill:none;stroke:#a5a391;stroke-dasharray:9.6,2.4,1.5,2.4;stroke-dashoffset:0;stroke-width:1.5;"/>
   </g>
   <g id="line2d_22">
    <path clip-path="url(#p0383d38d0e)" d="M 101.117041 169.322016 
L 101.117041 93.48974 
" style="fill:none;stroke:#a5a391;stroke-dasharray:9.6,2.4,1.5,2.4;stroke-dashoffset:0;stroke-width:1.5;"/>
   </g>
   <g id="line2d_23">
    <path clip-path="url(#p0383d38d0e)" d="M 101.825544 169.322016 
L 101.825544 90.309519 
" style="fill:none;stroke:#a5a391;stroke-dasharray:9.6,2.4,1.5,2.4;stroke-dashoffset:0;stroke-width:1.5;"/>
   </g>
   <g id="line2d_24">
    <path clip-path="url(#p0383d38d0e)" d="M 102.897745 169.322016 
L 102.897745 87.396708 
" style="fill:none;stroke:#a5a391;stroke-dasharray:9.6,2.4,1.5,2.4;stroke-dashoffset:0;stroke-width:1.5;"/>
   </g>
   <g id="line2d_25">
    <path clip-path="url(#p0383d38d0e)" d="M 104.985734 169.322016 
L 104.985734 84.436344 
" style="fill:none;stroke:#a5a391;stroke-dasharray:9.6,2.4,1.5,2.4;stroke-dashoffset:0;stroke-width:1.5;"/>
   </g>
   <g id="line2d_26">
    <path clip-path="url(#p0383d38d0e)" d="M 112.556572 169.322016 
L 112.556572 81.008135 
" style="fill:none;stroke:#a5a391;stroke-dasharray:9.6,2.4,1.5,2.4;stroke-dashoffset:0;stroke-width:1.5;"/>
   </g>
   <g id="line2d_27">
    <path clip-path="url(#p0383d38d0e)" d="M 194.47387 169.322016 
L 194.47387 78.449554 
" style="fill:none;stroke:#a5a391;stroke-dasharray:9.6,2.4,1.5,2.4;stroke-dashoffset:0;stroke-width:1.5;"/>
   </g>
   <g id="line2d_28">
    <path clip-path="url(#p0383d38d0e)" d="M 247.295272 169.322016 
L 247.295272 78.29219 
" style="fill:none;stroke:#a5a391;stroke-dasharray:9.6,2.4,1.5,2.4;stroke-dashoffset:0;stroke-width:1.5;"/>
   </g>
   <g id="line2d_29">
    <path clip-path="url(#p0383d38d0e)" d="M 288.62862 169.322016 
L 288.62862 78.229982 
" style="fill:none;stroke:#a5a391;stroke-dasharray:9.6,2.4,1.5,2.4;stroke-dashoffset:0;stroke-width:1.5;"/>
   </g>
   <g id="line2d_30">
    <path clip-path="url(#p0383d38d0e)" d="M 323.546467 169.322016 
L 323.546467 78.195224 
" style="fill:none;stroke:#a5a391;stroke-dasharray:9.6,2.4,1.5,2.4;stroke-dashoffset:0;stroke-width:1.5;"/>
   </g>
   <g id="line2d_31">
    <path clip-path="url(#p0383d38d0e)" d="M 354.268758 169.322016 
L 354.268758 78.172485 
" style="fill:none;stroke:#a5a391;stroke-dasharray:9.6,2.4,1.5,2.4;stroke-dashoffset:0;stroke-width:1.5;"/>
   </g>
   <g id="line2d_32">
    <path clip-path="url(#p0383d38d0e)" d="M 381.986359 169.322016 
L 381.986359 78.156198 
" style="fill:none;stroke:#a5a391;stroke-dasharray:9.6,2.4,1.5,2.4;stroke-dashoffset:0;stroke-width:1.5;"/>
   </g>
   <g id="line2d_33">
    <path clip-path="url(#p0383d38d0e)" d="M 407.421253 169.322016 
L 407.421253 78.143822 
" style="fill:none;stroke:#a5a391;stroke-dasharray:9.6,2.4,1.5,2.4;stroke-dashoffset:0;stroke-width:1.5;"/>
   </g>
   <g id="line2d_34">
    <path clip-path="url(#p0383d38d0e)" d="M 431.048581 169.322016 
L 431.048581 78.134021 
" style="fill:none;stroke:#a5a391;stroke-dasharray:9.6,2.4,1.5,2.4;stroke-dashoffset:0;stroke-width:1.5;"/>
   </g>
   <g id="line2d_35">
    <path clip-path="url(#p0383d38d0e)" d="M 453.200023 169.322016 
L 453.200023 78.126017 
" style="fill:none;stroke:#a5a391;stroke-dasharray:9.6,2.4,1.5,2.4;stroke-dashoffset:0;stroke-width:1.5;"/>
   </g>
   <g id="line2d_36">
    <path clip-path="url(#p0383d38d0e)" d="M 474.11762 169.322016 
L 474.11762 78.119326 
" style="fill:none;stroke:#a5a391;stroke-dasharray:9.6,2.4,1.5,2.4;stroke-dashoffset:0;stroke-width:1.5;"/>
   </g>
   <g id="line2d_37">
    <path clip-path="url(#p0383d38d0e)" d="M 493.984237 169.322016 
L 493.984237 78.113626 
" style="fill:none;stroke:#a5a391;stroke-dasharray:9.6,2.4,1.5,2.4;stroke-dashoffset:0;stroke-width:1.5;"/>
   </g>
   <g id="line2d_38">
    <path clip-path="url(#p0383d38d0e)" d="M 512.941927 169.322016 
L 512.941927 78.108696 
" style="fill:none;stroke:#a5a391;stroke-dasharray:9.6,2.4,1.5,2.4;stroke-dashoffset:0;stroke-width:1.5;"/>
   </g>
   <g id="line2d_39">
    <path clip-path="url(#p0383d38d0e)" d="M 531.103584 169.322016 
L 531.103584 78.104378 
" style="fill:none;stroke:#a5a391;stroke-dasharray:9.6,2.4,1.5,2.4;stroke-dashoffset:0;stroke-width:1.5;"/>
   </g>
   <g id="line2d_40">
    <path clip-path="url(#p0383d38d0e)" d="M 548.560657 169.322016 
L 548.560657 78.100556 
" style="fill:none;stroke:#a5a391;stroke-dasharray:9.6,2.4,1.5,2.4;stroke-dashoffset:0;stroke-width:1.5;"/>
   </g>
   <g id="line2d_41">
    <path clip-path="url(#p0383d38d0e)" d="M 565.388428 169.322016 
L 565.388428 78.097142 
" style="fill:none;stroke:#a5a391;stroke-dasharray:9.6,2.4,1.5,2.4;stroke-dashoffset:0;stroke-width:1.5;"/>
   </g>
   <g id="line2d_42">
    <path clip-path="url(#p0383d38d0e)" d="M 581.649735 169.322016 
L 581.649735 78.094069 
" style="fill:none;stroke:#a5a391;stroke-dasharray:9.6,2.4,1.5,2.4;stroke-dashoffset:0;stroke-width:1.5;"/>
   </g>
   <g id="line2d_43">
    <path clip-path="url(#p0383d38d0e)" d="M 597.397664 169.322016 
L 597.397664 78.091284 
" style="fill:none;stroke:#a5a391;stroke-dasharray:9.6,2.4,1.5,2.4;stroke-dashoffset:0;stroke-width:1.5;"/>
   </g>
   <g id="line2d_44">
    <path clip-path="url(#p0383d38d0e)" d="M 612.677538 169.322016 
L 612.677538 78.088745 
" style="fill:none;stroke:#a5a391;stroke-dasharray:9.6,2.4,1.5,2.4;stroke-dashoffset:0;stroke-width:1.5;"/>
   </g>
   <g id="line2d_45">
    <path clip-path="url(#p0383d38d0e)" d="M 627.52841 169.322016 
L 627.52841 78.086418 
" style="fill:none;stroke:#a5a391;stroke-dasharray:9.6,2.4,1.5,2.4;stroke-dashoffset:0;stroke-width:1.5;"/>
   </g>
   <g id="line2d_46">
    <path clip-path="url(#p0383d38d0e)" d="M 641.984216 169.322016 
L 641.984216 78.084274 
" style="fill:none;stroke:#a5a391;stroke-dasharray:9.6,2.4,1.5,2.4;stroke-dashoffset:0;stroke-width:1.5;"/>
   </g>
   <g id="line2d_47">
    <path clip-path="url(#p0383d38d0e)" d="M 656.074657 169.322016 
L 656.074657 78.082292 
" style="fill:none;stroke:#a5a391;stroke-dasharray:9.6,2.4,1.5,2.4;stroke-dashoffset:0;stroke-width:1.5;"/>
   </g>
   <g id="line2d_48">
    <path clip-path="url(#p0383d38d0e)" d="M 669.825908 169.322016 
L 669.825908 78.080451 
" style="fill:none;stroke:#a5a391;stroke-dasharray:9.6,2.4,1.5,2.4;stroke-dashoffset:0;stroke-width:1.5;"/>
   </g>
   <g id="line2d_49">
    <path clip-path="url(#p0383d38d0e)" d="M 683.261172 169.322016 
L 683.261172 78.078737 
" style="fill:none;stroke:#a5a391;stroke-dasharray:9.6,2.4,1.5,2.4;stroke-dashoffset:0;stroke-width:1.5;"/>
   </g>
   <g id="line2d_50">
    <path clip-path="url(#p0383d38d0e)" d="M 696.401132 169.322016 
L 696.401132 78.077135 
" style="fill:none;stroke:#a5a391;stroke-dasharray:9.6,2.4,1.5,2.4;stroke-dashoffset:0;stroke-width:1.5;"/>
   </g>
   <g id="line2d_51">
    <path clip-path="url(#p0383d38d0e)" d="M 709.264318 169.322016 
L 709.264318 78.075633 
" style="fill:none;stroke:#a5a391;stroke-dasharray:9.6,2.4,1.5,2.4;stroke-dashoffset:0;stroke-width:1.5;"/>
   </g>
   <g id="line2d_52">
    <path clip-path="url(#p0383d38d0e)" d="M 99 169.322016 
L 99 78.00581 
" style="fill:none;stroke:#ffa500;stroke-dasharray:9.6,2.4,1.5,2.4;stroke-dashoffset:0;stroke-width:1.5;"/>
   </g>
   <g id="line2d_53">
    <path clip-path="url(#p0383d38d0e)" d="M 99.38589 169.322016 
L 99.38589 121.292954 
" style="fill:none;stroke:#ffa500;stroke-dasharray:9.6,2.4,1.5,2.4;stroke-dashoffset:0;stroke-width:1.5;"/>
   </g>
   <g id="line2d_54">
    <path clip-path="url(#p0383d38d0e)" d="M 99.752726 169.322016 
L 99.752726 109.123221 
" style="fill:none;stroke:#ffa500;stroke-dasharray:9.6,2.4,1.5,2.4;stroke-dashoffset:0;stroke-width:1.5;"/>
   </g>
   <g id="line2d_55">
    <path clip-path="url(#p0383d38d0e)" d="M 100.141132 169.322016 
L 100.141132 102.125134 
" style="fill:none;stroke:#ffa500;stroke-dasharray:9.6,2.4,1.5,2.4;stroke-dashoffset:0;stroke-width:1.5;"/>
   </g>
   <g id="line2d_56">
    <path clip-path="url(#p0383d38d0e)" d="M 100.581855 169.322016 
L 100.581855 97.261307 
" style="fill:none;stroke:#ffa500;stroke-dasharray:9.6,2.4,1.5,2.4;stroke-dashoffset:0;stroke-width:1.5;"/>
   </g>
   <g id="line2d_57">
    <path clip-path="url(#p0383d38d0e)" d="M 101.117041 169.322016 
L 101.117041 93.48974 
" style="fill:none;stroke:#ffa500;stroke-dasharray:9.6,2.4,1.5,2.4;stroke-dashoffset:0;stroke-width:1.5;"/>
   </g>
   <g id="line2d_58">
    <path clip-path="url(#p0383d38d0e)" d="M 101.825544 169.322016 
L 101.825544 90.309519 
" style="fill:none;stroke:#ffa500;stroke-dasharray:9.6,2.4,1.5,2.4;stroke-dashoffset:0;stroke-width:1.5;"/>
   </g>
   <g id="line2d_59">
    <path clip-path="url(#p0383d38d0e)" d="M 102.897745 169.322016 
L 102.897745 87.396708 
" style="fill:none;stroke:#ffa500;stroke-dasharray:9.6,2.4,1.5,2.4;stroke-dashoffset:0;stroke-width:1.5;"/>
   </g>
   <g id="line2d_60">
    <path clip-path="url(#p0383d38d0e)" d="M 104.985734 169.322016 
L 104.985734 84.436344 
" style="fill:none;stroke:#ffa500;stroke-dasharray:9.6,2.4,1.5,2.4;stroke-dashoffset:0;stroke-width:1.5;"/>
   </g>
   <g id="line2d_61">
    <path clip-path="url(#p0383d38d0e)" d="M 112.556572 169.322016 
L 112.556572 81.008135 
" style="fill:none;stroke:#ffa500;stroke-dasharray:9.6,2.4,1.5,2.4;stroke-dashoffset:0;stroke-width:1.5;"/>
   </g>
   <g id="line2d_62">
    <path clip-path="url(#p0383d38d0e)" d="M 194.47387 169.322016 
L 194.47387 78.449554 
" style="fill:none;stroke:#ffa500;stroke-dasharray:9.6,2.4,1.5,2.4;stroke-dashoffset:0;stroke-width:1.5;"/>
   </g>
   <g id="line2d_63">
    <path clip-path="url(#p0383d38d0e)" d="M 247.295272 169.322016 
L 247.295272 78.29219 
" style="fill:none;stroke:#ffa500;stroke-dasharray:9.6,2.4,1.5,2.4;stroke-dashoffset:0;stroke-width:1.5;"/>
   </g>
   <g id="line2d_64">
    <path clip-path="url(#p0383d38d0e)" d="M 288.62862 169.322016 
L 288.62862 78.229982 
" style="fill:none;stroke:#ffa500;stroke-dasharray:9.6,2.4,1.5,2.4;stroke-dashoffset:0;stroke-width:1.5;"/>
   </g>
   <g id="line2d_65">
    <path clip-path="url(#p0383d38d0e)" d="M 323.546467 169.322016 
L 323.546467 78.195224 
" style="fill:none;stroke:#ffa500;stroke-dasharray:9.6,2.4,1.5,2.4;stroke-dashoffset:0;stroke-width:1.5;"/>
   </g>
   <g id="line2d_66">
    <path clip-path="url(#p0383d38d0e)" d="M 354.268758 169.322016 
L 354.268758 78.172485 
" style="fill:none;stroke:#ffa500;stroke-dasharray:9.6,2.4,1.5,2.4;stroke-dashoffset:0;stroke-width:1.5;"/>
   </g>
   <g id="line2d_67">
    <path clip-path="url(#p0383d38d0e)" d="M 381.986359 169.322016 
L 381.986359 78.156198 
" style="fill:none;stroke:#ffa500;stroke-dasharray:9.6,2.4,1.5,2.4;stroke-dashoffset:0;stroke-width:1.5;"/>
   </g>
   <g id="line2d_68">
    <path clip-path="url(#p0383d38d0e)" d="M 407.421253 169.322016 
L 407.421253 78.143822 
" style="fill:none;stroke:#ffa500;stroke-dasharray:9.6,2.4,1.5,2.4;stroke-dashoffset:0;stroke-width:1.5;"/>
   </g>
   <g id="line2d_69">
    <path clip-path="url(#p0383d38d0e)" d="M 431.048581 169.322016 
L 431.048581 78.134021 
" style="fill:none;stroke:#ffa500;stroke-dasharray:9.6,2.4,1.5,2.4;stroke-dashoffset:0;stroke-width:1.5;"/>
   </g>
   <g id="line2d_70">
    <path clip-path="url(#p0383d38d0e)" d="M 453.200023 169.322016 
L 453.200023 78.126017 
" style="fill:none;stroke:#ffa500;stroke-dasharray:9.6,2.4,1.5,2.4;stroke-dashoffset:0;stroke-width:1.5;"/>
   </g>
   <g id="line2d_71">
    <path clip-path="url(#p0383d38d0e)" d="M 474.11762 169.322016 
L 474.11762 78.119326 
" style="fill:none;stroke:#ffa500;stroke-dasharray:9.6,2.4,1.5,2.4;stroke-dashoffset:0;stroke-width:1.5;"/>
   </g>
   <g id="line2d_72">
    <path clip-path="url(#p0383d38d0e)" d="M 493.984237 169.322016 
L 493.984237 78.113626 
" style="fill:none;stroke:#ffa500;stroke-dasharray:9.6,2.4,1.5,2.4;stroke-dashoffset:0;stroke-width:1.5;"/>
   </g>
   <g id="line2d_73">
    <path clip-path="url(#p0383d38d0e)" d="M 512.941927 169.322016 
L 512.941927 78.108696 
" style="fill:none;stroke:#ffa500;stroke-dasharray:9.6,2.4,1.5,2.4;stroke-dashoffset:0;stroke-width:1.5;"/>
   </g>
   <g id="line2d_74">
    <path clip-path="url(#p0383d38d0e)" d="M 531.103584 169.322016 
L 531.103584 78.104378 
" style="fill:none;stroke:#ffa500;stroke-dasharray:9.6,2.4,1.5,2.4;stroke-dashoffset:0;stroke-width:1.5;"/>
   </g>
   <g id="line2d_75">
    <path clip-path="url(#p0383d38d0e)" d="M 548.560657 169.322016 
L 548.560657 78.100556 
" style="fill:none;stroke:#ffa500;stroke-dasharray:9.6,2.4,1.5,2.4;stroke-dashoffset:0;stroke-width:1.5;"/>
   </g>
   <g id="line2d_76">
    <path clip-path="url(#p0383d38d0e)" d="M 565.388428 169.322016 
L 565.388428 78.097142 
" style="fill:none;stroke:#ffa500;stroke-dasharray:9.6,2.4,1.5,2.4;stroke-dashoffset:0;stroke-width:1.5;"/>
   </g>
   <g id="line2d_77">
    <path clip-path="url(#p0383d38d0e)" d="M 581.649735 169.322016 
L 581.649735 78.094069 
" style="fill:none;stroke:#ffa500;stroke-dasharray:9.6,2.4,1.5,2.4;stroke-dashoffset:0;stroke-width:1.5;"/>
   </g>
   <g id="line2d_78">
    <path clip-path="url(#p0383d38d0e)" d="M 597.397664 169.322016 
L 597.397664 78.091284 
" style="fill:none;stroke:#ffa500;stroke-dasharray:9.6,2.4,1.5,2.4;stroke-dashoffset:0;stroke-width:1.5;"/>
   </g>
   <g id="line2d_79">
    <path clip-path="url(#p0383d38d0e)" d="M 612.677538 169.322016 
L 612.677538 78.088745 
" style="fill:none;stroke:#ffa500;stroke-dasharray:9.6,2.4,1.5,2.4;stroke-dashoffset:0;stroke-width:1.5;"/>
   </g>
   <g id="line2d_80">
    <path clip-path="url(#p0383d38d0e)" d="M 627.52841 169.322016 
L 627.52841 78.086418 
" style="fill:none;stroke:#ffa500;stroke-dasharray:9.6,2.4,1.5,2.4;stroke-dashoffset:0;stroke-width:1.5;"/>
   </g>
   <g id="line2d_81">
    <path clip-path="url(#p0383d38d0e)" d="M 641.984216 169.322016 
L 641.984216 78.084274 
" style="fill:none;stroke:#ffa500;stroke-dasharray:9.6,2.4,1.5,2.4;stroke-dashoffset:0;stroke-width:1.5;"/>
   </g>
   <g id="line2d_82">
    <path clip-path="url(#p0383d38d0e)" d="M 656.074657 169.322016 
L 656.074657 78.082292 
" style="fill:none;stroke:#ffa500;stroke-dasharray:9.6,2.4,1.5,2.4;stroke-dashoffset:0;stroke-width:1.5;"/>
   </g>
   <g id="line2d_83">
    <path clip-path="url(#p0383d38d0e)" d="M 669.825908 169.322016 
L 669.825908 78.080451 
" style="fill:none;stroke:#ffa500;stroke-dasharray:9.6,2.4,1.5,2.4;stroke-dashoffset:0;stroke-width:1.5;"/>
   </g>
   <g id="line2d_84">
    <path clip-path="url(#p0383d38d0e)" d="M 683.261172 169.322016 
L 683.261172 78.078737 
" style="fill:none;stroke:#ffa500;stroke-dasharray:9.6,2.4,1.5,2.4;stroke-dashoffset:0;stroke-width:1.5;"/>
   </g>
   <g id="line2d_85">
    <path clip-path="url(#p0383d38d0e)" d="M 696.401132 169.322016 
L 696.401132 78.077135 
" style="fill:none;stroke:#ffa500;stroke-dasharray:9.6,2.4,1.5,2.4;stroke-dashoffset:0;stroke-width:1.5;"/>
   </g>
   <g id="line2d_86">
    <path clip-path="url(#p0383d38d0e)" d="M 709.264318 169.322016 
L 709.264318 78.075633 
" style="fill:none;stroke:#ffa500;stroke-dasharray:9.6,2.4,1.5,2.4;stroke-dashoffset:0;stroke-width:1.5;"/>
   </g>
   <g id="patch_3">
    <path d="M 99 173.887826 
L 99 73.44 
" style="fill:none;stroke:#000000;stroke-linecap:square;stroke-linejoin:miter;stroke-width:0.8;"/>
   </g>
   <g id="patch_4">
    <path d="M 712.8 173.887826 
L 712.8 73.44 
" style="fill:none;stroke:#000000;stroke-linecap:square;stroke-linejoin:miter;stroke-width:0.8;"/>
   </g>
   <g id="patch_5">
    <path d="M 99 173.887826 
L 712.8 173.887826 
" style="fill:none;stroke:#000000;stroke-linecap:square;stroke-linejoin:miter;stroke-width:0.8;"/>
   </g>
   <g id="patch_6">
    <path d="M 99 73.44 
L 712.8 73.44 
" style="fill:none;stroke:#000000;stroke-linecap:square;stroke-linejoin:miter;stroke-width:0.8;"/>
   </g>
  </g>
  <g id="axes_2">
   <g id="patch_7">
    <path d="M 99 294.425217 
L 712.8 294.425217 
L 712.8 193.977391 
L 99 193.977391 
z
" style="fill:#ffffff;"/>
   </g>
   <g id="matplotlib.axis_3">
    <g id="xtick_9">
     <g id="line2d_87">
      <g>
       <use style="stroke:#000000;stroke-width:0.8;" x="172.719539" xlink:href="#m483a9ec2fc" y="294.425217"/>
      </g>
     </g>
    </g>
    <g id="xtick_10">
     <g id="line2d_88">
      <g>
       <use style="stroke:#000000;stroke-width:0.8;" x="249.234334" xlink:href="#m483a9ec2fc" y="294.425217"/>
      </g>
     </g>
    </g>
    <g id="xtick_11">
     <g id="line2d_89">
      <g>
       <use style="stroke:#000000;stroke-width:0.8;" x="326.58995" xlink:href="#m483a9ec2fc" y="294.425217"/>
      </g>
     </g>
    </g>
    <g id="xtick_12">
     <g id="line2d_90">
      <g>
       <use style="stroke:#000000;stroke-width:0.8;" x="403.945567" xlink:href="#m483a9ec2fc" y="294.425217"/>
      </g>
     </g>
    </g>
    <g id="xtick_13">
     <g id="line2d_91">
      <g>
       <use style="stroke:#000000;stroke-width:0.8;" x="480.460361" xlink:href="#m483a9ec2fc" y="294.425217"/>
      </g>
     </g>
    </g>
    <g id="xtick_14">
     <g id="line2d_92">
      <g>
       <use style="stroke:#000000;stroke-width:0.8;" x="556.975156" xlink:href="#m483a9ec2fc" y="294.425217"/>
      </g>
     </g>
    </g>
    <g id="xtick_15">
     <g id="line2d_93">
      <g>
       <use style="stroke:#000000;stroke-width:0.8;" x="634.330772" xlink:href="#m483a9ec2fc" y="294.425217"/>
      </g>
     </g>
    </g>
    <g id="xtick_16">
     <g id="line2d_94">
      <g>
       <use style="stroke:#000000;stroke-width:0.8;" x="711.686389" xlink:href="#m483a9ec2fc" y="294.425217"/>
      </g>
     </g>
    </g>
   </g>
   <g id="matplotlib.axis_4">
    <g id="ytick_6">
     <g id="line2d_95">
      <g>
       <use style="stroke:#000000;stroke-width:0.8;" x="99" xlink:href="#m0703397778" y="289.859407"/>
      </g>
     </g>
     <g id="text_7">
      <!-- 0.00 -->
      <g transform="translate(69.734375 293.658626)scale(0.1 -0.1)">
       <use xlink:href="#DejaVuSans-48"/>
       <use x="63.623047" xlink:href="#DejaVuSans-46"/>
       <use x="95.410156" xlink:href="#DejaVuSans-48"/>
       <use x="159.033203" xlink:href="#DejaVuSans-48"/>
      </g>
     </g>
    </g>
    <g id="ytick_7">
     <g id="line2d_96">
      <g>
       <use style="stroke:#000000;stroke-width:0.8;" x="99" xlink:href="#m0703397778" y="267.030356"/>
      </g>
     </g>
     <g id="text_8">
      <!-- 0.25 -->
      <g transform="translate(69.734375 270.829574)scale(0.1 -0.1)">
       <use xlink:href="#DejaVuSans-48"/>
       <use x="63.623047" xlink:href="#DejaVuSans-46"/>
       <use x="95.410156" xlink:href="#DejaVuSans-50"/>
       <use x="159.033203" xlink:href="#DejaVuSans-53"/>
      </g>
     </g>
    </g>
    <g id="ytick_8">
     <g id="line2d_97">
      <g>
       <use style="stroke:#000000;stroke-width:0.8;" x="99" xlink:href="#m0703397778" y="244.201304"/>
      </g>
     </g>
     <g id="text_9">
      <!-- 0.50 -->
      <g transform="translate(69.734375 248.000523)scale(0.1 -0.1)">
       <use xlink:href="#DejaVuSans-48"/>
       <use x="63.623047" xlink:href="#DejaVuSans-46"/>
       <use x="95.410156" xlink:href="#DejaVuSans-53"/>
       <use x="159.033203" xlink:href="#DejaVuSans-48"/>
      </g>
     </g>
    </g>
    <g id="ytick_9">
     <g id="line2d_98">
      <g>
       <use style="stroke:#000000;stroke-width:0.8;" x="99" xlink:href="#m0703397778" y="221.372253"/>
      </g>
     </g>
     <g id="text_10">
      <!-- 0.75 -->
      <g transform="translate(69.734375 225.171472)scale(0.1 -0.1)">
       <use xlink:href="#DejaVuSans-48"/>
       <use x="63.623047" xlink:href="#DejaVuSans-46"/>
       <use x="95.410156" xlink:href="#DejaVuSans-55"/>
       <use x="159.033203" xlink:href="#DejaVuSans-53"/>
      </g>
     </g>
    </g>
    <g id="ytick_10">
     <g id="line2d_99">
      <g>
       <use style="stroke:#000000;stroke-width:0.8;" x="99" xlink:href="#m0703397778" y="198.543202"/>
      </g>
     </g>
     <g id="text_11">
      <!-- 1.00 -->
      <g transform="translate(69.734375 202.34242)scale(0.1 -0.1)">
       <use xlink:href="#DejaVuSans-49"/>
       <use x="63.623047" xlink:href="#DejaVuSans-46"/>
       <use x="95.410156" xlink:href="#DejaVuSans-48"/>
       <use x="159.033203" xlink:href="#DejaVuSans-48"/>
      </g>
     </g>
    </g>
    <g id="text_12">
     <!-- observed -->
     <defs>
      <path d="M 48.6875 27.296875 
Q 48.6875 37.203125 44.609375 42.84375 
Q 40.53125 48.484375 33.40625 48.484375 
Q 26.265625 48.484375 22.1875 42.84375 
Q 18.109375 37.203125 18.109375 27.296875 
Q 18.109375 17.390625 22.1875 11.75 
Q 26.265625 6.109375 33.40625 6.109375 
Q 40.53125 6.109375 44.609375 11.75 
Q 48.6875 17.390625 48.6875 27.296875 
z
M 18.109375 46.390625 
Q 20.953125 51.265625 25.265625 53.625 
Q 29.59375 56 35.59375 56 
Q 45.5625 56 51.78125 48.09375 
Q 58.015625 40.1875 58.015625 27.296875 
Q 58.015625 14.40625 51.78125 6.484375 
Q 45.5625 -1.421875 35.59375 -1.421875 
Q 29.59375 -1.421875 25.265625 0.953125 
Q 20.953125 3.328125 18.109375 8.203125 
L 18.109375 0 
L 9.078125 0 
L 9.078125 75.984375 
L 18.109375 75.984375 
z
" id="DejaVuSans-98"/>
      <path d="M 44.28125 53.078125 
L 44.28125 44.578125 
Q 40.484375 46.53125 36.375 47.5 
Q 32.28125 48.484375 27.875 48.484375 
Q 21.1875 48.484375 17.84375 46.4375 
Q 14.5 44.390625 14.5 40.28125 
Q 14.5 37.15625 16.890625 35.375 
Q 19.28125 33.59375 26.515625 31.984375 
L 29.59375 31.296875 
Q 39.15625 29.25 43.1875 25.515625 
Q 47.21875 21.78125 47.21875 15.09375 
Q 47.21875 7.46875 41.1875 3.015625 
Q 35.15625 -1.421875 24.609375 -1.421875 
Q 20.21875 -1.421875 15.453125 -0.5625 
Q 10.6875 0.296875 5.421875 2 
L 5.421875 11.28125 
Q 10.40625 8.6875 15.234375 7.390625 
Q 20.0625 6.109375 24.8125 6.109375 
Q 31.15625 6.109375 34.5625 8.28125 
Q 37.984375 10.453125 37.984375 14.40625 
Q 37.984375 18.0625 35.515625 20.015625 
Q 33.0625 21.96875 24.703125 23.78125 
L 21.578125 24.515625 
Q 13.234375 26.265625 9.515625 29.90625 
Q 5.8125 33.546875 5.8125 39.890625 
Q 5.8125 47.609375 11.28125 51.796875 
Q 16.75 56 26.8125 56 
Q 31.78125 56 36.171875 55.265625 
Q 40.578125 54.546875 44.28125 53.078125 
z
" id="DejaVuSans-115"/>
      <path d="M 2.984375 54.6875 
L 12.5 54.6875 
L 29.59375 8.796875 
L 46.6875 54.6875 
L 56.203125 54.6875 
L 35.6875 0 
L 23.484375 0 
z
" id="DejaVuSans-118"/>
     </defs>
     <g transform="translate(63.654687 267.381773)rotate(-90)scale(0.1 -0.1)">
      <use xlink:href="#DejaVuSans-111"/>
      <use x="61.181641" xlink:href="#DejaVuSans-98"/>
      <use x="124.658203" xlink:href="#DejaVuSans-115"/>
      <use x="176.757812" xlink:href="#DejaVuSans-101"/>
      <use x="238.28125" xlink:href="#DejaVuSans-114"/>
      <use x="279.394531" xlink:href="#DejaVuSans-118"/>
      <use x="338.574219" xlink:href="#DejaVuSans-101"/>
      <use x="400.097656" xlink:href="#DejaVuSans-100"/>
     </g>
    </g>
   </g>
   <g id="line2d_100">
    <path clip-path="url(#p62d3ad288c)" d="M 99 253.332925 
L 99.681066 249.680277 
L 99.681066 198.543202 
L 100.471438 231.417036 
L 100.471438 198.543202 
L 101.539282 213.153794 
L 101.539282 198.543202 
L 103.035945 214.066957 
L 103.035945 198.543202 
L 106.004046 208.587984 
L 106.004046 198.543202 
L 112.453151 199.456364 
L 112.453151 198.543202 
L 118.338904 199.456364 
L 118.338904 198.543202 
L 123.383835 207.674822 
L 123.383835 198.543202 
L 149.449315 199.456364 
L 149.449315 198.543202 
" style="fill:none;stroke:#e50000;stroke-linecap:square;stroke-width:1.5;"/>
   </g>
   <g id="line2d_101">
    <path clip-path="url(#p62d3ad288c)" d="M 99 289.859407 
L 99.681066 251.849453 
L 100.471438 236.486167 
L 101.539282 226.027091 
L 103.035945 218.416075 
L 106.004046 211.390534 
L 111.526531 206.299124 
L 112.453151 205.815779 
L 118.338904 203.753677 
L 123.383835 202.735073 
L 124.053061 202.62912 
L 136.579592 201.316924 
L 149.106122 200.642706 
L 149.449315 200.628817 
L 161.632653 200.232172 
L 174.159184 199.955932 
L 186.685714 199.757353 
L 199.212245 199.60772 
L 211.738776 199.490923 
L 224.265306 199.397221 
L 236.791837 199.320382 
L 249.318367 199.256228 
L 261.844898 199.201857 
L 274.371429 199.155192 
L 286.897959 199.114701 
L 299.42449 199.079236 
L 311.95102 199.047915 
L 324.477551 199.020052 
L 337.004082 198.995105 
L 349.530612 198.972638 
L 362.057143 198.9523 
L 374.583673 198.9338 
L 387.110204 198.916902 
L 399.636735 198.901405 
L 412.163265 198.887142 
L 424.689796 198.873971 
L 437.216327 198.861772 
L 449.742857 198.850441 
L 462.269388 198.839888 
L 474.795918 198.830036 
L 487.322449 198.820817 
L 499.84898 198.812173 
L 512.37551 198.80405 
L 524.902041 198.796404 
L 537.428571 198.789193 
L 549.955102 198.782382 
L 562.481633 198.775937 
L 575.008163 198.769831 
L 587.534694 198.764037 
L 600.061224 198.758532 
L 612.587755 198.753295 
L 625.114286 198.748306 
L 637.640816 198.743549 
L 650.167347 198.739007 
L 662.693878 198.734667 
L 675.220408 198.730515 
L 687.746939 198.726539 
L 700.273469 198.722729 
L 712.8 198.719074 
" style="fill:none;stroke:#1f77b4;stroke-linecap:square;stroke-width:1.5;"/>
   </g>
   <g id="line2d_102">
    <path clip-path="url(#p62d3ad288c)" d="M 99 289.859407 
L 99 198.543202 
" style="fill:none;stroke:#ff7f0e;stroke-linecap:square;stroke-width:1.5;"/>
   </g>
   <g id="line2d_103">
    <path clip-path="url(#p62d3ad288c)" d="M 99 289.859407 
L 99 198.543202 
" style="fill:none;stroke:#a5a391;stroke-dasharray:9.6,2.4,1.5,2.4;stroke-dashoffset:0;stroke-width:1.5;"/>
   </g>
   <g id="line2d_104">
    <path clip-path="url(#p62d3ad288c)" d="M 99.681066 289.859407 
L 99.681066 249.680277 
" style="fill:none;stroke:#a5a391;stroke-dasharray:9.6,2.4,1.5,2.4;stroke-dashoffset:0;stroke-width:1.5;"/>
   </g>
   <g id="line2d_105">
    <path clip-path="url(#p62d3ad288c)" d="M 100.471438 289.859407 
L 100.471438 231.417036 
" style="fill:none;stroke:#a5a391;stroke-dasharray:9.6,2.4,1.5,2.4;stroke-dashoffset:0;stroke-width:1.5;"/>
   </g>
   <g id="line2d_106">
    <path clip-path="url(#p62d3ad288c)" d="M 101.539282 289.859407 
L 101.539282 213.153794 
" style="fill:none;stroke:#a5a391;stroke-dasharray:9.6,2.4,1.5,2.4;stroke-dashoffset:0;stroke-width:1.5;"/>
   </g>
   <g id="line2d_107">
    <path clip-path="url(#p62d3ad288c)" d="M 103.035945 289.859407 
L 103.035945 214.066957 
" style="fill:none;stroke:#a5a391;stroke-dasharray:9.6,2.4,1.5,2.4;stroke-dashoffset:0;stroke-width:1.5;"/>
   </g>
   <g id="line2d_108">
    <path clip-path="url(#p62d3ad288c)" d="M 106.004046 289.859407 
L 106.004046 208.587984 
" style="fill:none;stroke:#a5a391;stroke-dasharray:9.6,2.4,1.5,2.4;stroke-dashoffset:0;stroke-width:1.5;"/>
   </g>
   <g id="line2d_109">
    <path clip-path="url(#p62d3ad288c)" d="M 112.453151 289.859407 
L 112.453151 199.456364 
" style="fill:none;stroke:#a5a391;stroke-dasharray:9.6,2.4,1.5,2.4;stroke-dashoffset:0;stroke-width:1.5;"/>
   </g>
   <g id="line2d_110">
    <path clip-path="url(#p62d3ad288c)" d="M 118.338904 289.859407 
L 118.338904 199.456364 
" style="fill:none;stroke:#a5a391;stroke-dasharray:9.6,2.4,1.5,2.4;stroke-dashoffset:0;stroke-width:1.5;"/>
   </g>
   <g id="line2d_111">
    <path clip-path="url(#p62d3ad288c)" d="M 123.383835 289.859407 
L 123.383835 207.674822 
" style="fill:none;stroke:#a5a391;stroke-dasharray:9.6,2.4,1.5,2.4;stroke-dashoffset:0;stroke-width:1.5;"/>
   </g>
   <g id="line2d_112">
    <path clip-path="url(#p62d3ad288c)" d="M 149.449315 289.859407 
L 149.449315 199.456364 
" style="fill:none;stroke:#a5a391;stroke-dasharray:9.6,2.4,1.5,2.4;stroke-dashoffset:0;stroke-width:1.5;"/>
   </g>
   <g id="patch_8">
    <path d="M 99 294.425217 
L 99 193.977391 
" style="fill:none;stroke:#000000;stroke-linecap:square;stroke-linejoin:miter;stroke-width:0.8;"/>
   </g>
   <g id="patch_9">
    <path d="M 712.8 294.425217 
L 712.8 193.977391 
" style="fill:none;stroke:#000000;stroke-linecap:square;stroke-linejoin:miter;stroke-width:0.8;"/>
   </g>
   <g id="patch_10">
    <path d="M 99 294.425217 
L 712.8 294.425217 
" style="fill:none;stroke:#000000;stroke-linecap:square;stroke-linejoin:miter;stroke-width:0.8;"/>
   </g>
   <g id="patch_11">
    <path d="M 99 193.977391 
L 712.8 193.977391 
" style="fill:none;stroke:#000000;stroke-linecap:square;stroke-linejoin:miter;stroke-width:0.8;"/>
   </g>
  </g>
  <g id="axes_3">
   <g id="patch_12">
    <path d="M 99 414.962609 
L 712.8 414.962609 
L 712.8 314.514783 
L 99 314.514783 
z
" style="fill:#ffffff;"/>
   </g>
   <g id="matplotlib.axis_5">
    <g id="xtick_17">
     <g id="line2d_113">
      <g>
       <use style="stroke:#000000;stroke-width:0.8;" x="172.719539" xlink:href="#m483a9ec2fc" y="414.962609"/>
      </g>
     </g>
    </g>
    <g id="xtick_18">
     <g id="line2d_114">
      <g>
       <use style="stroke:#000000;stroke-width:0.8;" x="249.234334" xlink:href="#m483a9ec2fc" y="414.962609"/>
      </g>
     </g>
    </g>
    <g id="xtick_19">
     <g id="line2d_115">
      <g>
       <use style="stroke:#000000;stroke-width:0.8;" x="326.58995" xlink:href="#m483a9ec2fc" y="414.962609"/>
      </g>
     </g>
    </g>
    <g id="xtick_20">
     <g id="line2d_116">
      <g>
       <use style="stroke:#000000;stroke-width:0.8;" x="403.945567" xlink:href="#m483a9ec2fc" y="414.962609"/>
      </g>
     </g>
    </g>
    <g id="xtick_21">
     <g id="line2d_117">
      <g>
       <use style="stroke:#000000;stroke-width:0.8;" x="480.460361" xlink:href="#m483a9ec2fc" y="414.962609"/>
      </g>
     </g>
    </g>
    <g id="xtick_22">
     <g id="line2d_118">
      <g>
       <use style="stroke:#000000;stroke-width:0.8;" x="556.975156" xlink:href="#m483a9ec2fc" y="414.962609"/>
      </g>
     </g>
    </g>
    <g id="xtick_23">
     <g id="line2d_119">
      <g>
       <use style="stroke:#000000;stroke-width:0.8;" x="634.330772" xlink:href="#m483a9ec2fc" y="414.962609"/>
      </g>
     </g>
    </g>
    <g id="xtick_24">
     <g id="line2d_120">
      <g>
       <use style="stroke:#000000;stroke-width:0.8;" x="711.686389" xlink:href="#m483a9ec2fc" y="414.962609"/>
      </g>
     </g>
    </g>
   </g>
   <g id="matplotlib.axis_6">
    <g id="ytick_11">
     <g id="line2d_121">
      <g>
       <use style="stroke:#000000;stroke-width:0.8;" x="99" xlink:href="#m0703397778" y="410.396798"/>
      </g>
     </g>
     <g id="text_13">
      <!-- 0.00 -->
      <g transform="translate(69.734375 414.196017)scale(0.1 -0.1)">
       <use xlink:href="#DejaVuSans-48"/>
       <use x="63.623047" xlink:href="#DejaVuSans-46"/>
       <use x="95.410156" xlink:href="#DejaVuSans-48"/>
       <use x="159.033203" xlink:href="#DejaVuSans-48"/>
      </g>
     </g>
    </g>
    <g id="ytick_12">
     <g id="line2d_122">
      <g>
       <use style="stroke:#000000;stroke-width:0.8;" x="99" xlink:href="#m0703397778" y="390.049162"/>
      </g>
     </g>
     <g id="text_14">
      <!-- 0.05 -->
      <g transform="translate(69.734375 393.848381)scale(0.1 -0.1)">
       <use xlink:href="#DejaVuSans-48"/>
       <use x="63.623047" xlink:href="#DejaVuSans-46"/>
       <use x="95.410156" xlink:href="#DejaVuSans-48"/>
       <use x="159.033203" xlink:href="#DejaVuSans-53"/>
      </g>
     </g>
    </g>
    <g id="ytick_13">
     <g id="line2d_123">
      <g>
       <use style="stroke:#000000;stroke-width:0.8;" x="99" xlink:href="#m0703397778" y="369.701526"/>
      </g>
     </g>
     <g id="text_15">
      <!-- 0.10 -->
      <g transform="translate(69.734375 373.500744)scale(0.1 -0.1)">
       <use xlink:href="#DejaVuSans-48"/>
       <use x="63.623047" xlink:href="#DejaVuSans-46"/>
       <use x="95.410156" xlink:href="#DejaVuSans-49"/>
       <use x="159.033203" xlink:href="#DejaVuSans-48"/>
      </g>
     </g>
    </g>
    <g id="ytick_14">
     <g id="line2d_124">
      <g>
       <use style="stroke:#000000;stroke-width:0.8;" x="99" xlink:href="#m0703397778" y="349.353889"/>
      </g>
     </g>
     <g id="text_16">
      <!-- 0.15 -->
      <g transform="translate(69.734375 353.153108)scale(0.1 -0.1)">
       <use xlink:href="#DejaVuSans-48"/>
       <use x="63.623047" xlink:href="#DejaVuSans-46"/>
       <use x="95.410156" xlink:href="#DejaVuSans-49"/>
       <use x="159.033203" xlink:href="#DejaVuSans-53"/>
      </g>
     </g>
    </g>
    <g id="ytick_15">
     <g id="line2d_125">
      <g>
       <use style="stroke:#000000;stroke-width:0.8;" x="99" xlink:href="#m0703397778" y="329.006253"/>
      </g>
     </g>
     <g id="text_17">
      <!-- 0.20 -->
      <g transform="translate(69.734375 332.805472)scale(0.1 -0.1)">
       <use xlink:href="#DejaVuSans-48"/>
       <use x="63.623047" xlink:href="#DejaVuSans-46"/>
       <use x="95.410156" xlink:href="#DejaVuSans-50"/>
       <use x="159.033203" xlink:href="#DejaVuSans-48"/>
      </g>
     </g>
    </g>
    <g id="text_18">
     <!-- error signal -->
     <defs>
      <path id="DejaVuSans-32"/>
      <path d="M 45.40625 27.984375 
Q 45.40625 37.75 41.375 43.109375 
Q 37.359375 48.484375 30.078125 48.484375 
Q 22.859375 48.484375 18.828125 43.109375 
Q 14.796875 37.75 14.796875 27.984375 
Q 14.796875 18.265625 18.828125 12.890625 
Q 22.859375 7.515625 30.078125 7.515625 
Q 37.359375 7.515625 41.375 12.890625 
Q 45.40625 18.265625 45.40625 27.984375 
z
M 54.390625 6.78125 
Q 54.390625 -7.171875 48.1875 -13.984375 
Q 42 -20.796875 29.203125 -20.796875 
Q 24.46875 -20.796875 20.265625 -20.09375 
Q 16.0625 -19.390625 12.109375 -17.921875 
L 12.109375 -9.1875 
Q 16.0625 -11.328125 19.921875 -12.34375 
Q 23.78125 -13.375 27.78125 -13.375 
Q 36.625 -13.375 41.015625 -8.765625 
Q 45.40625 -4.15625 45.40625 5.171875 
L 45.40625 9.625 
Q 42.625 4.78125 38.28125 2.390625 
Q 33.9375 0 27.875 0 
Q 17.828125 0 11.671875 7.65625 
Q 5.515625 15.328125 5.515625 27.984375 
Q 5.515625 40.671875 11.671875 48.328125 
Q 17.828125 56 27.875 56 
Q 33.9375 56 38.28125 53.609375 
Q 42.625 51.21875 45.40625 46.390625 
L 45.40625 54.6875 
L 54.390625 54.6875 
z
" id="DejaVuSans-103"/>
      <path d="M 9.421875 75.984375 
L 18.40625 75.984375 
L 18.40625 0 
L 9.421875 0 
z
" id="DejaVuSans-108"/>
     </defs>
     <g transform="translate(63.654687 393.417602)rotate(-90)scale(0.1 -0.1)">
      <use xlink:href="#DejaVuSans-101"/>
      <use x="61.523438" xlink:href="#DejaVuSans-114"/>
      <use x="102.621094" xlink:href="#DejaVuSans-114"/>
      <use x="143.703125" xlink:href="#DejaVuSans-111"/>
      <use x="204.884766" xlink:href="#DejaVuSans-114"/>
      <use x="245.998047" xlink:href="#DejaVuSans-32"/>
      <use x="277.785156" xlink:href="#DejaVuSans-115"/>
      <use x="329.884766" xlink:href="#DejaVuSans-105"/>
      <use x="357.667969" xlink:href="#DejaVuSans-103"/>
      <use x="421.144531" xlink:href="#DejaVuSans-110"/>
      <use x="484.523438" xlink:href="#DejaVuSans-97"/>
      <use x="545.802734" xlink:href="#DejaVuSans-108"/>
     </g>
    </g>
   </g>
   <g id="line2d_126">
    <path clip-path="url(#pc58de05905)" d="M 99 410.396798 
L 99.614414 319.080593 
L 100.228829 327.431654 
L 101.457658 346.664585 
L 102.072072 353.813135 
L 103.300901 364.394314 
L 104.52973 371.733516 
L 105.758559 377.084901 
L 106.987387 381.148407 
L 108.216216 384.334775 
L 109.445045 386.898505 
L 110.673874 389.004965 
L 111.902703 390.766013 
L 113.745946 392.924924 
L 115.589189 394.656883 
L 117.432432 396.076935 
L 119.275676 397.262262 
L 121.733333 398.568073 
L 124.190991 399.637915 
L 127.263063 400.730878 
L 130.94955 401.781295 
L 135.25045 402.7508 
L 140.165766 403.622142 
L 146.30991 404.46692 
L 153.682883 405.238791 
L 162.899099 405.960627 
L 174.572973 406.628613 
L 189.318919 407.23081 
L 208.365766 407.77253 
L 233.556757 408.256818 
L 268.578378 408.693754 
L 318.345946 409.076762 
L 392.69009 409.408716 
L 510.043243 409.689487 
L 709.727928 409.920018 
L 712.8 409.922396 
L 712.8 409.922396 
" style="fill:none;stroke:#1f77b4;stroke-linecap:square;stroke-width:1.5;"/>
   </g>
   <g id="line2d_127">
    <path clip-path="url(#pc58de05905)" d="M 99 410.396798 
L 712.8 410.396798 
" style="fill:none;stroke:#a5a391;stroke-linecap:square;stroke-width:1.5;"/>
   </g>
   <g id="line2d_128">
    <path clip-path="url(#pc58de05905)" d="M 99 410.396798 
L 99 410.396798 
" style="fill:none;stroke:#a5a391;stroke-dasharray:9.6,2.4,1.5,2.4;stroke-dashoffset:0;stroke-width:1.5;"/>
   </g>
   <g id="line2d_129">
    <path clip-path="url(#pc58de05905)" d="M 99.681066 410.396798 
L 99.681066 319.445052 
" style="fill:none;stroke:#a5a391;stroke-dasharray:9.6,2.4,1.5,2.4;stroke-dashoffset:0;stroke-width:1.5;"/>
   </g>
   <g id="line2d_130">
    <path clip-path="url(#pc58de05905)" d="M 100.471438 410.396798 
L 100.471438 331.670086 
" style="fill:none;stroke:#a5a391;stroke-dasharray:9.6,2.4,1.5,2.4;stroke-dashoffset:0;stroke-width:1.5;"/>
   </g>
   <g id="line2d_131">
    <path clip-path="url(#pc58de05905)" d="M 101.539282 410.396798 
L 101.539282 347.704023 
" style="fill:none;stroke:#a5a391;stroke-dasharray:9.6,2.4,1.5,2.4;stroke-dashoffset:0;stroke-width:1.5;"/>
   </g>
   <g id="line2d_132">
    <path clip-path="url(#pc58de05905)" d="M 103.035945 410.396798 
L 103.035945 362.445354 
" style="fill:none;stroke:#a5a391;stroke-dasharray:9.6,2.4,1.5,2.4;stroke-dashoffset:0;stroke-width:1.5;"/>
   </g>
   <g id="line2d_133">
    <path clip-path="url(#pc58de05905)" d="M 106.004046 410.396798 
L 106.004046 377.983454 
" style="fill:none;stroke:#a5a391;stroke-dasharray:9.6,2.4,1.5,2.4;stroke-dashoffset:0;stroke-width:1.5;"/>
   </g>
   <g id="line2d_134">
    <path clip-path="url(#pc58de05905)" d="M 112.453151 410.396798 
L 112.453151 391.464455 
" style="fill:none;stroke:#a5a391;stroke-dasharray:9.6,2.4,1.5,2.4;stroke-dashoffset:0;stroke-width:1.5;"/>
   </g>
   <g id="line2d_135">
    <path clip-path="url(#pc58de05905)" d="M 118.338904 410.396798 
L 118.338904 396.68542 
" style="fill:none;stroke:#a5a391;stroke-dasharray:9.6,2.4,1.5,2.4;stroke-dashoffset:0;stroke-width:1.5;"/>
   </g>
   <g id="line2d_136">
    <path clip-path="url(#pc58de05905)" d="M 123.383835 410.396798 
L 123.383835 399.308529 
" style="fill:none;stroke:#a5a391;stroke-dasharray:9.6,2.4,1.5,2.4;stroke-dashoffset:0;stroke-width:1.5;"/>
   </g>
   <g id="line2d_137">
    <path clip-path="url(#pc58de05905)" d="M 149.449315 410.396798 
L 149.449315 404.822126 
" style="fill:none;stroke:#a5a391;stroke-dasharray:9.6,2.4,1.5,2.4;stroke-dashoffset:0;stroke-width:1.5;"/>
   </g>
   <g id="patch_13">
    <path d="M 99 414.962609 
L 99 314.514783 
" style="fill:none;stroke:#000000;stroke-linecap:square;stroke-linejoin:miter;stroke-width:0.8;"/>
   </g>
   <g id="patch_14">
    <path d="M 712.8 414.962609 
L 712.8 314.514783 
" style="fill:none;stroke:#000000;stroke-linecap:square;stroke-linejoin:miter;stroke-width:0.8;"/>
   </g>
   <g id="patch_15">
    <path d="M 99 414.962609 
L 712.8 414.962609 
" style="fill:none;stroke:#000000;stroke-linecap:square;stroke-linejoin:miter;stroke-width:0.8;"/>
   </g>
   <g id="patch_16">
    <path d="M 99 314.514783 
L 712.8 314.514783 
" style="fill:none;stroke:#000000;stroke-linecap:square;stroke-linejoin:miter;stroke-width:0.8;"/>
   </g>
  </g>
  <g id="axes_4">
   <g id="patch_17">
    <path d="M 99 535.5 
L 712.8 535.5 
L 712.8 435.052174 
L 99 435.052174 
z
" style="fill:#ffffff;"/>
   </g>
   <g id="matplotlib.axis_7">
    <g id="xtick_25">
     <g id="line2d_138">
      <g>
       <use style="stroke:#000000;stroke-width:0.8;" x="172.719539" xlink:href="#m483a9ec2fc" y="535.5"/>
      </g>
     </g>
     <g id="text_19">
      <!-- 2019-04 -->
      <defs>
       <path d="M 10.984375 1.515625 
L 10.984375 10.5 
Q 14.703125 8.734375 18.5 7.8125 
Q 22.3125 6.890625 25.984375 6.890625 
Q 35.75 6.890625 40.890625 13.453125 
Q 46.046875 20.015625 46.78125 33.40625 
Q 43.953125 29.203125 39.59375 26.953125 
Q 35.25 24.703125 29.984375 24.703125 
Q 19.046875 24.703125 12.671875 31.3125 
Q 6.296875 37.9375 6.296875 49.421875 
Q 6.296875 60.640625 12.9375 67.421875 
Q 19.578125 74.21875 30.609375 74.21875 
Q 43.265625 74.21875 49.921875 64.515625 
Q 56.59375 54.828125 56.59375 36.375 
Q 56.59375 19.140625 48.40625 8.859375 
Q 40.234375 -1.421875 26.421875 -1.421875 
Q 22.703125 -1.421875 18.890625 -0.6875 
Q 15.09375 0.046875 10.984375 1.515625 
z
M 30.609375 32.421875 
Q 37.25 32.421875 41.125 36.953125 
Q 45.015625 41.5 45.015625 49.421875 
Q 45.015625 57.28125 41.125 61.84375 
Q 37.25 66.40625 30.609375 66.40625 
Q 23.96875 66.40625 20.09375 61.84375 
Q 16.21875 57.28125 16.21875 49.421875 
Q 16.21875 41.5 20.09375 36.953125 
Q 23.96875 32.421875 30.609375 32.421875 
z
" id="DejaVuSans-57"/>
       <path d="M 4.890625 31.390625 
L 31.203125 31.390625 
L 31.203125 23.390625 
L 4.890625 23.390625 
z
" id="DejaVuSans-45"/>
       <path d="M 37.796875 64.3125 
L 12.890625 25.390625 
L 37.796875 25.390625 
z
M 35.203125 72.90625 
L 47.609375 72.90625 
L 47.609375 25.390625 
L 58.015625 25.390625 
L 58.015625 17.1875 
L 47.609375 17.1875 
L 47.609375 0 
L 37.796875 0 
L 37.796875 17.1875 
L 4.890625 17.1875 
L 4.890625 26.703125 
z
" id="DejaVuSans-52"/>
      </defs>
      <g transform="translate(138.06269 567.044703)rotate(-25)scale(0.1 -0.1)">
       <use xlink:href="#DejaVuSans-50"/>
       <use x="63.623047" xlink:href="#DejaVuSans-48"/>
       <use x="127.246094" xlink:href="#DejaVuSans-49"/>
       <use x="190.869141" xlink:href="#DejaVuSans-57"/>
       <use x="254.492188" xlink:href="#DejaVuSans-45"/>
       <use x="290.576172" xlink:href="#DejaVuSans-48"/>
       <use x="354.199219" xlink:href="#DejaVuSans-52"/>
      </g>
     </g>
    </g>
    <g id="xtick_26">
     <g id="line2d_139">
      <g>
       <use style="stroke:#000000;stroke-width:0.8;" x="249.234334" xlink:href="#m483a9ec2fc" y="535.5"/>
      </g>
     </g>
     <g id="text_20">
      <!-- 2019-07 -->
      <g transform="translate(214.577484 567.044703)rotate(-25)scale(0.1 -0.1)">
       <use xlink:href="#DejaVuSans-50"/>
       <use x="63.623047" xlink:href="#DejaVuSans-48"/>
       <use x="127.246094" xlink:href="#DejaVuSans-49"/>
       <use x="190.869141" xlink:href="#DejaVuSans-57"/>
       <use x="254.492188" xlink:href="#DejaVuSans-45"/>
       <use x="290.576172" xlink:href="#DejaVuSans-48"/>
       <use x="354.199219" xlink:href="#DejaVuSans-55"/>
      </g>
     </g>
    </g>
    <g id="xtick_27">
     <g id="line2d_140">
      <g>
       <use style="stroke:#000000;stroke-width:0.8;" x="326.58995" xlink:href="#m483a9ec2fc" y="535.5"/>
      </g>
     </g>
     <g id="text_21">
      <!-- 2019-10 -->
      <g transform="translate(291.933101 567.044703)rotate(-25)scale(0.1 -0.1)">
       <use xlink:href="#DejaVuSans-50"/>
       <use x="63.623047" xlink:href="#DejaVuSans-48"/>
       <use x="127.246094" xlink:href="#DejaVuSans-49"/>
       <use x="190.869141" xlink:href="#DejaVuSans-57"/>
       <use x="254.492188" xlink:href="#DejaVuSans-45"/>
       <use x="290.576172" xlink:href="#DejaVuSans-49"/>
       <use x="354.199219" xlink:href="#DejaVuSans-48"/>
      </g>
     </g>
    </g>
    <g id="xtick_28">
     <g id="line2d_141">
      <g>
       <use style="stroke:#000000;stroke-width:0.8;" x="403.945567" xlink:href="#m483a9ec2fc" y="535.5"/>
      </g>
     </g>
     <g id="text_22">
      <!-- 2020-01 -->
      <g transform="translate(369.288717 567.044703)rotate(-25)scale(0.1 -0.1)">
       <use xlink:href="#DejaVuSans-50"/>
       <use x="63.623047" xlink:href="#DejaVuSans-48"/>
       <use x="127.246094" xlink:href="#DejaVuSans-50"/>
       <use x="190.869141" xlink:href="#DejaVuSans-48"/>
       <use x="254.492188" xlink:href="#DejaVuSans-45"/>
       <use x="290.576172" xlink:href="#DejaVuSans-48"/>
       <use x="354.199219" xlink:href="#DejaVuSans-49"/>
      </g>
     </g>
    </g>
    <g id="xtick_29">
     <g id="line2d_142">
      <g>
       <use style="stroke:#000000;stroke-width:0.8;" x="480.460361" xlink:href="#m483a9ec2fc" y="535.5"/>
      </g>
     </g>
     <g id="text_23">
      <!-- 2020-04 -->
      <g transform="translate(445.803511 567.044703)rotate(-25)scale(0.1 -0.1)">
       <use xlink:href="#DejaVuSans-50"/>
       <use x="63.623047" xlink:href="#DejaVuSans-48"/>
       <use x="127.246094" xlink:href="#DejaVuSans-50"/>
       <use x="190.869141" xlink:href="#DejaVuSans-48"/>
       <use x="254.492188" xlink:href="#DejaVuSans-45"/>
       <use x="290.576172" xlink:href="#DejaVuSans-48"/>
       <use x="354.199219" xlink:href="#DejaVuSans-52"/>
      </g>
     </g>
    </g>
    <g id="xtick_30">
     <g id="line2d_143">
      <g>
       <use style="stroke:#000000;stroke-width:0.8;" x="556.975156" xlink:href="#m483a9ec2fc" y="535.5"/>
      </g>
     </g>
     <g id="text_24">
      <!-- 2020-07 -->
      <g transform="translate(522.318306 567.044703)rotate(-25)scale(0.1 -0.1)">
       <use xlink:href="#DejaVuSans-50"/>
       <use x="63.623047" xlink:href="#DejaVuSans-48"/>
       <use x="127.246094" xlink:href="#DejaVuSans-50"/>
       <use x="190.869141" xlink:href="#DejaVuSans-48"/>
       <use x="254.492188" xlink:href="#DejaVuSans-45"/>
       <use x="290.576172" xlink:href="#DejaVuSans-48"/>
       <use x="354.199219" xlink:href="#DejaVuSans-55"/>
      </g>
     </g>
    </g>
    <g id="xtick_31">
     <g id="line2d_144">
      <g>
       <use style="stroke:#000000;stroke-width:0.8;" x="634.330772" xlink:href="#m483a9ec2fc" y="535.5"/>
      </g>
     </g>
     <g id="text_25">
      <!-- 2020-10 -->
      <g transform="translate(599.673922 567.044703)rotate(-25)scale(0.1 -0.1)">
       <use xlink:href="#DejaVuSans-50"/>
       <use x="63.623047" xlink:href="#DejaVuSans-48"/>
       <use x="127.246094" xlink:href="#DejaVuSans-50"/>
       <use x="190.869141" xlink:href="#DejaVuSans-48"/>
       <use x="254.492188" xlink:href="#DejaVuSans-45"/>
       <use x="290.576172" xlink:href="#DejaVuSans-49"/>
       <use x="354.199219" xlink:href="#DejaVuSans-48"/>
      </g>
     </g>
    </g>
    <g id="xtick_32">
     <g id="line2d_145">
      <g>
       <use style="stroke:#000000;stroke-width:0.8;" x="711.686389" xlink:href="#m483a9ec2fc" y="535.5"/>
      </g>
     </g>
     <g id="text_26">
      <!-- 2021-01 -->
      <g transform="translate(677.029539 567.044703)rotate(-25)scale(0.1 -0.1)">
       <use xlink:href="#DejaVuSans-50"/>
       <use x="63.623047" xlink:href="#DejaVuSans-48"/>
       <use x="127.246094" xlink:href="#DejaVuSans-50"/>
       <use x="190.869141" xlink:href="#DejaVuSans-49"/>
       <use x="254.492188" xlink:href="#DejaVuSans-45"/>
       <use x="290.576172" xlink:href="#DejaVuSans-48"/>
       <use x="354.199219" xlink:href="#DejaVuSans-49"/>
      </g>
     </g>
    </g>
   </g>
   <g id="matplotlib.axis_8">
    <g id="ytick_16">
     <g id="line2d_146">
      <g>
       <use style="stroke:#000000;stroke-width:0.8;" x="99" xlink:href="#m0703397778" y="535.5"/>
      </g>
     </g>
     <g id="text_27">
      <!-- 0.00 -->
      <g transform="translate(69.734375 539.299219)scale(0.1 -0.1)">
       <use xlink:href="#DejaVuSans-48"/>
       <use x="63.623047" xlink:href="#DejaVuSans-46"/>
       <use x="95.410156" xlink:href="#DejaVuSans-48"/>
       <use x="159.033203" xlink:href="#DejaVuSans-48"/>
      </g>
     </g>
    </g>
    <g id="ytick_17">
     <g id="line2d_147">
      <g>
       <use style="stroke:#000000;stroke-width:0.8;" x="99" xlink:href="#m0703397778" y="510.636677"/>
      </g>
     </g>
     <g id="text_28">
      <!-- 0.25 -->
      <g transform="translate(69.734375 514.435895)scale(0.1 -0.1)">
       <use xlink:href="#DejaVuSans-48"/>
       <use x="63.623047" xlink:href="#DejaVuSans-46"/>
       <use x="95.410156" xlink:href="#DejaVuSans-50"/>
       <use x="159.033203" xlink:href="#DejaVuSans-53"/>
      </g>
     </g>
    </g>
    <g id="ytick_18">
     <g id="line2d_148">
      <g>
       <use style="stroke:#000000;stroke-width:0.8;" x="99" xlink:href="#m0703397778" y="485.773353"/>
      </g>
     </g>
     <g id="text_29">
      <!-- 0.50 -->
      <g transform="translate(69.734375 489.572572)scale(0.1 -0.1)">
       <use xlink:href="#DejaVuSans-48"/>
       <use x="63.623047" xlink:href="#DejaVuSans-46"/>
       <use x="95.410156" xlink:href="#DejaVuSans-53"/>
       <use x="159.033203" xlink:href="#DejaVuSans-48"/>
      </g>
     </g>
    </g>
    <g id="ytick_19">
     <g id="line2d_149">
      <g>
       <use style="stroke:#000000;stroke-width:0.8;" x="99" xlink:href="#m0703397778" y="460.91003"/>
      </g>
     </g>
     <g id="text_30">
      <!-- 0.75 -->
      <g transform="translate(69.734375 464.709249)scale(0.1 -0.1)">
       <use xlink:href="#DejaVuSans-48"/>
       <use x="63.623047" xlink:href="#DejaVuSans-46"/>
       <use x="95.410156" xlink:href="#DejaVuSans-55"/>
       <use x="159.033203" xlink:href="#DejaVuSans-53"/>
      </g>
     </g>
    </g>
    <g id="ytick_20">
     <g id="line2d_150">
      <g>
       <use style="stroke:#000000;stroke-width:0.8;" x="99" xlink:href="#m0703397778" y="436.046707"/>
      </g>
     </g>
     <g id="text_31">
      <!-- 1.00 -->
      <g transform="translate(69.734375 439.845926)scale(0.1 -0.1)">
       <use xlink:href="#DejaVuSans-49"/>
       <use x="63.623047" xlink:href="#DejaVuSans-46"/>
       <use x="95.410156" xlink:href="#DejaVuSans-48"/>
       <use x="159.033203" xlink:href="#DejaVuSans-48"/>
      </g>
     </g>
    </g>
    <g id="text_32">
     <!-- control -->
     <g transform="translate(63.654687 502.715931)rotate(-90)scale(0.1 -0.1)">
      <use xlink:href="#DejaVuSans-99"/>
      <use x="54.980469" xlink:href="#DejaVuSans-111"/>
      <use x="116.162109" xlink:href="#DejaVuSans-110"/>
      <use x="179.541016" xlink:href="#DejaVuSans-116"/>
      <use x="218.75" xlink:href="#DejaVuSans-114"/>
      <use x="259.832031" xlink:href="#DejaVuSans-111"/>
      <use x="321.013672" xlink:href="#DejaVuSans-108"/>
     </g>
    </g>
   </g>
   <g id="line2d_151">
    <path clip-path="url(#pa28b4f58a3)" d="M 99 535.5 
L 100.23006 481.307917 
L 101.46012 466.600862 
L 102.69018 459.166723 
L 103.92024 454.655173 
L 105.150301 451.621054 
L 106.380361 449.43934 
L 107.610421 447.794553 
L 108.840481 446.509984 
L 110.070541 445.478876 
L 111.300601 444.632895 
L 113.760721 443.327149 
L 116.220842 442.366255 
L 118.680962 441.629497 
L 122.371142 440.798577 
L 127.291383 440.011773 
L 133.441683 439.331871 
L 140.822044 438.771266 
L 150.662525 438.266263 
L 164.193186 437.815483 
L 183.874148 437.412128 
L 212.165531 437.075035 
L 256.447695 436.788423 
L 331.481363 436.550499 
L 470.478156 436.362718 
L 712.8 436.238251 
L 712.8 436.238251 
" style="fill:none;stroke:#029386;stroke-linecap:square;stroke-width:1.5;"/>
   </g>
   <g id="line2d_152">
    <path clip-path="url(#pa28b4f58a3)" d="M 99 535.5 
L 128.521443 535.5 
L 129.751503 506.495817 
L 130.981563 459.711401 
L 132.211623 450.550705 
L 133.441683 446.516742 
L 134.671743 444.241051 
L 135.901804 442.778782 
L 137.131864 441.75967 
L 138.361924 441.008676 
L 140.822044 439.975854 
L 143.282164 439.298991 
L 146.972345 438.631211 
L 151.892585 438.075755 
L 158.042886 437.6461 
L 166.653307 437.280382 
L 180.183968 436.954276 
L 202.32505 436.680243 
L 240.456914 436.463504 
L 315.490581 436.295812 
L 488.929058 436.175778 
L 712.8 436.126283 
L 712.8 436.126283 
" style="fill:none;stroke:#0343df;stroke-linecap:square;stroke-width:1.5;"/>
   </g>
   <g id="line2d_153">
    <path clip-path="url(#pa28b4f58a3)" d="M 149.449315 436.046707 
L 154.701892 436.077766 
L 167.228422 436.151798 
L 179.754953 436.225775 
L 192.281484 436.299696 
L 204.808014 436.373563 
L 217.334545 436.447374 
L 228.544265 436.51338 
L 228.544349 436.046707 
L 229.861075 436.054494 
L 242.387606 436.128543 
L 254.914137 436.202537 
L 267.440667 436.276476 
L 279.967198 436.35036 
L 280.480019 436.353383 
L 280.480103 436.046707 
L 292.493729 436.117731 
L 305.020259 436.191733 
L 317.54679 436.26568 
L 321.364393 436.288205 
L 321.364478 436.046707 
L 330.07332 436.098198 
L 342.599851 436.172215 
L 355.126382 436.246176 
L 356.003767 436.251355 
L 356.003851 436.046707 
L 367.652912 436.115576 
L 380.179443 436.18958 
L 386.533149 436.227095 
L 386.533233 436.046707 
L 392.705973 436.083206 
L 405.232504 436.157234 
L 414.107493 436.209649 
L 414.107577 436.046707 
L 417.759035 436.068299 
L 430.285565 436.142338 
L 439.430807 436.196357 
L 439.430891 436.046707 
L 442.812096 436.066701 
L 455.338626 436.140742 
L 462.968166 436.18581 
L 462.96825 436.046707 
L 467.865157 436.075663 
L 480.391688 436.149697 
L 485.045128 436.177185 
L 485.045212 436.046707 
L 492.918218 436.093257 
L 505.444749 436.167278 
L 505.899783 436.169965 
L 505.899867 436.046707 
L 517.97128 436.118072 
L 525.712318 436.16381 
L 525.712402 436.046707 
L 530.49781 436.075004 
L 543.024341 436.149038 
L 544.6229 436.158482 
L 544.622984 436.046707 
L 555.550871 436.111314 
L 562.743051 436.153812 
L 562.743135 436.046707 
L 568.077402 436.078249 
L 580.1632 436.149677 
L 580.163284 436.046707 
L 580.603933 436.049313 
L 593.130463 436.123366 
L 596.957847 436.145981 
L 596.957931 436.046707 
L 605.656994 436.09814 
L 613.189224 436.142653 
L 613.189308 436.046707 
L 618.183524 436.076239 
L 628.909939 436.139636 
L 628.910023 436.046707 
L 630.710055 436.057352 
L 643.236586 436.131399 
L 644.164927 436.136884 
L 644.165011 436.046707 
L 655.763116 436.115275 
L 658.992931 436.134361 
L 658.993015 436.046707 
L 668.289647 436.101672 
L 673.427628 436.132037 
L 673.427712 436.046707 
L 680.816177 436.090393 
L 687.498506 436.129887 
L 687.49859 436.046707 
L 693.342708 436.081263 
L 701.23156 436.127891 
L 701.231644 436.046707 
L 705.869239 436.07413 
" style="fill:none;stroke:#fe420f;stroke-linecap:square;stroke-width:1.5;"/>
   </g>
   <g id="line2d_154">
    <path clip-path="url(#pa28b4f58a3)" d="M 99 535.5 
L 99 436.046707 
" style="fill:none;stroke:#a5a391;stroke-dasharray:9.6,2.4,1.5,2.4;stroke-dashoffset:0;stroke-width:1.5;"/>
   </g>
   <g id="line2d_155">
    <path clip-path="url(#pa28b4f58a3)" d="M 99.681066 535.5 
L 99.681066 491.740551 
" style="fill:none;stroke:#a5a391;stroke-dasharray:9.6,2.4,1.5,2.4;stroke-dashoffset:0;stroke-width:1.5;"/>
   </g>
   <g id="line2d_156">
    <path clip-path="url(#pa28b4f58a3)" d="M 100.471438 535.5 
L 100.471438 471.849892 
" style="fill:none;stroke:#a5a391;stroke-dasharray:9.6,2.4,1.5,2.4;stroke-dashoffset:0;stroke-width:1.5;"/>
   </g>
   <g id="line2d_157">
    <path clip-path="url(#pa28b4f58a3)" d="M 101.539282 535.5 
L 101.539282 451.959234 
" style="fill:none;stroke:#a5a391;stroke-dasharray:9.6,2.4,1.5,2.4;stroke-dashoffset:0;stroke-width:1.5;"/>
   </g>
   <g id="line2d_158">
    <path clip-path="url(#pa28b4f58a3)" d="M 103.035945 535.5 
L 103.035945 452.953767 
" style="fill:none;stroke:#a5a391;stroke-dasharray:9.6,2.4,1.5,2.4;stroke-dashoffset:0;stroke-width:1.5;"/>
   </g>
   <g id="line2d_159">
    <path clip-path="url(#pa28b4f58a3)" d="M 106.004046 535.5 
L 106.004046 446.986569 
" style="fill:none;stroke:#a5a391;stroke-dasharray:9.6,2.4,1.5,2.4;stroke-dashoffset:0;stroke-width:1.5;"/>
   </g>
   <g id="line2d_160">
    <path clip-path="url(#pa28b4f58a3)" d="M 112.453151 535.5 
L 112.453151 437.04124 
" style="fill:none;stroke:#a5a391;stroke-dasharray:9.6,2.4,1.5,2.4;stroke-dashoffset:0;stroke-width:1.5;"/>
   </g>
   <g id="line2d_161">
    <path clip-path="url(#pa28b4f58a3)" d="M 118.338904 535.5 
L 118.338904 437.04124 
" style="fill:none;stroke:#a5a391;stroke-dasharray:9.6,2.4,1.5,2.4;stroke-dashoffset:0;stroke-width:1.5;"/>
   </g>
   <g id="line2d_162">
    <path clip-path="url(#pa28b4f58a3)" d="M 123.383835 535.5 
L 123.383835 445.992036 
" style="fill:none;stroke:#a5a391;stroke-dasharray:9.6,2.4,1.5,2.4;stroke-dashoffset:0;stroke-width:1.5;"/>
   </g>
   <g id="line2d_163">
    <path clip-path="url(#pa28b4f58a3)" d="M 149.449315 535.5 
L 149.449315 437.04124 
" style="fill:none;stroke:#a5a391;stroke-dasharray:9.6,2.4,1.5,2.4;stroke-dashoffset:0;stroke-width:1.5;"/>
   </g>
   <g id="line2d_164">
    <path clip-path="url(#pa28b4f58a3)" d="M 228.544349 535.5 
L 228.544349 436.513381 
" style="fill:none;stroke:#a5a391;stroke-dasharray:9.6,2.4,1.5,2.4;stroke-dashoffset:0;stroke-width:1.5;"/>
   </g>
   <g id="line2d_165">
    <path clip-path="url(#pa28b4f58a3)" d="M 280.480103 535.5 
L 280.480103 436.353384 
" style="fill:none;stroke:#a5a391;stroke-dasharray:9.6,2.4,1.5,2.4;stroke-dashoffset:0;stroke-width:1.5;"/>
   </g>
   <g id="line2d_166">
    <path clip-path="url(#pa28b4f58a3)" d="M 321.364478 535.5 
L 321.364478 436.288205 
" style="fill:none;stroke:#a5a391;stroke-dasharray:9.6,2.4,1.5,2.4;stroke-dashoffset:0;stroke-width:1.5;"/>
   </g>
   <g id="line2d_167">
    <path clip-path="url(#pa28b4f58a3)" d="M 356.003851 535.5 
L 356.003851 436.251355 
" style="fill:none;stroke:#a5a391;stroke-dasharray:9.6,2.4,1.5,2.4;stroke-dashoffset:0;stroke-width:1.5;"/>
   </g>
   <g id="line2d_168">
    <path clip-path="url(#pa28b4f58a3)" d="M 386.533233 535.5 
L 386.533233 436.227095 
" style="fill:none;stroke:#a5a391;stroke-dasharray:9.6,2.4,1.5,2.4;stroke-dashoffset:0;stroke-width:1.5;"/>
   </g>
   <g id="line2d_169">
    <path clip-path="url(#pa28b4f58a3)" d="M 414.107577 535.5 
L 414.107577 436.209649 
" style="fill:none;stroke:#a5a391;stroke-dasharray:9.6,2.4,1.5,2.4;stroke-dashoffset:0;stroke-width:1.5;"/>
   </g>
   <g id="line2d_170">
    <path clip-path="url(#pa28b4f58a3)" d="M 439.430891 535.5 
L 439.430891 436.196358 
" style="fill:none;stroke:#a5a391;stroke-dasharray:9.6,2.4,1.5,2.4;stroke-dashoffset:0;stroke-width:1.5;"/>
   </g>
   <g id="line2d_171">
    <path clip-path="url(#pa28b4f58a3)" d="M 462.96825 535.5 
L 462.96825 436.185811 
" style="fill:none;stroke:#a5a391;stroke-dasharray:9.6,2.4,1.5,2.4;stroke-dashoffset:0;stroke-width:1.5;"/>
   </g>
   <g id="line2d_172">
    <path clip-path="url(#pa28b4f58a3)" d="M 485.045212 535.5 
L 485.045212 436.177185 
" style="fill:none;stroke:#a5a391;stroke-dasharray:9.6,2.4,1.5,2.4;stroke-dashoffset:0;stroke-width:1.5;"/>
   </g>
   <g id="line2d_173">
    <path clip-path="url(#pa28b4f58a3)" d="M 505.899867 535.5 
L 505.899867 436.169966 
" style="fill:none;stroke:#a5a391;stroke-dasharray:9.6,2.4,1.5,2.4;stroke-dashoffset:0;stroke-width:1.5;"/>
   </g>
   <g id="line2d_174">
    <path clip-path="url(#pa28b4f58a3)" d="M 525.712402 535.5 
L 525.712402 436.16381 
" style="fill:none;stroke:#a5a391;stroke-dasharray:9.6,2.4,1.5,2.4;stroke-dashoffset:0;stroke-width:1.5;"/>
   </g>
   <g id="line2d_175">
    <path clip-path="url(#pa28b4f58a3)" d="M 544.622984 535.5 
L 544.622984 436.158482 
" style="fill:none;stroke:#a5a391;stroke-dasharray:9.6,2.4,1.5,2.4;stroke-dashoffset:0;stroke-width:1.5;"/>
   </g>
   <g id="line2d_176">
    <path clip-path="url(#pa28b4f58a3)" d="M 562.743135 535.5 
L 562.743135 436.153813 
" style="fill:none;stroke:#a5a391;stroke-dasharray:9.6,2.4,1.5,2.4;stroke-dashoffset:0;stroke-width:1.5;"/>
   </g>
   <g id="line2d_177">
    <path clip-path="url(#pa28b4f58a3)" d="M 580.163284 535.5 
L 580.163284 436.149677 
" style="fill:none;stroke:#a5a391;stroke-dasharray:9.6,2.4,1.5,2.4;stroke-dashoffset:0;stroke-width:1.5;"/>
   </g>
   <g id="line2d_178">
    <path clip-path="url(#pa28b4f58a3)" d="M 596.957931 535.5 
L 596.957931 436.145982 
" style="fill:none;stroke:#a5a391;stroke-dasharray:9.6,2.4,1.5,2.4;stroke-dashoffset:0;stroke-width:1.5;"/>
   </g>
   <g id="line2d_179">
    <path clip-path="url(#pa28b4f58a3)" d="M 613.189308 535.5 
L 613.189308 436.142654 
" style="fill:none;stroke:#a5a391;stroke-dasharray:9.6,2.4,1.5,2.4;stroke-dashoffset:0;stroke-width:1.5;"/>
   </g>
   <g id="line2d_180">
    <path clip-path="url(#pa28b4f58a3)" d="M 628.910023 535.5 
L 628.910023 436.139637 
" style="fill:none;stroke:#a5a391;stroke-dasharray:9.6,2.4,1.5,2.4;stroke-dashoffset:0;stroke-width:1.5;"/>
   </g>
   <g id="line2d_181">
    <path clip-path="url(#pa28b4f58a3)" d="M 644.165011 535.5 
L 644.165011 436.136885 
" style="fill:none;stroke:#a5a391;stroke-dasharray:9.6,2.4,1.5,2.4;stroke-dashoffset:0;stroke-width:1.5;"/>
   </g>
   <g id="line2d_182">
    <path clip-path="url(#pa28b4f58a3)" d="M 658.993015 535.5 
L 658.993015 436.134362 
" style="fill:none;stroke:#a5a391;stroke-dasharray:9.6,2.4,1.5,2.4;stroke-dashoffset:0;stroke-width:1.5;"/>
   </g>
   <g id="line2d_183">
    <path clip-path="url(#pa28b4f58a3)" d="M 673.427712 535.5 
L 673.427712 436.132038 
" style="fill:none;stroke:#a5a391;stroke-dasharray:9.6,2.4,1.5,2.4;stroke-dashoffset:0;stroke-width:1.5;"/>
   </g>
   <g id="line2d_184">
    <path clip-path="url(#pa28b4f58a3)" d="M 687.49859 535.5 
L 687.49859 436.129888 
" style="fill:none;stroke:#a5a391;stroke-dasharray:9.6,2.4,1.5,2.4;stroke-dashoffset:0;stroke-width:1.5;"/>
   </g>
   <g id="line2d_185">
    <path clip-path="url(#pa28b4f58a3)" d="M 701.231644 535.5 
L 701.231644 436.127892 
" style="fill:none;stroke:#a5a391;stroke-dasharray:9.6,2.4,1.5,2.4;stroke-dashoffset:0;stroke-width:1.5;"/>
   </g>
   <g id="line2d_186">
    <path clip-path="url(#pa28b4f58a3)" d="M 228.544349 535.5 
L 228.544349 436.513381 
" style="fill:none;stroke:#ffa500;stroke-dasharray:9.6,2.4,1.5,2.4;stroke-dashoffset:0;stroke-width:1.5;"/>
   </g>
   <g id="line2d_187">
    <path clip-path="url(#pa28b4f58a3)" d="M 280.480103 535.5 
L 280.480103 436.353384 
" style="fill:none;stroke:#ffa500;stroke-dasharray:9.6,2.4,1.5,2.4;stroke-dashoffset:0;stroke-width:1.5;"/>
   </g>
   <g id="line2d_188">
    <path clip-path="url(#pa28b4f58a3)" d="M 321.364478 535.5 
L 321.364478 436.288205 
" style="fill:none;stroke:#ffa500;stroke-dasharray:9.6,2.4,1.5,2.4;stroke-dashoffset:0;stroke-width:1.5;"/>
   </g>
   <g id="line2d_189">
    <path clip-path="url(#pa28b4f58a3)" d="M 356.003851 535.5 
L 356.003851 436.251355 
" style="fill:none;stroke:#ffa500;stroke-dasharray:9.6,2.4,1.5,2.4;stroke-dashoffset:0;stroke-width:1.5;"/>
   </g>
   <g id="line2d_190">
    <path clip-path="url(#pa28b4f58a3)" d="M 386.533233 535.5 
L 386.533233 436.227095 
" style="fill:none;stroke:#ffa500;stroke-dasharray:9.6,2.4,1.5,2.4;stroke-dashoffset:0;stroke-width:1.5;"/>
   </g>
   <g id="line2d_191">
    <path clip-path="url(#pa28b4f58a3)" d="M 414.107577 535.5 
L 414.107577 436.209649 
" style="fill:none;stroke:#ffa500;stroke-dasharray:9.6,2.4,1.5,2.4;stroke-dashoffset:0;stroke-width:1.5;"/>
   </g>
   <g id="line2d_192">
    <path clip-path="url(#pa28b4f58a3)" d="M 439.430891 535.5 
L 439.430891 436.196358 
" style="fill:none;stroke:#ffa500;stroke-dasharray:9.6,2.4,1.5,2.4;stroke-dashoffset:0;stroke-width:1.5;"/>
   </g>
   <g id="line2d_193">
    <path clip-path="url(#pa28b4f58a3)" d="M 462.96825 535.5 
L 462.96825 436.185811 
" style="fill:none;stroke:#ffa500;stroke-dasharray:9.6,2.4,1.5,2.4;stroke-dashoffset:0;stroke-width:1.5;"/>
   </g>
   <g id="line2d_194">
    <path clip-path="url(#pa28b4f58a3)" d="M 485.045212 535.5 
L 485.045212 436.177185 
" style="fill:none;stroke:#ffa500;stroke-dasharray:9.6,2.4,1.5,2.4;stroke-dashoffset:0;stroke-width:1.5;"/>
   </g>
   <g id="line2d_195">
    <path clip-path="url(#pa28b4f58a3)" d="M 505.899867 535.5 
L 505.899867 436.169966 
" style="fill:none;stroke:#ffa500;stroke-dasharray:9.6,2.4,1.5,2.4;stroke-dashoffset:0;stroke-width:1.5;"/>
   </g>
   <g id="line2d_196">
    <path clip-path="url(#pa28b4f58a3)" d="M 525.712402 535.5 
L 525.712402 436.16381 
" style="fill:none;stroke:#ffa500;stroke-dasharray:9.6,2.4,1.5,2.4;stroke-dashoffset:0;stroke-width:1.5;"/>
   </g>
   <g id="line2d_197">
    <path clip-path="url(#pa28b4f58a3)" d="M 544.622984 535.5 
L 544.622984 436.158482 
" style="fill:none;stroke:#ffa500;stroke-dasharray:9.6,2.4,1.5,2.4;stroke-dashoffset:0;stroke-width:1.5;"/>
   </g>
   <g id="line2d_198">
    <path clip-path="url(#pa28b4f58a3)" d="M 562.743135 535.5 
L 562.743135 436.153813 
" style="fill:none;stroke:#ffa500;stroke-dasharray:9.6,2.4,1.5,2.4;stroke-dashoffset:0;stroke-width:1.5;"/>
   </g>
   <g id="line2d_199">
    <path clip-path="url(#pa28b4f58a3)" d="M 580.163284 535.5 
L 580.163284 436.149677 
" style="fill:none;stroke:#ffa500;stroke-dasharray:9.6,2.4,1.5,2.4;stroke-dashoffset:0;stroke-width:1.5;"/>
   </g>
   <g id="line2d_200">
    <path clip-path="url(#pa28b4f58a3)" d="M 596.957931 535.5 
L 596.957931 436.145982 
" style="fill:none;stroke:#ffa500;stroke-dasharray:9.6,2.4,1.5,2.4;stroke-dashoffset:0;stroke-width:1.5;"/>
   </g>
   <g id="line2d_201">
    <path clip-path="url(#pa28b4f58a3)" d="M 613.189308 535.5 
L 613.189308 436.142654 
" style="fill:none;stroke:#ffa500;stroke-dasharray:9.6,2.4,1.5,2.4;stroke-dashoffset:0;stroke-width:1.5;"/>
   </g>
   <g id="line2d_202">
    <path clip-path="url(#pa28b4f58a3)" d="M 628.910023 535.5 
L 628.910023 436.139637 
" style="fill:none;stroke:#ffa500;stroke-dasharray:9.6,2.4,1.5,2.4;stroke-dashoffset:0;stroke-width:1.5;"/>
   </g>
   <g id="line2d_203">
    <path clip-path="url(#pa28b4f58a3)" d="M 644.165011 535.5 
L 644.165011 436.136885 
" style="fill:none;stroke:#ffa500;stroke-dasharray:9.6,2.4,1.5,2.4;stroke-dashoffset:0;stroke-width:1.5;"/>
   </g>
   <g id="line2d_204">
    <path clip-path="url(#pa28b4f58a3)" d="M 658.993015 535.5 
L 658.993015 436.134362 
" style="fill:none;stroke:#ffa500;stroke-dasharray:9.6,2.4,1.5,2.4;stroke-dashoffset:0;stroke-width:1.5;"/>
   </g>
   <g id="line2d_205">
    <path clip-path="url(#pa28b4f58a3)" d="M 673.427712 535.5 
L 673.427712 436.132038 
" style="fill:none;stroke:#ffa500;stroke-dasharray:9.6,2.4,1.5,2.4;stroke-dashoffset:0;stroke-width:1.5;"/>
   </g>
   <g id="line2d_206">
    <path clip-path="url(#pa28b4f58a3)" d="M 687.49859 535.5 
L 687.49859 436.129888 
" style="fill:none;stroke:#ffa500;stroke-dasharray:9.6,2.4,1.5,2.4;stroke-dashoffset:0;stroke-width:1.5;"/>
   </g>
   <g id="line2d_207">
    <path clip-path="url(#pa28b4f58a3)" d="M 701.231644 535.5 
L 701.231644 436.127892 
" style="fill:none;stroke:#ffa500;stroke-dasharray:9.6,2.4,1.5,2.4;stroke-dashoffset:0;stroke-width:1.5;"/>
   </g>
   <g id="patch_18">
    <path d="M 99 535.5 
L 99 435.052174 
" style="fill:none;stroke:#000000;stroke-linecap:square;stroke-linejoin:miter;stroke-width:0.8;"/>
   </g>
   <g id="patch_19">
    <path d="M 712.8 535.5 
L 712.8 435.052174 
" style="fill:none;stroke:#000000;stroke-linecap:square;stroke-linejoin:miter;stroke-width:0.8;"/>
   </g>
   <g id="patch_20">
    <path d="M 99 535.5 
L 712.8 535.5 
" style="fill:none;stroke:#000000;stroke-linecap:square;stroke-linejoin:miter;stroke-width:0.8;"/>
   </g>
   <g id="patch_21">
    <path d="M 99 435.052174 
L 712.8 435.052174 
" style="fill:none;stroke:#000000;stroke-linecap:square;stroke-linejoin:miter;stroke-width:0.8;"/>
   </g>
  </g>
 </g>
 <defs>
  <clipPath id="p0383d38d0e">
   <rect height="100.447826" width="613.8" x="99" y="73.44"/>
  </clipPath>
  <clipPath id="p62d3ad288c">
   <rect height="100.447826" width="613.8" x="99" y="193.977391"/>
  </clipPath>
  <clipPath id="pc58de05905">
   <rect height="100.447826" width="613.8" x="99" y="314.514783"/>
  </clipPath>
  <clipPath id="pa28b4f58a3">
   <rect height="100.447826" width="613.8" x="99" y="435.052174"/>
  </clipPath>
 </defs>
</svg>
