<?xml version="1.0" encoding="UTF-8" standalone="no"?>
<!-- Created with Inkscape (http://www.inkscape.org/) -->

<svg
   xmlns:dc="http://purl.org/dc/elements/1.1/"
   xmlns:cc="http://creativecommons.org/ns#"
   xmlns:rdf="http://www.w3.org/1999/02/22-rdf-syntax-ns#"
   xmlns:svg="http://www.w3.org/2000/svg"
   xmlns="http://www.w3.org/2000/svg"
   xmlns:sodipodi="http://sodipodi.sourceforge.net/DTD/sodipodi-0.dtd"
   xmlns:inkscape="http://www.inkscape.org/namespaces/inkscape"
   width="104.71604mm"
   height="21.378134mm"
   viewBox="0 0 104.71604 21.378134"
   version="1.1"
   id="svg8"
   inkscape:version="0.92.3 (2405546, 2018-03-11)"
   sodipodi:docname="spaced_2.svg">
  <defs
     id="defs2" />
  <sodipodi:namedview
     id="base"
     pagecolor="#ffffff"
     bordercolor="#666666"
     borderopacity="1.0"
     inkscape:pageopacity="0.0"
     inkscape:pageshadow="2"
     inkscape:zoom="1.979899"
     inkscape:cx="114.70181"
     inkscape:cy="-61.015455"
     inkscape:document-units="mm"
     inkscape:current-layer="layer1"
     showgrid="false"
     fit-margin-top="0"
     fit-margin-left="0"
     fit-margin-right="0"
     fit-margin-bottom="0"
     inkscape:snap-text-baseline="false"
     showguides="false" />
  <metadata
     id="metadata5">
    <rdf:RDF>
      <cc:Work
         rdf:about="">
        <dc:format>image/svg+xml</dc:format>
        <dc:type
           rdf:resource="http://purl.org/dc/dcmitype/StillImage" />
        <dc:title></dc:title>
      </cc:Work>
    </rdf:RDF>
  </metadata>
  <g
     inkscape:label="Layer 1"
     inkscape:groupmode="layer"
     id="layer1"
     transform="translate(-8.3469353,-5.2008158)">
    <g
       id="g4529"
       transform="matrix(0.44888467,0,0,0.44888467,0.94094198,0.65986346)"
       style="stroke-width:2.22774386">
      <path
         style="fill:#f5a35e;stroke-width:2.22774386"
         d="m 38.459074,57.476495 c 0,-0.172138 -3.836458,-0.264584 -10.980208,-0.264584 H 16.498657 V 33.663995 10.116078 h 26.590626 26.590626 v 5.389573 5.389573 l -1.124479,0.289872 c -0.618464,0.159429 -2.434167,0.479143 -4.034896,0.710473 -2.915807,0.421381 -8.382924,1.374568 -9.128126,1.591481 -0.311441,0.09066 -0.396875,0.586193 -0.396875,2.301963 0,1.767113 -0.07612,2.18644 -0.396875,2.18644 -0.311991,0 -0.413403,-0.438569 -0.474149,-2.050521 -0.05239,-1.39007 -0.180813,-2.050521 -0.39873,-2.050521 -0.455451,0 -7.076487,1.716972 -9.445871,2.44951 -1.614803,0.499246 -2.000121,0.722487 -2.068923,1.198665 -0.09044,0.625934 -0.724048,0.803365 -0.908569,0.254429 -0.0878,-0.261198 -0.328839,-0.254162 -1.146528,0.03347 -1.985421,0.698389 -6.409118,2.884988 -8.263515,4.084591 -1.7619,1.139767 -1.872673,1.26968 -1.950133,2.287085 -0.08527,1.119966 -0.542699,1.545212 -0.703118,0.653647 -0.178565,-0.992412 -0.480769,-0.886604 -2.356002,0.824886 -3.722841,3.397765 -6.983706,8.703835 -8.366362,13.613721 -0.762278,2.706886 -1.129993,5.132557 -0.756863,4.99272 0.143716,-0.05386 1.017632,-1.109959 1.942034,-2.346886 1.557198,-2.08366 6.19123,-6.959997 8.504541,-8.949227 0.983776,-0.845958 0.992187,-0.870143 0.992187,-2.853196 0,-1.481804 0.08569,-1.971741 0.33073,-1.89091 0.199335,0.06575 0.362253,0.705207 0.410078,1.609547 0.04364,0.825249 0.141398,1.500452 0.217234,1.500452 0.07584,0 1.290286,-0.758057 2.698776,-1.684573 1.40849,-0.926515 3.809655,-2.325499 5.335921,-3.108854 1.526267,-0.783354 2.863896,-1.543344 2.972511,-1.688864 0.108615,-0.145521 0.199304,-1.068256 0.201533,-2.050521 0.0032,-1.409311 0.08775,-1.785938 0.400926,-1.785938 0.307421,0 0.396875,0.347878 0.396875,1.543403 0,0.848872 0.06794,1.611344 0.150981,1.694384 0.08304,0.08304 1.29451,-0.314306 2.692155,-0.882989 1.397646,-0.568683 4.023998,-1.525965 5.836338,-2.127293 2.431032,-0.806608 3.328983,-1.222644 3.424122,-1.586456 0.146774,-0.561276 0.364421,-0.619284 0.776695,-0.207008 0.20511,0.205109 1.812041,-0.09306 5.675312,-1.053083 2.964056,-0.736564 5.892957,-1.415959 6.508674,-1.509767 1.369219,-0.208607 1.598842,-0.464297 1.706597,-1.900322 0.148987,-1.98554 0.609478,-1.361255 0.690348,0.935902 0.05938,1.686629 -0.0038,2.182813 -0.277813,2.182813 -0.195061,0 -0.471143,-0.116485 -0.613513,-0.258855 -0.267726,-0.267726 -5.592471,0.838298 -10.893333,2.262698 l -2.711979,0.728739 v 2.224984 c 0,1.976302 -0.05175,2.21511 -0.463021,2.136632 -0.381209,-0.07274 -0.476755,-0.426789 -0.540758,-2.003775 -0.04275,-1.053483 -0.178348,-1.915423 -0.301318,-1.915423 -0.394219,0 -6.423568,2.130068 -8.74907,3.0909 -10.051463,4.152981 -17.440699,9.372284 -23.343295,16.488266 -1.771999,2.136265 -3.915919,5.330661 -3.753766,5.593033 0.07743,0.125291 2.561806,0.227801 5.520826,0.227801 6.115241,0 5.701234,0.17449 5.701234,-2.402891 0,-1.194548 0.09136,-1.565859 0.385284,-1.565859 0.294746,0 0.403551,0.450762 0.463021,1.918229 l 0.07774,1.918229 5.404865,0.07177 c 4.14721,0.05507 5.45454,-0.0065 5.618345,-0.264584 0.117413,-0.184996 0.215302,-1.080497 0.217531,-1.990003 0.0031,-1.269552 0.09354,-1.653645 0.389335,-1.653645 0.294746,0 0.403551,0.450762 0.463021,1.918229 l 0.07774,1.918229 h 5.820834 5.820833 l 0.132292,-1.852083 c 0.100793,-1.411111 0.226785,-1.852084 0.529166,-1.852084 0.302382,0 0.428374,0.440973 0.529167,1.852084 l 0.132292,1.852083 6.596047,0.07087 c 5.100513,0.0548 6.644325,-0.0052 6.80897,-0.264583 0.117107,-0.184499 0.214746,-1.079595 0.216974,-1.989101 0.0032,-1.291716 0.09091,-1.653645 0.400926,-1.653645 0.321651,0 0.396875,0.426273 0.396875,2.248958 v 2.248958 h -1.433161 c -0.898964,0 -1.482902,0.123275 -1.566611,0.33073 -0.106762,0.264583 -0.137628,0.264583 -0.154339,0 -0.02684,-0.424892 -27.537557,-0.490975 -27.537557,-0.06615 0,0.145521 -0.119062,0.264583 -0.264583,0.264583 -0.145521,0 -0.264584,-0.119062 -0.264584,-0.264583 z M 18.089361,47.290036 c 1.438595,-4.589859 5.132148,-9.899626 9.307353,-13.380029 L 28.902062,32.655165 25.44623,26.743434 C 18.790915,15.358497 17.513083,13.246791 17.367349,13.392525 c -0.115236,0.115236 -0.182404,24.432244 -0.09286,33.619699 0.01911,1.960467 0.261574,2.043128 0.814875,0.277812 z M 31.54089,30.910501 c 1.348197,-0.85108 5.884391,-3.094636 7.780294,-3.848056 l 1.523568,-0.605456 -0.928518,-1.027758 c -0.510685,-0.565267 -2.830903,-3.587128 -5.15604,-6.715247 -2.325137,-3.128119 -4.349081,-5.687489 -4.497654,-5.687489 -0.178642,0 -0.270132,3.136377 -0.270132,9.260416 0,6.117514 0.09158,9.260417 0.269841,9.260417 0.148412,0 0.723801,-0.286572 1.278641,-0.636827 z M 28.934074,20.56712 v -9.657292 h -5.688542 c -3.128698,0 -5.688542,0.09944 -5.688542,0.220978 0,0.188502 9.638925,16.788914 10.740917,18.498293 0.211081,0.327422 0.440569,0.595312 0.509975,0.595312 0.06941,0 0.126192,-4.345781 0.126192,-9.657291 z m 15.776327,4.600586 c 0.995032,-0.307334 3.292618,-0.941458 5.105749,-1.409164 1.813132,-0.467707 3.321559,-0.960392 3.352057,-1.094857 0.0828,-0.365068 -10.474056,-10.198664 -10.759434,-10.022291 -0.14015,0.08662 -0.245532,2.927217 -0.245532,6.618424 0,5.354697 0.06345,6.466677 0.369005,6.466677 0.202953,0 1.183123,-0.251456 2.178155,-0.558789 z m -3.605493,-7.24642 v -7.011458 h -5.291667 c -3.457359,0 -5.291667,0.09456 -5.291667,0.272777 0,0.371032 10.081395,13.75014 10.360974,13.75014 0.122298,0 0.22236,-3.155157 0.22236,-7.011459 z m 20.569323,3.42209 c 3.166195,-0.528937 5.791118,-0.994063 5.83316,-1.033615 0.04204,-0.03955 -0.850926,-0.642137 -1.984375,-1.339078 -1.133448,-0.696942 -3.75072,-2.439711 -5.816161,-3.872821 -2.065438,-1.43311 -3.940672,-2.676772 -4.167187,-2.763693 -0.364152,-0.139739 -0.411843,0.445962 -0.411843,5.057951 0,4.515806 0.053,5.19565 0.394843,5.064474 0.217165,-0.08333 2.985368,-0.584282 6.151563,-1.113218 z m -7.604739,-5.141881 v -5.291667 h -5.71059 c -3.140826,0 -5.670904,0.09337 -5.622397,0.207488 0.165446,0.38923 10.833215,10.375845 11.083546,10.375845 0.147883,0 0.249441,-2.154446 0.249441,-5.291666 z m 14.552084,-0.926042 v -4.365625 h -6.350001 c -3.4925,0 -6.348955,0.0893 -6.347679,0.198438 0.0043,0.368618 12.085016,8.532812 12.626157,8.532812 0.03934,0 0.07152,-1.964531 0.07152,-4.365625 z M 29.322737,51.377791 c -0.251412,-0.406792 0.09296,-0.669256 0.432551,-0.329666 0.190018,0.190019 0.194584,0.338011 0.01387,0.449696 -0.148145,0.09156 -0.349036,0.03755 -0.446423,-0.12003 z m 12.170834,0 c -0.251412,-0.406792 0.09296,-0.669256 0.43255,-0.329666 0.190019,0.190019 0.194584,0.338011 0.01387,0.449696 -0.148146,0.09156 -0.349036,0.03755 -0.446423,-0.12003 z m 12.840504,-0.119005 c 0,-0.218281 0.119063,-0.396875 0.264583,-0.396875 0.145521,0 0.264584,0.178594 0.264584,0.396875 0,0.218282 -0.119063,0.396875 -0.264584,0.396875 -0.14552,0 -0.264583,-0.178593 -0.264583,-0.396875 z m 14.728474,0.220486 c -0.30444,-0.304438 -0.19268,-0.617361 0.220485,-0.617361 0.218281,0 0.396875,0.178594 0.396875,0.396875 0,0.413166 -0.312923,0.524926 -0.61736,0.220486 z M 29.254103,47.620766 c 0.09872,-2.804068 0.580453,-2.758642 0.682859,0.06439 0.06483,1.787233 0.01145,2.118423 -0.34143,2.118423 -0.353721,0 -0.406415,-0.336881 -0.341429,-2.182812 z m 12.170834,0 c 0.09872,-2.804068 0.580453,-2.758642 0.682859,0.06439 0.06483,1.787233 0.01145,2.118423 -0.34143,2.118423 -0.353721,0 -0.406416,-0.336881 -0.341429,-2.182812 z m 12.763366,1.846217 c -0.08033,-0.20933 -0.110154,-1.14077 -0.06628,-2.069864 0.06502,-1.376924 0.167506,-1.705986 0.554305,-1.779691 0.428498,-0.08165 0.467003,0.108556 0.396875,1.960486 -0.051,1.346684 -0.19118,2.088464 -0.408255,2.160285 -0.181824,0.06016 -0.396314,-0.06189 -0.476641,-0.271216 z m 14.753302,-1.824921 c 0.05107,-1.436431 0.187791,-2.198246 0.407575,-2.271006 0.247398,-0.08191 0.330729,0.462703 0.330729,2.161516 0,1.868781 -0.07219,2.271006 -0.407575,2.271006 -0.340056,0 -0.394845,-0.358079 -0.330729,-2.161516 z M 29.367853,44.32833 c -0.297969,-0.297971 -0.181475,-0.610169 0.227679,-0.610169 0.218282,0 0.396876,0.112035 0.396876,0.248968 0,0.333634 -0.413171,0.572585 -0.624555,0.361201 z m 12.170834,0 c -0.29797,-0.297971 -0.181475,-0.610169 0.227679,-0.610169 0.218282,0 0.396875,0.112035 0.396875,0.248968 0,0.333634 -0.41317,0.572585 -0.624554,0.361201 z m 27.523862,0.0072 c -0.30444,-0.304443 -0.19268,-0.617366 0.220485,-0.617366 0.218281,0 0.396875,0.178594 0.396875,0.396875 0,0.413166 -0.312923,0.524926 -0.61736,0.220486 z M 54.334075,43.982745 c 0,-0.145521 0.119063,-0.264584 0.264583,-0.264584 0.145521,0 0.264584,0.119063 0.264584,0.264584 0,0.145521 -0.119063,0.264583 -0.264584,0.264583 -0.14552,0 -0.264583,-0.119062 -0.264583,-0.264583 z M 41.369491,40.41087 c 0,-1.716852 0.08311,-2.265355 0.330729,-2.182813 0.227054,0.07568 0.33073,0.759942 0.33073,2.182813 0,1.422871 -0.103676,2.107128 -0.33073,2.182812 -0.247622,0.08254 -0.330729,-0.46596 -0.330729,-2.182812 z m 12.819434,1.91398 c -0.07999,-0.208439 -0.109816,-1.200605 -0.06629,-2.204813 0.06118,-1.411399 0.16923,-1.825834 0.476019,-1.825834 0.319358,0 0.396875,0.409125 0.396875,2.094619 0,1.440037 -0.103311,2.129054 -0.330589,2.204813 -0.181824,0.06061 -0.396033,-0.06034 -0.476019,-0.268785 z m 14.697234,-1.91398 c 0,-1.822686 0.07522,-2.248959 0.396875,-2.248959 0.321651,0 0.396875,0.426273 0.396875,2.248959 0,1.822685 -0.07522,2.248958 -0.396875,2.248958 -0.321651,0 -0.396875,-0.426273 -0.396875,-2.248958 z m -39.63679,-3.591719 c 0.05214,-0.156435 0.207919,-0.284427 0.346163,-0.284427 0.138245,0 0.294019,0.127992 0.346164,0.284427 0.05214,0.156435 -0.103629,0.284427 -0.346164,0.284427 -0.242534,0 -0.398308,-0.127992 -0.346163,-0.284427 z m 12.170834,0 c 0.05214,-0.156435 0.207918,-0.284427 0.346163,-0.284427 0.138245,0 0.294019,0.127992 0.346163,0.284427 0.05215,0.156435 -0.103628,0.284427 -0.346163,0.284427 -0.242535,0 -0.398308,-0.127992 -0.346163,-0.284427 z m 12.913872,0.01984 c 0,-0.145521 0.119063,-0.264584 0.264583,-0.264584 0.145521,0 0.264584,0.119063 0.264584,0.264584 0,0.14552 -0.119063,0.264583 -0.264584,0.264583 -0.14552,0 -0.264583,-0.119063 -0.264583,-0.264583 z m 14.612719,-0.04961 c 0.163531,-0.490596 0.733115,-0.571965 0.733115,-0.10473 0,0.230407 -0.188516,0.418923 -0.418923,0.418923 -0.23041,0 -0.371795,-0.141385 -0.314192,-0.314193 z m 0.115755,-1.449696 c -0.09701,-0.09701 -0.17639,-1.109045 -0.17639,-2.248958 0,-1.665895 0.07787,-2.07257 0.396875,-2.07257 0.321651,0 0.396875,0.426273 0.396875,2.248959 0,2.064206 -0.143608,2.546321 -0.61736,2.072569 z M 41.409179,29.70847 c 0.05821,-0.174625 0.192153,-0.30857 0.297656,-0.297656 0.316363,0.03273 0.255094,0.395628 -0.08599,0.509322 -0.174625,0.05821 -0.269875,-0.03704 -0.211666,-0.211666 z m 27.537615,-0.06284 c 0.163531,-0.490596 0.733115,-0.571965 0.733115,-0.104731 0,0.230408 -0.188516,0.418924 -0.418923,0.418924 -0.23041,0 -0.371795,-0.141387 -0.314192,-0.314193 z m 0.115755,-7.005946 c -0.30444,-0.304438 -0.19268,-0.617361 0.220485,-0.617361 0.218281,0 0.396875,0.178594 0.396875,0.396875 0,0.413166 -0.312923,0.524925 -0.61736,0.220486 z"
         id="path4533"
         inkscape:connector-curvature="0" />
      <path
         style="fill:#61a6c6;stroke-width:2.22774386"
         d="m 41.134149,57.476495 c 0,-0.165405 -1.786717,-0.264584 -4.766527,-0.264584 -3.102104,0 -4.702472,-0.09239 -4.583087,-0.264583 0.112585,-0.162385 2.520155,-0.264583 6.233076,-0.264583 3.712922,0 6.120491,0.102198 6.233077,0.264583 0.112047,0.16161 -0.343199,0.264583 -1.169736,0.264583 -0.744247,0 -1.353176,0.119063 -1.353176,0.264584 0,0.145521 -0.133565,0.264583 -0.296813,0.264583 -0.163247,0 -0.296814,-0.119062 -0.296814,-0.264583 z m 31.48563,0.06615 c -0.01798,-0.253958 -1.543289,-0.33073 -6.570841,-0.33073 -4.289355,0 -6.484142,-0.09125 -6.363966,-0.264583 0.114499,-0.165145 3.014845,-0.264583 7.717143,-0.264583 4.702298,0 7.602644,0.09944 7.717142,0.264583 0.110543,0.159443 -0.285487,0.264583 -0.996594,0.264583 -0.666307,0 -1.245212,0.143984 -1.329744,0.33073 -0.119767,0.264583 -0.154393,0.264583 -0.17314,0 z M 16.498657,33.663995 V 10.116078 H 46.32838 c 18.390571,0 29.829723,0.09525 29.829723,0.248372 0,0.136604 -0.567655,0.316948 -1.261455,0.400765 -0.693802,0.08382 -14.020372,0.120878 -29.614598,0.08236 l -28.353142,-0.07004 0.181902,1.455209 c 0.100044,0.800364 0.191255,9.292417 0.202686,18.871228 0.01143,9.578812 0.105204,17.491266 0.208372,17.583238 0.103173,0.09197 0.259585,-0.07821 0.347582,-0.378172 0.463813,-1.581033 2.280374,-5.087614 3.698677,-7.139702 1.086311,-1.571744 2.686137,-3.297438 4.925871,-5.313422 3.26497,-2.938797 4.25169,-3.508896 4.25169,-2.456504 0,0.291042 -0.105428,0.529167 -0.234295,0.529167 -0.546104,0 -4.628535,3.626591 -6.27496,5.574303 -3.116498,3.686802 -5.762451,9.243702 -6.400174,13.441333 -0.137448,0.904711 -0.109377,1.385271 0.07727,1.322917 0.161222,-0.05386 1.119,-1.077966 2.128393,-2.27579 3.716633,-4.410446 9.844565,-9.677654 10.957315,-9.418262 0.445163,0.103772 0.612163,-0.01132 0.686747,-0.473347 0.116239,-0.720045 3.553944,-2.883467 8.112504,-5.105369 3.897347,-1.899618 4.458143,-2.082396 4.907689,-1.599544 0.291414,0.313004 0.109826,0.47217 -1.039842,0.911465 -1.919329,0.733384 -7.32298,3.526892 -9.655704,4.991675 -4.245365,2.665789 -8.39881,6.077572 -11.642978,9.563952 -1.987852,2.136265 -4.392931,5.330661 -4.211025,5.593033 0.08686,0.125291 2.880276,0.227801 6.207576,0.227801 3.712921,0 6.120491,0.102198 6.233076,0.264583 0.120352,0.173588 -2.272485,0.264583 -6.957592,0.264583 h -7.141033 z m 28.939284,23.283333 c 0.11325,-0.163346 2.668561,-0.264583 6.678296,-0.264583 4.009735,0 6.565044,0.101237 6.678296,0.264583 0.120275,0.173474 -2.179387,0.264583 -6.678296,0.264583 -4.49891,0 -6.798569,-0.09111 -6.678296,-0.264583 z M 45.289534,35.00775 c 0,-0.405947 0.762192,-0.773547 3.784368,-1.825169 5.301009,-1.844587 9.350814,-3.021956 14.650918,-4.259352 9.189252,-2.145383 12.480159,-2.603521 11.328717,-1.577107 -0.154622,0.137831 -2.340144,0.664247 -4.856716,1.169812 -8.27342,1.662084 -16.740722,3.979408 -22.336472,6.113027 -1.279633,0.487914 -2.381553,0.887117 -2.44871,0.887117 -0.06716,0 -0.122105,-0.228747 -0.122105,-0.508328 z M 31.636129,32.360235 c 0,-0.580098 1.890888,-1.673266 6.084669,-3.517691 3.602447,-1.584357 5.985995,-2.407892 6.364923,-2.199131 0.540954,0.298025 0.343897,0.673422 -0.502863,0.957961 -2.696139,0.90599 -6.727694,2.632316 -9.003632,3.855388 -1.446644,0.777416 -2.70065,1.413483 -2.786679,1.413483 -0.08603,0 -0.156418,-0.229505 -0.156418,-0.51001 z m 13.710496,-5.915591 c 0.103701,-0.632248 0.821964,-0.859547 8.199305,-2.594727 3.587314,-0.843751 4.635957,-1.002912 4.97162,-0.754585 0.57848,0.427964 0.535164,0.779079 -0.09612,0.779079 -0.668663,0 -7.827515,1.636479 -10.848711,2.479963 -2.317115,0.646913 -2.317405,0.646924 -2.2261,0.09027 z m 14.189941,-3.204552 c 0,-0.673349 0.812381,-0.87816 7.382334,-1.861178 7.095067,-1.061587 7.543374,-1.093467 8.029793,-0.571011 0.403476,0.433371 0.387728,0.437098 -4.578446,1.083379 -3.470936,0.451696 -9.448842,1.389003 -10.314257,1.617226 -0.335548,0.08849 -0.519424,-0.0065 -0.519424,-0.268416 z"
         id="path4531"
         inkscape:connector-curvature="0" />
    </g>
    <text
       xml:space="preserve"
       style="font-style:normal;font-variant:normal;font-weight:normal;font-stretch:normal;font-size:20.21820068px;line-height:125%;font-family:'Courier New';-inkscape-font-specification:'Courier New, Normal';font-variant-ligatures:normal;font-variant-caps:normal;font-variant-numeric:normal;font-feature-settings:normal;text-align:start;letter-spacing:0px;word-spacing:0px;writing-mode:lr-tb;text-anchor:start;fill:#000000;fill-opacity:1;stroke:none;stroke-width:0.26458332px;stroke-linecap:butt;stroke-linejoin:miter;stroke-opacity:1"
       x="34.722919"
       y="22.768293"
       id="text4541"><tspan
         sodipodi:role="line"
         id="tspan4539"
         x="34.722919"
         y="22.768293"
         style="font-style:normal;font-variant:normal;font-weight:normal;font-stretch:normal;font-size:20.21820068px;font-family:'Courier New';-inkscape-font-specification:'Courier New, Normal';font-variant-ligatures:normal;font-variant-caps:normal;font-variant-numeric:normal;font-feature-settings:normal;text-align:start;writing-mode:lr-tb;text-anchor:start;stroke-width:0.26458332px">S</tspan></text>
    <text
       xml:space="preserve"
       style="font-style:normal;font-variant:normal;font-weight:normal;font-stretch:normal;font-size:20.21820068px;line-height:125%;font-family:'Courier New';-inkscape-font-specification:'Courier New, Normal';font-variant-ligatures:normal;font-variant-caps:normal;font-variant-numeric:normal;font-feature-settings:normal;text-align:start;letter-spacing:0px;word-spacing:0px;writing-mode:lr-tb;text-anchor:start;fill:#000000;fill-opacity:1;stroke:none;stroke-width:0.26458332px;stroke-linecap:butt;stroke-linejoin:miter;stroke-opacity:1"
       x="45.149334"
       y="22.768293"
       id="text4541-6"><tspan
         sodipodi:role="line"
         id="tspan4539-3"
         x="45.149334"
         y="22.768293"
         style="font-style:normal;font-variant:normal;font-weight:normal;font-stretch:normal;font-size:20.21820068px;font-family:'Courier New';-inkscape-font-specification:'Courier New, Normal';font-variant-ligatures:normal;font-variant-caps:normal;font-variant-numeric:normal;font-feature-settings:normal;text-align:start;writing-mode:lr-tb;text-anchor:start;stroke-width:0.26458332px">p</tspan></text>
    <text
       xml:space="preserve"
       style="font-style:normal;font-variant:normal;font-weight:normal;font-stretch:normal;font-size:20.21820068px;line-height:125%;font-family:'Courier New';-inkscape-font-specification:'Courier New, Normal';font-variant-ligatures:normal;font-variant-caps:normal;font-variant-numeric:normal;font-feature-settings:normal;text-align:start;letter-spacing:0px;word-spacing:0px;writing-mode:lr-tb;text-anchor:start;fill:#000000;fill-opacity:1;stroke:none;stroke-width:0.26458332px;stroke-linecap:butt;stroke-linejoin:miter;stroke-opacity:1"
       x="55.948635"
       y="22.768293"
       id="text4541-6-8"
       inkscape:transform-center-x="-8.1517206"
       inkscape:transform-center-y="0.80180912"><tspan
         sodipodi:role="line"
         id="tspan4539-3-2"
         x="55.948635"
         y="22.768293"
         style="font-style:normal;font-variant:normal;font-weight:normal;font-stretch:normal;font-size:20.21820068px;font-family:'Courier New';-inkscape-font-specification:'Courier New, Normal';font-variant-ligatures:normal;font-variant-caps:normal;font-variant-numeric:normal;font-feature-settings:normal;text-align:start;writing-mode:lr-tb;text-anchor:start;stroke-width:0.26458332px">a</tspan></text>
    <text
       xml:space="preserve"
       style="font-style:normal;font-variant:normal;font-weight:normal;font-stretch:normal;font-size:20.21820068px;line-height:125%;font-family:'Courier New';-inkscape-font-specification:'Courier New, Normal';font-variant-ligatures:normal;font-variant-caps:normal;font-variant-numeric:normal;font-feature-settings:normal;text-align:start;letter-spacing:0px;word-spacing:0px;writing-mode:lr-tb;text-anchor:start;fill:#000000;fill-opacity:1;stroke:none;stroke-width:0.26458332px;stroke-linecap:butt;stroke-linejoin:miter;stroke-opacity:1"
       x="68.132889"
       y="22.768293"
       id="text4541-6-8-8"
       inkscape:transform-center-x="-8.1517206"
       inkscape:transform-center-y="0.80180912"><tspan
         sodipodi:role="line"
         id="tspan4539-3-2-6"
         x="68.132889"
         y="22.768293"
         style="font-style:normal;font-variant:normal;font-weight:normal;font-stretch:normal;font-size:20.21820068px;font-family:'Courier New';-inkscape-font-specification:'Courier New, Normal';font-variant-ligatures:normal;font-variant-caps:normal;font-variant-numeric:normal;font-feature-settings:normal;text-align:start;writing-mode:lr-tb;text-anchor:start;stroke-width:0.26458332px">c</tspan></text>
    <text
       xml:space="preserve"
       style="font-style:normal;font-variant:normal;font-weight:normal;font-stretch:normal;font-size:20.21820068px;line-height:125%;font-family:'Courier New';-inkscape-font-specification:'Courier New, Normal';font-variant-ligatures:normal;font-variant-caps:normal;font-variant-numeric:normal;font-feature-settings:normal;text-align:start;letter-spacing:0px;word-spacing:0px;writing-mode:lr-tb;text-anchor:start;fill:#000000;fill-opacity:1;stroke:none;stroke-width:0.26458332px;stroke-linecap:butt;stroke-linejoin:miter;stroke-opacity:1"
       x="83.843071"
       y="22.768293"
       id="text4541-6-8-8-8"
       inkscape:transform-center-x="-8.1517206"
       inkscape:transform-center-y="0.80180912"><tspan
         sodipodi:role="line"
         id="tspan4539-3-2-6-6"
         x="83.843071"
         y="22.768293"
         style="font-style:normal;font-variant:normal;font-weight:normal;font-stretch:normal;font-size:20.21820068px;font-family:'Courier New';-inkscape-font-specification:'Courier New, Normal';font-variant-ligatures:normal;font-variant-caps:normal;font-variant-numeric:normal;font-feature-settings:normal;text-align:start;writing-mode:lr-tb;text-anchor:start;stroke-width:0.26458332px">e</tspan></text>
    <text
       xml:space="preserve"
       style="font-style:normal;font-variant:normal;font-weight:normal;font-stretch:normal;font-size:20.21820068px;line-height:125%;font-family:'Courier New';-inkscape-font-specification:'Courier New, Normal';font-variant-ligatures:normal;font-variant-caps:normal;font-variant-numeric:normal;font-feature-settings:normal;text-align:start;letter-spacing:0px;word-spacing:0px;writing-mode:lr-tb;text-anchor:start;fill:#000000;fill-opacity:1;stroke:none;stroke-width:0.26458332px;stroke-linecap:butt;stroke-linejoin:miter;stroke-opacity:1"
       x="101.26574"
       y="22.768293"
       id="text4541-6-8-8-8-1"
       inkscape:transform-center-x="-8.1517206"
       inkscape:transform-center-y="0.80180912"><tspan
         sodipodi:role="line"
         id="tspan4539-3-2-6-6-0"
         x="101.26574"
         y="22.768293"
         style="font-style:normal;font-variant:normal;font-weight:normal;font-stretch:normal;font-size:20.21820068px;font-family:'Courier New';-inkscape-font-specification:'Courier New, Normal';font-variant-ligatures:normal;font-variant-caps:normal;font-variant-numeric:normal;font-feature-settings:normal;text-align:start;writing-mode:lr-tb;text-anchor:start;stroke-width:0.26458332px">d</tspan></text>
  </g>
</svg>
