<?xml version="1.0" encoding="utf-8" standalone="no"?>
<!DOCTYPE svg PUBLIC "-//W3C//DTD SVG 1.1//EN"
  "http://www.w3.org/Graphics/SVG/1.1/DTD/svg11.dtd">
<!-- Created with matplotlib (https://matplotlib.org/) -->
<svg height="612pt" version="1.1" viewBox="0 0 792 612" width="792pt" xmlns="http://www.w3.org/2000/svg" xmlns:xlink="http://www.w3.org/1999/xlink">
 <defs>
  <style type="text/css">
*{stroke-linecap:butt;stroke-linejoin:round;}
  </style>
 </defs>
 <g id="figure_1">
  <g id="patch_1">
   <path d="M 0 612 
L 792 612 
L 792 0 
L 0 0 
z
" style="fill:#ffffff;"/>
  </g>
  <g id="axes_1">
   <g id="patch_2">
    <path d="M 99 173.887826 
L 712.8 173.887826 
L 712.8 73.44 
L 99 73.44 
z
" style="fill:#ffffff;"/>
   </g>
   <g id="matplotlib.axis_1">
    <g id="xtick_1">
     <g id="line2d_1">
      <defs>
       <path d="M 0 0 
L 0 3.5 
" id="m49a12b7fab" style="stroke:#000000;stroke-width:0.8;"/>
      </defs>
      <g>
       <use style="stroke:#000000;stroke-width:0.8;" x="129.991088" xlink:href="#m49a12b7fab" y="173.887826"/>
      </g>
     </g>
    </g>
    <g id="xtick_2">
     <g id="line2d_2">
      <g>
       <use style="stroke:#000000;stroke-width:0.8;" x="211.831088" xlink:href="#m49a12b7fab" y="173.887826"/>
      </g>
     </g>
    </g>
    <g id="xtick_3">
     <g id="line2d_3">
      <g>
       <use style="stroke:#000000;stroke-width:0.8;" x="273.211088" xlink:href="#m49a12b7fab" y="173.887826"/>
      </g>
     </g>
    </g>
    <g id="xtick_4">
     <g id="line2d_4">
      <g>
       <use style="stroke:#000000;stroke-width:0.8;" x="355.051088" xlink:href="#m49a12b7fab" y="173.887826"/>
      </g>
     </g>
    </g>
    <g id="xtick_5">
     <g id="line2d_5">
      <g>
       <use style="stroke:#000000;stroke-width:0.8;" x="436.891088" xlink:href="#m49a12b7fab" y="173.887826"/>
      </g>
     </g>
    </g>
    <g id="xtick_6">
     <g id="line2d_6">
      <g>
       <use style="stroke:#000000;stroke-width:0.8;" x="518.731088" xlink:href="#m49a12b7fab" y="173.887826"/>
      </g>
     </g>
    </g>
    <g id="xtick_7">
     <g id="line2d_7">
      <g>
       <use style="stroke:#000000;stroke-width:0.8;" x="600.571088" xlink:href="#m49a12b7fab" y="173.887826"/>
      </g>
     </g>
    </g>
    <g id="xtick_8">
     <g id="line2d_8">
      <g>
       <use style="stroke:#000000;stroke-width:0.8;" x="682.411088" xlink:href="#m49a12b7fab" y="173.887826"/>
      </g>
     </g>
    </g>
   </g>
   <g id="matplotlib.axis_2">
    <g id="ytick_1">
     <g id="line2d_9">
      <defs>
       <path d="M 0 0 
L -3.5 0 
" id="m75792fc746" style="stroke:#000000;stroke-width:0.8;"/>
      </defs>
      <g>
       <use style="stroke:#000000;stroke-width:0.8;" x="99" xlink:href="#m75792fc746" y="169.322016"/>
      </g>
     </g>
     <g id="text_1">
      <!-- 0.00 -->
      <defs>
       <path d="M 31.78125 66.40625 
Q 24.171875 66.40625 20.328125 58.90625 
Q 16.5 51.421875 16.5 36.375 
Q 16.5 21.390625 20.328125 13.890625 
Q 24.171875 6.390625 31.78125 6.390625 
Q 39.453125 6.390625 43.28125 13.890625 
Q 47.125 21.390625 47.125 36.375 
Q 47.125 51.421875 43.28125 58.90625 
Q 39.453125 66.40625 31.78125 66.40625 
z
M 31.78125 74.21875 
Q 44.046875 74.21875 50.515625 64.515625 
Q 56.984375 54.828125 56.984375 36.375 
Q 56.984375 17.96875 50.515625 8.265625 
Q 44.046875 -1.421875 31.78125 -1.421875 
Q 19.53125 -1.421875 13.0625 8.265625 
Q 6.59375 17.96875 6.59375 36.375 
Q 6.59375 54.828125 13.0625 64.515625 
Q 19.53125 74.21875 31.78125 74.21875 
z
" id="DejaVuSans-48"/>
       <path d="M 10.6875 12.40625 
L 21 12.40625 
L 21 0 
L 10.6875 0 
z
" id="DejaVuSans-46"/>
      </defs>
      <g transform="translate(69.734375 173.121235)scale(0.1 -0.1)">
       <use xlink:href="#DejaVuSans-48"/>
       <use x="63.623047" xlink:href="#DejaVuSans-46"/>
       <use x="95.410156" xlink:href="#DejaVuSans-48"/>
       <use x="159.033203" xlink:href="#DejaVuSans-48"/>
      </g>
     </g>
    </g>
    <g id="ytick_2">
     <g id="line2d_10">
      <g>
       <use style="stroke:#000000;stroke-width:0.8;" x="99" xlink:href="#m75792fc746" y="146.492964"/>
      </g>
     </g>
     <g id="text_2">
      <!-- 0.25 -->
      <defs>
       <path d="M 19.1875 8.296875 
L 53.609375 8.296875 
L 53.609375 0 
L 7.328125 0 
L 7.328125 8.296875 
Q 12.9375 14.109375 22.625 23.890625 
Q 32.328125 33.6875 34.8125 36.53125 
Q 39.546875 41.84375 41.421875 45.53125 
Q 43.3125 49.21875 43.3125 52.78125 
Q 43.3125 58.59375 39.234375 62.25 
Q 35.15625 65.921875 28.609375 65.921875 
Q 23.96875 65.921875 18.8125 64.3125 
Q 13.671875 62.703125 7.8125 59.421875 
L 7.8125 69.390625 
Q 13.765625 71.78125 18.9375 73 
Q 24.125 74.21875 28.421875 74.21875 
Q 39.75 74.21875 46.484375 68.546875 
Q 53.21875 62.890625 53.21875 53.421875 
Q 53.21875 48.921875 51.53125 44.890625 
Q 49.859375 40.875 45.40625 35.40625 
Q 44.1875 33.984375 37.640625 27.21875 
Q 31.109375 20.453125 19.1875 8.296875 
z
" id="DejaVuSans-50"/>
       <path d="M 10.796875 72.90625 
L 49.515625 72.90625 
L 49.515625 64.59375 
L 19.828125 64.59375 
L 19.828125 46.734375 
Q 21.96875 47.46875 24.109375 47.828125 
Q 26.265625 48.1875 28.421875 48.1875 
Q 40.625 48.1875 47.75 41.5 
Q 54.890625 34.8125 54.890625 23.390625 
Q 54.890625 11.625 47.5625 5.09375 
Q 40.234375 -1.421875 26.90625 -1.421875 
Q 22.3125 -1.421875 17.546875 -0.640625 
Q 12.796875 0.140625 7.71875 1.703125 
L 7.71875 11.625 
Q 12.109375 9.234375 16.796875 8.0625 
Q 21.484375 6.890625 26.703125 6.890625 
Q 35.15625 6.890625 40.078125 11.328125 
Q 45.015625 15.765625 45.015625 23.390625 
Q 45.015625 31 40.078125 35.4375 
Q 35.15625 39.890625 26.703125 39.890625 
Q 22.75 39.890625 18.8125 39.015625 
Q 14.890625 38.140625 10.796875 36.28125 
z
" id="DejaVuSans-53"/>
      </defs>
      <g transform="translate(69.734375 150.292183)scale(0.1 -0.1)">
       <use xlink:href="#DejaVuSans-48"/>
       <use x="63.623047" xlink:href="#DejaVuSans-46"/>
       <use x="95.410156" xlink:href="#DejaVuSans-50"/>
       <use x="159.033203" xlink:href="#DejaVuSans-53"/>
      </g>
     </g>
    </g>
    <g id="ytick_3">
     <g id="line2d_11">
      <g>
       <use style="stroke:#000000;stroke-width:0.8;" x="99" xlink:href="#m75792fc746" y="123.663913"/>
      </g>
     </g>
     <g id="text_3">
      <!-- 0.50 -->
      <g transform="translate(69.734375 127.463132)scale(0.1 -0.1)">
       <use xlink:href="#DejaVuSans-48"/>
       <use x="63.623047" xlink:href="#DejaVuSans-46"/>
       <use x="95.410156" xlink:href="#DejaVuSans-53"/>
       <use x="159.033203" xlink:href="#DejaVuSans-48"/>
      </g>
     </g>
    </g>
    <g id="ytick_4">
     <g id="line2d_12">
      <g>
       <use style="stroke:#000000;stroke-width:0.8;" x="99" xlink:href="#m75792fc746" y="100.834862"/>
      </g>
     </g>
     <g id="text_4">
      <!-- 0.75 -->
      <defs>
       <path d="M 8.203125 72.90625 
L 55.078125 72.90625 
L 55.078125 68.703125 
L 28.609375 0 
L 18.3125 0 
L 43.21875 64.59375 
L 8.203125 64.59375 
z
" id="DejaVuSans-55"/>
      </defs>
      <g transform="translate(69.734375 104.63408)scale(0.1 -0.1)">
       <use xlink:href="#DejaVuSans-48"/>
       <use x="63.623047" xlink:href="#DejaVuSans-46"/>
       <use x="95.410156" xlink:href="#DejaVuSans-55"/>
       <use x="159.033203" xlink:href="#DejaVuSans-53"/>
      </g>
     </g>
    </g>
    <g id="ytick_5">
     <g id="line2d_13">
      <g>
       <use style="stroke:#000000;stroke-width:0.8;" x="99" xlink:href="#m75792fc746" y="78.00581"/>
      </g>
     </g>
     <g id="text_5">
      <!-- 1.00 -->
      <defs>
       <path d="M 12.40625 8.296875 
L 28.515625 8.296875 
L 28.515625 63.921875 
L 10.984375 60.40625 
L 10.984375 69.390625 
L 28.421875 72.90625 
L 38.28125 72.90625 
L 38.28125 8.296875 
L 54.390625 8.296875 
L 54.390625 0 
L 12.40625 0 
z
" id="DejaVuSans-49"/>
      </defs>
      <g transform="translate(69.734375 81.805029)scale(0.1 -0.1)">
       <use xlink:href="#DejaVuSans-49"/>
       <use x="63.623047" xlink:href="#DejaVuSans-46"/>
       <use x="95.410156" xlink:href="#DejaVuSans-48"/>
       <use x="159.033203" xlink:href="#DejaVuSans-48"/>
      </g>
     </g>
    </g>
    <g id="text_6">
     <!-- recommendation -->
     <defs>
      <path d="M 41.109375 46.296875 
Q 39.59375 47.171875 37.8125 47.578125 
Q 36.03125 48 33.890625 48 
Q 26.265625 48 22.1875 43.046875 
Q 18.109375 38.09375 18.109375 28.8125 
L 18.109375 0 
L 9.078125 0 
L 9.078125 54.6875 
L 18.109375 54.6875 
L 18.109375 46.1875 
Q 20.953125 51.171875 25.484375 53.578125 
Q 30.03125 56 36.53125 56 
Q 37.453125 56 38.578125 55.875 
Q 39.703125 55.765625 41.0625 55.515625 
z
" id="DejaVuSans-114"/>
      <path d="M 56.203125 29.59375 
L 56.203125 25.203125 
L 14.890625 25.203125 
Q 15.484375 15.921875 20.484375 11.0625 
Q 25.484375 6.203125 34.421875 6.203125 
Q 39.59375 6.203125 44.453125 7.46875 
Q 49.3125 8.734375 54.109375 11.28125 
L 54.109375 2.78125 
Q 49.265625 0.734375 44.1875 -0.34375 
Q 39.109375 -1.421875 33.890625 -1.421875 
Q 20.796875 -1.421875 13.15625 6.1875 
Q 5.515625 13.8125 5.515625 26.8125 
Q 5.515625 40.234375 12.765625 48.109375 
Q 20.015625 56 32.328125 56 
Q 43.359375 56 49.78125 48.890625 
Q 56.203125 41.796875 56.203125 29.59375 
z
M 47.21875 32.234375 
Q 47.125 39.59375 43.09375 43.984375 
Q 39.0625 48.390625 32.421875 48.390625 
Q 24.90625 48.390625 20.390625 44.140625 
Q 15.875 39.890625 15.1875 32.171875 
z
" id="DejaVuSans-101"/>
      <path d="M 48.78125 52.59375 
L 48.78125 44.1875 
Q 44.96875 46.296875 41.140625 47.34375 
Q 37.3125 48.390625 33.40625 48.390625 
Q 24.65625 48.390625 19.8125 42.84375 
Q 14.984375 37.3125 14.984375 27.296875 
Q 14.984375 17.28125 19.8125 11.734375 
Q 24.65625 6.203125 33.40625 6.203125 
Q 37.3125 6.203125 41.140625 7.25 
Q 44.96875 8.296875 48.78125 10.40625 
L 48.78125 2.09375 
Q 45.015625 0.34375 40.984375 -0.53125 
Q 36.96875 -1.421875 32.421875 -1.421875 
Q 20.0625 -1.421875 12.78125 6.34375 
Q 5.515625 14.109375 5.515625 27.296875 
Q 5.515625 40.671875 12.859375 48.328125 
Q 20.21875 56 33.015625 56 
Q 37.15625 56 41.109375 55.140625 
Q 45.0625 54.296875 48.78125 52.59375 
z
" id="DejaVuSans-99"/>
      <path d="M 30.609375 48.390625 
Q 23.390625 48.390625 19.1875 42.75 
Q 14.984375 37.109375 14.984375 27.296875 
Q 14.984375 17.484375 19.15625 11.84375 
Q 23.34375 6.203125 30.609375 6.203125 
Q 37.796875 6.203125 41.984375 11.859375 
Q 46.1875 17.53125 46.1875 27.296875 
Q 46.1875 37.015625 41.984375 42.703125 
Q 37.796875 48.390625 30.609375 48.390625 
z
M 30.609375 56 
Q 42.328125 56 49.015625 48.375 
Q 55.71875 40.765625 55.71875 27.296875 
Q 55.71875 13.875 49.015625 6.21875 
Q 42.328125 -1.421875 30.609375 -1.421875 
Q 18.84375 -1.421875 12.171875 6.21875 
Q 5.515625 13.875 5.515625 27.296875 
Q 5.515625 40.765625 12.171875 48.375 
Q 18.84375 56 30.609375 56 
z
" id="DejaVuSans-111"/>
      <path d="M 52 44.1875 
Q 55.375 50.25 60.0625 53.125 
Q 64.75 56 71.09375 56 
Q 79.640625 56 84.28125 50.015625 
Q 88.921875 44.046875 88.921875 33.015625 
L 88.921875 0 
L 79.890625 0 
L 79.890625 32.71875 
Q 79.890625 40.578125 77.09375 44.375 
Q 74.3125 48.1875 68.609375 48.1875 
Q 61.625 48.1875 57.5625 43.546875 
Q 53.515625 38.921875 53.515625 30.90625 
L 53.515625 0 
L 44.484375 0 
L 44.484375 32.71875 
Q 44.484375 40.625 41.703125 44.40625 
Q 38.921875 48.1875 33.109375 48.1875 
Q 26.21875 48.1875 22.15625 43.53125 
Q 18.109375 38.875 18.109375 30.90625 
L 18.109375 0 
L 9.078125 0 
L 9.078125 54.6875 
L 18.109375 54.6875 
L 18.109375 46.1875 
Q 21.1875 51.21875 25.484375 53.609375 
Q 29.78125 56 35.6875 56 
Q 41.65625 56 45.828125 52.96875 
Q 50 49.953125 52 44.1875 
z
" id="DejaVuSans-109"/>
      <path d="M 54.890625 33.015625 
L 54.890625 0 
L 45.90625 0 
L 45.90625 32.71875 
Q 45.90625 40.484375 42.875 44.328125 
Q 39.84375 48.1875 33.796875 48.1875 
Q 26.515625 48.1875 22.3125 43.546875 
Q 18.109375 38.921875 18.109375 30.90625 
L 18.109375 0 
L 9.078125 0 
L 9.078125 54.6875 
L 18.109375 54.6875 
L 18.109375 46.1875 
Q 21.34375 51.125 25.703125 53.5625 
Q 30.078125 56 35.796875 56 
Q 45.21875 56 50.046875 50.171875 
Q 54.890625 44.34375 54.890625 33.015625 
z
" id="DejaVuSans-110"/>
      <path d="M 45.40625 46.390625 
L 45.40625 75.984375 
L 54.390625 75.984375 
L 54.390625 0 
L 45.40625 0 
L 45.40625 8.203125 
Q 42.578125 3.328125 38.25 0.953125 
Q 33.9375 -1.421875 27.875 -1.421875 
Q 17.96875 -1.421875 11.734375 6.484375 
Q 5.515625 14.40625 5.515625 27.296875 
Q 5.515625 40.1875 11.734375 48.09375 
Q 17.96875 56 27.875 56 
Q 33.9375 56 38.25 53.625 
Q 42.578125 51.265625 45.40625 46.390625 
z
M 14.796875 27.296875 
Q 14.796875 17.390625 18.875 11.75 
Q 22.953125 6.109375 30.078125 6.109375 
Q 37.203125 6.109375 41.296875 11.75 
Q 45.40625 17.390625 45.40625 27.296875 
Q 45.40625 37.203125 41.296875 42.84375 
Q 37.203125 48.484375 30.078125 48.484375 
Q 22.953125 48.484375 18.875 42.84375 
Q 14.796875 37.203125 14.796875 27.296875 
z
" id="DejaVuSans-100"/>
      <path d="M 34.28125 27.484375 
Q 23.390625 27.484375 19.1875 25 
Q 14.984375 22.515625 14.984375 16.5 
Q 14.984375 11.71875 18.140625 8.90625 
Q 21.296875 6.109375 26.703125 6.109375 
Q 34.1875 6.109375 38.703125 11.40625 
Q 43.21875 16.703125 43.21875 25.484375 
L 43.21875 27.484375 
z
M 52.203125 31.203125 
L 52.203125 0 
L 43.21875 0 
L 43.21875 8.296875 
Q 40.140625 3.328125 35.546875 0.953125 
Q 30.953125 -1.421875 24.3125 -1.421875 
Q 15.921875 -1.421875 10.953125 3.296875 
Q 6 8.015625 6 15.921875 
Q 6 25.140625 12.171875 29.828125 
Q 18.359375 34.515625 30.609375 34.515625 
L 43.21875 34.515625 
L 43.21875 35.40625 
Q 43.21875 41.609375 39.140625 45 
Q 35.0625 48.390625 27.6875 48.390625 
Q 23 48.390625 18.546875 47.265625 
Q 14.109375 46.140625 10.015625 43.890625 
L 10.015625 52.203125 
Q 14.9375 54.109375 19.578125 55.046875 
Q 24.21875 56 28.609375 56 
Q 40.484375 56 46.34375 49.84375 
Q 52.203125 43.703125 52.203125 31.203125 
z
" id="DejaVuSans-97"/>
      <path d="M 18.3125 70.21875 
L 18.3125 54.6875 
L 36.8125 54.6875 
L 36.8125 47.703125 
L 18.3125 47.703125 
L 18.3125 18.015625 
Q 18.3125 11.328125 20.140625 9.421875 
Q 21.96875 7.515625 27.59375 7.515625 
L 36.8125 7.515625 
L 36.8125 0 
L 27.59375 0 
Q 17.1875 0 13.234375 3.875 
Q 9.28125 7.765625 9.28125 18.015625 
L 9.28125 47.703125 
L 2.6875 47.703125 
L 2.6875 54.6875 
L 9.28125 54.6875 
L 9.28125 70.21875 
z
" id="DejaVuSans-116"/>
      <path d="M 9.421875 54.6875 
L 18.40625 54.6875 
L 18.40625 0 
L 9.421875 0 
z
M 9.421875 75.984375 
L 18.40625 75.984375 
L 18.40625 64.59375 
L 9.421875 64.59375 
z
" id="DejaVuSans-105"/>
     </defs>
     <g transform="translate(63.654687 166.404538)rotate(-90)scale(0.1 -0.1)">
      <use xlink:href="#DejaVuSans-114"/>
      <use x="41.082031" xlink:href="#DejaVuSans-101"/>
      <use x="102.605469" xlink:href="#DejaVuSans-99"/>
      <use x="157.585938" xlink:href="#DejaVuSans-111"/>
      <use x="218.767578" xlink:href="#DejaVuSans-109"/>
      <use x="316.179688" xlink:href="#DejaVuSans-109"/>
      <use x="413.591797" xlink:href="#DejaVuSans-101"/>
      <use x="475.115234" xlink:href="#DejaVuSans-110"/>
      <use x="538.494141" xlink:href="#DejaVuSans-100"/>
      <use x="601.970703" xlink:href="#DejaVuSans-97"/>
      <use x="663.25" xlink:href="#DejaVuSans-116"/>
      <use x="702.458984" xlink:href="#DejaVuSans-105"/>
      <use x="730.242188" xlink:href="#DejaVuSans-111"/>
      <use x="791.423828" xlink:href="#DejaVuSans-110"/>
     </g>
    </g>
   </g>
   <g id="line2d_14">
    <path clip-path="url(#p8260b453ca)" d="M 99 169.322016 
L 108.389999 121.292954 
L 126.767537 102.125134 
L 137.491815 97.261307 
L 150.514659 93.48974 
L 167.754905 90.309519 
L 174.159183 89.438474 
L 186.685714 88.048772 
L 193.845128 87.396708 
L 211.738775 86.086116 
L 224.265306 85.367214 
L 236.791836 84.765919 
L 244.652867 84.436344 
L 261.844897 83.816851 
L 274.371428 83.435762 
L 286.897959 83.10161 
L 299.424489 82.806223 
L 311.95102 82.54322 
L 324.477551 82.307552 
L 337.004081 82.095165 
L 349.530612 81.90277 
L 362.057142 81.727672 
L 374.583673 81.567636 
L 387.110204 81.420799 
L 399.636734 81.285593 
L 412.163265 81.160687 
L 428.876596 81.008135 
L 437.216326 80.937403 
L 449.742857 80.83721 
L 462.269387 80.74364 
L 474.795918 80.656058 
L 487.322449 80.573906 
L 499.848979 80.496695 
L 512.37551 80.423992 
L 524.90204 80.355413 
L 537.428571 80.290618 
L 549.955102 80.2293 
L 562.481632 80.171188 
L 575.008163 80.116036 
L 587.534693 80.063625 
L 600.061224 80.013754 
L 612.587755 79.966243 
L 625.114285 79.920929 
L 637.640816 79.877662 
L 650.167346 79.836307 
L 662.693877 79.796741 
L 675.220408 79.758848 
L 687.746938 79.722526 
L 700.273469 79.687679 
L 793 79.621005 
" style="fill:none;stroke:#0343df;stroke-linecap:square;stroke-width:1.5;"/>
   </g>
   <g id="line2d_15">
    <path clip-path="url(#p8260b453ca)" d="M 98.997954 78.00581 
L 99 78.00581 
L 99 78.00581 
L 108.387953 121.286229 
L 108.389999 78.00581 
L 111.52653 90.44286 
L 117.314294 109.117471 
L 117.31634 78.00581 
L 124.053061 95.937387 
L 126.765491 102.120672 
L 126.767537 78.00581 
L 136.579591 95.794981 
L 137.489769 97.258051 
L 137.491815 78.00581 
L 149.106122 91.950369 
L 150.512613 93.487527 
L 150.514659 78.00581 
L 161.632653 86.142683 
L 167.752859 90.308162 
L 167.754905 78.00581 
L 174.159183 80.406189 
L 186.685714 84.920362 
L 193.843082 87.396011 
L 193.845128 78.00581 
L 199.212244 78.707499 
L 211.738775 80.324292 
L 224.265306 81.912238 
L 236.791836 83.471851 
L 244.650821 84.436094 
L 244.652867 78.00581 
L 249.318367 78.08309 
L 261.844897 78.290257 
L 274.371428 78.496954 
L 286.897959 78.703181 
L 299.424489 78.908941 
L 311.95102 79.114233 
L 324.477551 79.319059 
L 337.004081 79.523419 
L 349.530612 79.727316 
L 362.057142 79.93075 
L 374.583673 80.133722 
L 387.110204 80.336233 
L 399.636734 80.538284 
L 412.163265 80.739876 
L 424.689795 80.941011 
L 428.87455 81.008103 
L 428.876596 78.00581 
L 437.216326 78.007671 
L 449.742857 78.010467 
L 462.269387 78.013262 
L 474.795918 78.016057 
L 487.322449 78.018852 
L 499.848979 78.021647 
L 512.37551 78.024442 
L 524.90204 78.027237 
L 537.428571 78.030031 
L 549.955102 78.032826 
L 562.481632 78.03562 
L 575.008163 78.038415 
L 587.534693 78.041209 
L 600.061224 78.044003 
L 612.587755 78.046798 
L 625.114285 78.049592 
L 637.640816 78.052386 
L 650.167346 78.05518 
L 662.693877 78.057974 
L 675.220408 78.060767 
L 687.746938 78.063561 
L 700.273469 78.066355 
L 712.8 78.069148 
L 793 78.086996 
" style="fill:none;stroke:#fe420f;stroke-linecap:square;stroke-width:1.5;"/>
   </g>
   <g id="line2d_16">
    <path clip-path="url(#p8260b453ca)" d="M 99 169.322016 
L 99 78.00581 
" style="fill:none;stroke:#1f77b4;stroke-linecap:square;stroke-width:1.5;"/>
   </g>
   <g id="line2d_17">
    <path clip-path="url(#p8260b453ca)" d="M 99 169.322016 
L 99 78.00581 
" style="fill:none;stroke:#a5a391;stroke-dasharray:9.6,2.4,1.5,2.4;stroke-dashoffset:0;stroke-width:1.5;"/>
   </g>
   <g id="line2d_18">
    <path clip-path="url(#p8260b453ca)" d="M 108.389999 169.322016 
L 108.389999 121.292954 
" style="fill:none;stroke:#a5a391;stroke-dasharray:9.6,2.4,1.5,2.4;stroke-dashoffset:0;stroke-width:1.5;"/>
   </g>
   <g id="line2d_19">
    <path clip-path="url(#p8260b453ca)" d="M 117.31634 169.322016 
L 117.31634 109.123221 
" style="fill:none;stroke:#a5a391;stroke-dasharray:9.6,2.4,1.5,2.4;stroke-dashoffset:0;stroke-width:1.5;"/>
   </g>
   <g id="line2d_20">
    <path clip-path="url(#p8260b453ca)" d="M 126.767537 169.322016 
L 126.767537 102.125134 
" style="fill:none;stroke:#a5a391;stroke-dasharray:9.6,2.4,1.5,2.4;stroke-dashoffset:0;stroke-width:1.5;"/>
   </g>
   <g id="line2d_21">
    <path clip-path="url(#p8260b453ca)" d="M 137.491815 169.322016 
L 137.491815 97.261307 
" style="fill:none;stroke:#a5a391;stroke-dasharray:9.6,2.4,1.5,2.4;stroke-dashoffset:0;stroke-width:1.5;"/>
   </g>
   <g id="line2d_22">
    <path clip-path="url(#p8260b453ca)" d="M 150.514659 169.322016 
L 150.514659 93.48974 
" style="fill:none;stroke:#a5a391;stroke-dasharray:9.6,2.4,1.5,2.4;stroke-dashoffset:0;stroke-width:1.5;"/>
   </g>
   <g id="line2d_23">
    <path clip-path="url(#p8260b453ca)" d="M 167.754905 169.322016 
L 167.754905 90.309519 
" style="fill:none;stroke:#a5a391;stroke-dasharray:9.6,2.4,1.5,2.4;stroke-dashoffset:0;stroke-width:1.5;"/>
   </g>
   <g id="line2d_24">
    <path clip-path="url(#p8260b453ca)" d="M 193.845128 169.322016 
L 193.845128 87.396708 
" style="fill:none;stroke:#a5a391;stroke-dasharray:9.6,2.4,1.5,2.4;stroke-dashoffset:0;stroke-width:1.5;"/>
   </g>
   <g id="line2d_25">
    <path clip-path="url(#p8260b453ca)" d="M 244.652867 169.322016 
L 244.652867 84.436344 
" style="fill:none;stroke:#a5a391;stroke-dasharray:9.6,2.4,1.5,2.4;stroke-dashoffset:0;stroke-width:1.5;"/>
   </g>
   <g id="line2d_26">
    <path clip-path="url(#p8260b453ca)" d="M 428.876596 169.322016 
L 428.876596 81.008135 
" style="fill:none;stroke:#a5a391;stroke-dasharray:9.6,2.4,1.5,2.4;stroke-dashoffset:0;stroke-width:1.5;"/>
   </g>
   <g id="line2d_27">
    <path clip-path="url(#p8260b453ca)" style="fill:none;stroke:#a5a391;stroke-dasharray:9.6,2.4,1.5,2.4;stroke-dashoffset:0;stroke-width:1.5;"/>
   </g>
   <g id="line2d_28">
    <path clip-path="url(#p8260b453ca)" d="M 99 169.322016 
L 99 78.00581 
" style="fill:none;stroke:#ffa500;stroke-dasharray:9.6,2.4,1.5,2.4;stroke-dashoffset:0;stroke-width:1.5;"/>
   </g>
   <g id="line2d_29">
    <path clip-path="url(#p8260b453ca)" d="M 108.389999 169.322016 
L 108.389999 121.292954 
" style="fill:none;stroke:#ffa500;stroke-dasharray:9.6,2.4,1.5,2.4;stroke-dashoffset:0;stroke-width:1.5;"/>
   </g>
   <g id="line2d_30">
    <path clip-path="url(#p8260b453ca)" d="M 117.31634 169.322016 
L 117.31634 109.123221 
" style="fill:none;stroke:#ffa500;stroke-dasharray:9.6,2.4,1.5,2.4;stroke-dashoffset:0;stroke-width:1.5;"/>
   </g>
   <g id="line2d_31">
    <path clip-path="url(#p8260b453ca)" d="M 126.767537 169.322016 
L 126.767537 102.125134 
" style="fill:none;stroke:#ffa500;stroke-dasharray:9.6,2.4,1.5,2.4;stroke-dashoffset:0;stroke-width:1.5;"/>
   </g>
   <g id="line2d_32">
    <path clip-path="url(#p8260b453ca)" d="M 137.491815 169.322016 
L 137.491815 97.261307 
" style="fill:none;stroke:#ffa500;stroke-dasharray:9.6,2.4,1.5,2.4;stroke-dashoffset:0;stroke-width:1.5;"/>
   </g>
   <g id="line2d_33">
    <path clip-path="url(#p8260b453ca)" d="M 150.514659 169.322016 
L 150.514659 93.48974 
" style="fill:none;stroke:#ffa500;stroke-dasharray:9.6,2.4,1.5,2.4;stroke-dashoffset:0;stroke-width:1.5;"/>
   </g>
   <g id="line2d_34">
    <path clip-path="url(#p8260b453ca)" d="M 167.754905 169.322016 
L 167.754905 90.309519 
" style="fill:none;stroke:#ffa500;stroke-dasharray:9.6,2.4,1.5,2.4;stroke-dashoffset:0;stroke-width:1.5;"/>
   </g>
   <g id="line2d_35">
    <path clip-path="url(#p8260b453ca)" d="M 193.845128 169.322016 
L 193.845128 87.396708 
" style="fill:none;stroke:#ffa500;stroke-dasharray:9.6,2.4,1.5,2.4;stroke-dashoffset:0;stroke-width:1.5;"/>
   </g>
   <g id="line2d_36">
    <path clip-path="url(#p8260b453ca)" d="M 244.652867 169.322016 
L 244.652867 84.436344 
" style="fill:none;stroke:#ffa500;stroke-dasharray:9.6,2.4,1.5,2.4;stroke-dashoffset:0;stroke-width:1.5;"/>
   </g>
   <g id="line2d_37">
    <path clip-path="url(#p8260b453ca)" d="M 428.876596 169.322016 
L 428.876596 81.008135 
" style="fill:none;stroke:#ffa500;stroke-dasharray:9.6,2.4,1.5,2.4;stroke-dashoffset:0;stroke-width:1.5;"/>
   </g>
   <g id="line2d_38">
    <path clip-path="url(#p8260b453ca)" style="fill:none;stroke:#ffa500;stroke-dasharray:9.6,2.4,1.5,2.4;stroke-dashoffset:0;stroke-width:1.5;"/>
   </g>
   <g id="patch_3">
    <path d="M 99 173.887826 
L 99 73.44 
" style="fill:none;stroke:#000000;stroke-linecap:square;stroke-linejoin:miter;stroke-width:0.8;"/>
   </g>
   <g id="patch_4">
    <path d="M 712.8 173.887826 
L 712.8 73.44 
" style="fill:none;stroke:#000000;stroke-linecap:square;stroke-linejoin:miter;stroke-width:0.8;"/>
   </g>
   <g id="patch_5">
    <path d="M 99 173.887826 
L 712.8 173.887826 
" style="fill:none;stroke:#000000;stroke-linecap:square;stroke-linejoin:miter;stroke-width:0.8;"/>
   </g>
   <g id="patch_6">
    <path d="M 99 73.44 
L 712.8 73.44 
" style="fill:none;stroke:#000000;stroke-linecap:square;stroke-linejoin:miter;stroke-width:0.8;"/>
   </g>
  </g>
  <g id="axes_2">
   <g id="patch_7">
    <path d="M 99 294.425217 
L 712.8 294.425217 
L 712.8 193.977391 
L 99 193.977391 
z
" style="fill:#ffffff;"/>
   </g>
   <g id="matplotlib.axis_3">
    <g id="xtick_9">
     <g id="line2d_39">
      <g>
       <use style="stroke:#000000;stroke-width:0.8;" x="129.991088" xlink:href="#m49a12b7fab" y="294.425217"/>
      </g>
     </g>
    </g>
    <g id="xtick_10">
     <g id="line2d_40">
      <g>
       <use style="stroke:#000000;stroke-width:0.8;" x="211.831088" xlink:href="#m49a12b7fab" y="294.425217"/>
      </g>
     </g>
    </g>
    <g id="xtick_11">
     <g id="line2d_41">
      <g>
       <use style="stroke:#000000;stroke-width:0.8;" x="273.211088" xlink:href="#m49a12b7fab" y="294.425217"/>
      </g>
     </g>
    </g>
    <g id="xtick_12">
     <g id="line2d_42">
      <g>
       <use style="stroke:#000000;stroke-width:0.8;" x="355.051088" xlink:href="#m49a12b7fab" y="294.425217"/>
      </g>
     </g>
    </g>
    <g id="xtick_13">
     <g id="line2d_43">
      <g>
       <use style="stroke:#000000;stroke-width:0.8;" x="436.891088" xlink:href="#m49a12b7fab" y="294.425217"/>
      </g>
     </g>
    </g>
    <g id="xtick_14">
     <g id="line2d_44">
      <g>
       <use style="stroke:#000000;stroke-width:0.8;" x="518.731088" xlink:href="#m49a12b7fab" y="294.425217"/>
      </g>
     </g>
    </g>
    <g id="xtick_15">
     <g id="line2d_45">
      <g>
       <use style="stroke:#000000;stroke-width:0.8;" x="600.571088" xlink:href="#m49a12b7fab" y="294.425217"/>
      </g>
     </g>
    </g>
    <g id="xtick_16">
     <g id="line2d_46">
      <g>
       <use style="stroke:#000000;stroke-width:0.8;" x="682.411088" xlink:href="#m49a12b7fab" y="294.425217"/>
      </g>
     </g>
    </g>
   </g>
   <g id="matplotlib.axis_4">
    <g id="ytick_6">
     <g id="line2d_47">
      <g>
       <use style="stroke:#000000;stroke-width:0.8;" x="99" xlink:href="#m75792fc746" y="289.859407"/>
      </g>
     </g>
     <g id="text_7">
      <!-- 0.00 -->
      <g transform="translate(69.734375 293.658626)scale(0.1 -0.1)">
       <use xlink:href="#DejaVuSans-48"/>
       <use x="63.623047" xlink:href="#DejaVuSans-46"/>
       <use x="95.410156" xlink:href="#DejaVuSans-48"/>
       <use x="159.033203" xlink:href="#DejaVuSans-48"/>
      </g>
     </g>
    </g>
    <g id="ytick_7">
     <g id="line2d_48">
      <g>
       <use style="stroke:#000000;stroke-width:0.8;" x="99" xlink:href="#m75792fc746" y="267.030356"/>
      </g>
     </g>
     <g id="text_8">
      <!-- 0.25 -->
      <g transform="translate(69.734375 270.829574)scale(0.1 -0.1)">
       <use xlink:href="#DejaVuSans-48"/>
       <use x="63.623047" xlink:href="#DejaVuSans-46"/>
       <use x="95.410156" xlink:href="#DejaVuSans-50"/>
       <use x="159.033203" xlink:href="#DejaVuSans-53"/>
      </g>
     </g>
    </g>
    <g id="ytick_8">
     <g id="line2d_49">
      <g>
       <use style="stroke:#000000;stroke-width:0.8;" x="99" xlink:href="#m75792fc746" y="244.201304"/>
      </g>
     </g>
     <g id="text_9">
      <!-- 0.50 -->
      <g transform="translate(69.734375 248.000523)scale(0.1 -0.1)">
       <use xlink:href="#DejaVuSans-48"/>
       <use x="63.623047" xlink:href="#DejaVuSans-46"/>
       <use x="95.410156" xlink:href="#DejaVuSans-53"/>
       <use x="159.033203" xlink:href="#DejaVuSans-48"/>
      </g>
     </g>
    </g>
    <g id="ytick_9">
     <g id="line2d_50">
      <g>
       <use style="stroke:#000000;stroke-width:0.8;" x="99" xlink:href="#m75792fc746" y="221.372253"/>
      </g>
     </g>
     <g id="text_10">
      <!-- 0.75 -->
      <g transform="translate(69.734375 225.171472)scale(0.1 -0.1)">
       <use xlink:href="#DejaVuSans-48"/>
       <use x="63.623047" xlink:href="#DejaVuSans-46"/>
       <use x="95.410156" xlink:href="#DejaVuSans-55"/>
       <use x="159.033203" xlink:href="#DejaVuSans-53"/>
      </g>
     </g>
    </g>
    <g id="ytick_10">
     <g id="line2d_51">
      <g>
       <use style="stroke:#000000;stroke-width:0.8;" x="99" xlink:href="#m75792fc746" y="198.543202"/>
      </g>
     </g>
     <g id="text_11">
      <!-- 1.00 -->
      <g transform="translate(69.734375 202.34242)scale(0.1 -0.1)">
       <use xlink:href="#DejaVuSans-49"/>
       <use x="63.623047" xlink:href="#DejaVuSans-46"/>
       <use x="95.410156" xlink:href="#DejaVuSans-48"/>
       <use x="159.033203" xlink:href="#DejaVuSans-48"/>
      </g>
     </g>
    </g>
    <g id="text_12">
     <!-- observed -->
     <defs>
      <path d="M 48.6875 27.296875 
Q 48.6875 37.203125 44.609375 42.84375 
Q 40.53125 48.484375 33.40625 48.484375 
Q 26.265625 48.484375 22.1875 42.84375 
Q 18.109375 37.203125 18.109375 27.296875 
Q 18.109375 17.390625 22.1875 11.75 
Q 26.265625 6.109375 33.40625 6.109375 
Q 40.53125 6.109375 44.609375 11.75 
Q 48.6875 17.390625 48.6875 27.296875 
z
M 18.109375 46.390625 
Q 20.953125 51.265625 25.265625 53.625 
Q 29.59375 56 35.59375 56 
Q 45.5625 56 51.78125 48.09375 
Q 58.015625 40.1875 58.015625 27.296875 
Q 58.015625 14.40625 51.78125 6.484375 
Q 45.5625 -1.421875 35.59375 -1.421875 
Q 29.59375 -1.421875 25.265625 0.953125 
Q 20.953125 3.328125 18.109375 8.203125 
L 18.109375 0 
L 9.078125 0 
L 9.078125 75.984375 
L 18.109375 75.984375 
z
" id="DejaVuSans-98"/>
      <path d="M 44.28125 53.078125 
L 44.28125 44.578125 
Q 40.484375 46.53125 36.375 47.5 
Q 32.28125 48.484375 27.875 48.484375 
Q 21.1875 48.484375 17.84375 46.4375 
Q 14.5 44.390625 14.5 40.28125 
Q 14.5 37.15625 16.890625 35.375 
Q 19.28125 33.59375 26.515625 31.984375 
L 29.59375 31.296875 
Q 39.15625 29.25 43.1875 25.515625 
Q 47.21875 21.78125 47.21875 15.09375 
Q 47.21875 7.46875 41.1875 3.015625 
Q 35.15625 -1.421875 24.609375 -1.421875 
Q 20.21875 -1.421875 15.453125 -0.5625 
Q 10.6875 0.296875 5.421875 2 
L 5.421875 11.28125 
Q 10.40625 8.6875 15.234375 7.390625 
Q 20.0625 6.109375 24.8125 6.109375 
Q 31.15625 6.109375 34.5625 8.28125 
Q 37.984375 10.453125 37.984375 14.40625 
Q 37.984375 18.0625 35.515625 20.015625 
Q 33.0625 21.96875 24.703125 23.78125 
L 21.578125 24.515625 
Q 13.234375 26.265625 9.515625 29.90625 
Q 5.8125 33.546875 5.8125 39.890625 
Q 5.8125 47.609375 11.28125 51.796875 
Q 16.75 56 26.8125 56 
Q 31.78125 56 36.171875 55.265625 
Q 40.578125 54.546875 44.28125 53.078125 
z
" id="DejaVuSans-115"/>
      <path d="M 2.984375 54.6875 
L 12.5 54.6875 
L 29.59375 8.796875 
L 46.6875 54.6875 
L 56.203125 54.6875 
L 35.6875 0 
L 23.484375 0 
z
" id="DejaVuSans-118"/>
     </defs>
     <g transform="translate(63.654687 267.381773)rotate(-90)scale(0.1 -0.1)">
      <use xlink:href="#DejaVuSans-111"/>
      <use x="61.181641" xlink:href="#DejaVuSans-98"/>
      <use x="124.658203" xlink:href="#DejaVuSans-115"/>
      <use x="176.757812" xlink:href="#DejaVuSans-101"/>
      <use x="238.28125" xlink:href="#DejaVuSans-114"/>
      <use x="279.394531" xlink:href="#DejaVuSans-118"/>
      <use x="338.574219" xlink:href="#DejaVuSans-101"/>
      <use x="400.097656" xlink:href="#DejaVuSans-100"/>
     </g>
    </g>
   </g>
   <g id="line2d_52">
    <path clip-path="url(#pacc21825b9)" d="M 99 198.543202 
L 99.020459 253.332925 
L 99.020459 198.543202 
L 115.367999 249.680277 
L 115.367999 198.543202 
L 125.597999 239.635494 
L 125.597999 198.543202 
L 134.804999 231.417036 
L 134.804999 198.543202 
L 160.789199 220.459091 
L 160.789199 198.543202 
L 197.207999 214.066957 
L 197.207999 198.543202 
L 248.971799 208.587984 
L 248.971799 198.543202 
L 322.627799 198.543202 
L 322.627799 198.543202 
L 426.359999 199.456364 
L 426.359999 198.543202 
L 569.579999 199.456364 
L 569.579999 198.543202 
" style="fill:none;stroke:#e50000;stroke-linecap:square;stroke-width:1.5;"/>
   </g>
   <g id="line2d_53">
    <path clip-path="url(#pacc21825b9)" d="M 99 289.859407 
L 99.020459 289.859407 
L 111.52653 255.737952 
L 115.367999 246.896953 
L 124.053061 234.088891 
L 125.597999 232.471273 
L 134.804999 225.200357 
L 136.579591 224.138986 
L 149.106122 218.511678 
L 160.789199 215.106407 
L 161.632653 214.904806 
L 174.159183 212.398722 
L 186.685714 210.557141 
L 197.207999 209.350042 
L 199.212244 209.147067 
L 211.738775 208.032903 
L 224.265306 207.130427 
L 236.791836 206.384585 
L 248.971799 205.773867 
L 249.318367 205.757878 
L 261.844897 205.223887 
L 274.371428 204.763463 
L 286.897959 204.362388 
L 299.424489 204.009886 
L 311.95102 203.69764 
L 322.627799 203.458345 
L 324.477551 203.419127 
L 337.004081 203.169162 
L 349.530612 202.943572 
L 362.057142 202.738957 
L 374.583673 202.552522 
L 387.110204 202.381948 
L 399.636734 202.225294 
L 412.163265 202.080922 
L 424.689795 201.947444 
L 426.359999 201.930404 
L 437.216326 201.82367 
L 449.742857 201.70858 
L 462.269387 201.601291 
L 474.795918 201.501036 
L 487.322449 201.407145 
L 499.848979 201.319032 
L 512.37551 201.236177 
L 524.90204 201.158126 
L 537.428571 201.084471 
L 549.955102 201.014851 
L 562.481632 200.948944 
L 569.579999 200.913134 
L 575.008163 200.88646 
L 587.534693 200.82714 
L 600.061224 200.770749 
L 612.587755 200.717075 
L 625.114285 200.665927 
L 637.640816 200.61713 
L 650.167346 200.570527 
L 662.693877 200.525971 
L 675.220408 200.483332 
L 687.746938 200.442488 
L 700.273469 200.403328 
L 712.8 200.365751 
" style="fill:none;stroke:#1f77b4;stroke-linecap:square;stroke-width:1.5;"/>
   </g>
   <g id="line2d_54">
    <path clip-path="url(#pacc21825b9)" d="M 99 289.859407 
L 99 198.543202 
" style="fill:none;stroke:#ff7f0e;stroke-linecap:square;stroke-width:1.5;"/>
   </g>
   <g id="line2d_55">
    <path clip-path="url(#pacc21825b9)" d="M 99 289.859407 
L 99 198.543202 
" style="fill:none;stroke:#a5a391;stroke-dasharray:9.6,2.4,1.5,2.4;stroke-dashoffset:0;stroke-width:1.5;"/>
   </g>
   <g id="line2d_56">
    <path clip-path="url(#pacc21825b9)" d="M 99.020459 289.859407 
L 99.020459 253.332925 
" style="fill:none;stroke:#a5a391;stroke-dasharray:9.6,2.4,1.5,2.4;stroke-dashoffset:0;stroke-width:1.5;"/>
   </g>
   <g id="line2d_57">
    <path clip-path="url(#pacc21825b9)" d="M 115.367999 289.859407 
L 115.367999 249.680277 
" style="fill:none;stroke:#a5a391;stroke-dasharray:9.6,2.4,1.5,2.4;stroke-dashoffset:0;stroke-width:1.5;"/>
   </g>
   <g id="line2d_58">
    <path clip-path="url(#pacc21825b9)" d="M 125.597999 289.859407 
L 125.597999 239.635494 
" style="fill:none;stroke:#a5a391;stroke-dasharray:9.6,2.4,1.5,2.4;stroke-dashoffset:0;stroke-width:1.5;"/>
   </g>
   <g id="line2d_59">
    <path clip-path="url(#pacc21825b9)" d="M 134.804999 289.859407 
L 134.804999 231.417036 
" style="fill:none;stroke:#a5a391;stroke-dasharray:9.6,2.4,1.5,2.4;stroke-dashoffset:0;stroke-width:1.5;"/>
   </g>
   <g id="line2d_60">
    <path clip-path="url(#pacc21825b9)" d="M 160.789199 289.859407 
L 160.789199 220.459091 
" style="fill:none;stroke:#a5a391;stroke-dasharray:9.6,2.4,1.5,2.4;stroke-dashoffset:0;stroke-width:1.5;"/>
   </g>
   <g id="line2d_61">
    <path clip-path="url(#pacc21825b9)" d="M 197.207999 289.859407 
L 197.207999 214.066957 
" style="fill:none;stroke:#a5a391;stroke-dasharray:9.6,2.4,1.5,2.4;stroke-dashoffset:0;stroke-width:1.5;"/>
   </g>
   <g id="line2d_62">
    <path clip-path="url(#pacc21825b9)" d="M 248.971799 289.859407 
L 248.971799 208.587984 
" style="fill:none;stroke:#a5a391;stroke-dasharray:9.6,2.4,1.5,2.4;stroke-dashoffset:0;stroke-width:1.5;"/>
   </g>
   <g id="line2d_63">
    <path clip-path="url(#pacc21825b9)" d="M 322.627799 289.859407 
L 322.627799 198.543202 
" style="fill:none;stroke:#a5a391;stroke-dasharray:9.6,2.4,1.5,2.4;stroke-dashoffset:0;stroke-width:1.5;"/>
   </g>
   <g id="line2d_64">
    <path clip-path="url(#pacc21825b9)" d="M 426.359999 289.859407 
L 426.359999 199.456364 
" style="fill:none;stroke:#a5a391;stroke-dasharray:9.6,2.4,1.5,2.4;stroke-dashoffset:0;stroke-width:1.5;"/>
   </g>
   <g id="line2d_65">
    <path clip-path="url(#pacc21825b9)" d="M 569.579999 289.859407 
L 569.579999 199.456364 
" style="fill:none;stroke:#a5a391;stroke-dasharray:9.6,2.4,1.5,2.4;stroke-dashoffset:0;stroke-width:1.5;"/>
   </g>
   <g id="patch_8">
    <path d="M 99 294.425217 
L 99 193.977391 
" style="fill:none;stroke:#000000;stroke-linecap:square;stroke-linejoin:miter;stroke-width:0.8;"/>
   </g>
   <g id="patch_9">
    <path d="M 712.8 294.425217 
L 712.8 193.977391 
" style="fill:none;stroke:#000000;stroke-linecap:square;stroke-linejoin:miter;stroke-width:0.8;"/>
   </g>
   <g id="patch_10">
    <path d="M 99 294.425217 
L 712.8 294.425217 
" style="fill:none;stroke:#000000;stroke-linecap:square;stroke-linejoin:miter;stroke-width:0.8;"/>
   </g>
   <g id="patch_11">
    <path d="M 99 193.977391 
L 712.8 193.977391 
" style="fill:none;stroke:#000000;stroke-linecap:square;stroke-linejoin:miter;stroke-width:0.8;"/>
   </g>
  </g>
  <g id="axes_3">
   <g id="patch_12">
    <path d="M 99 414.962609 
L 712.8 414.962609 
L 712.8 314.514783 
L 99 314.514783 
z
" style="fill:#ffffff;"/>
   </g>
   <g id="matplotlib.axis_5">
    <g id="xtick_17">
     <g id="line2d_66">
      <g>
       <use style="stroke:#000000;stroke-width:0.8;" x="129.991088" xlink:href="#m49a12b7fab" y="414.962609"/>
      </g>
     </g>
    </g>
    <g id="xtick_18">
     <g id="line2d_67">
      <g>
       <use style="stroke:#000000;stroke-width:0.8;" x="211.831088" xlink:href="#m49a12b7fab" y="414.962609"/>
      </g>
     </g>
    </g>
    <g id="xtick_19">
     <g id="line2d_68">
      <g>
       <use style="stroke:#000000;stroke-width:0.8;" x="273.211088" xlink:href="#m49a12b7fab" y="414.962609"/>
      </g>
     </g>
    </g>
    <g id="xtick_20">
     <g id="line2d_69">
      <g>
       <use style="stroke:#000000;stroke-width:0.8;" x="355.051088" xlink:href="#m49a12b7fab" y="414.962609"/>
      </g>
     </g>
    </g>
    <g id="xtick_21">
     <g id="line2d_70">
      <g>
       <use style="stroke:#000000;stroke-width:0.8;" x="436.891088" xlink:href="#m49a12b7fab" y="414.962609"/>
      </g>
     </g>
    </g>
    <g id="xtick_22">
     <g id="line2d_71">
      <g>
       <use style="stroke:#000000;stroke-width:0.8;" x="518.731088" xlink:href="#m49a12b7fab" y="414.962609"/>
      </g>
     </g>
    </g>
    <g id="xtick_23">
     <g id="line2d_72">
      <g>
       <use style="stroke:#000000;stroke-width:0.8;" x="600.571088" xlink:href="#m49a12b7fab" y="414.962609"/>
      </g>
     </g>
    </g>
    <g id="xtick_24">
     <g id="line2d_73">
      <g>
       <use style="stroke:#000000;stroke-width:0.8;" x="682.411088" xlink:href="#m49a12b7fab" y="414.962609"/>
      </g>
     </g>
    </g>
   </g>
   <g id="matplotlib.axis_6">
    <g id="ytick_11">
     <g id="line2d_74">
      <g>
       <use style="stroke:#000000;stroke-width:0.8;" x="99" xlink:href="#m75792fc746" y="410.396798"/>
      </g>
     </g>
     <g id="text_13">
      <!-- 0.0 -->
      <g transform="translate(76.096875 414.196017)scale(0.1 -0.1)">
       <use xlink:href="#DejaVuSans-48"/>
       <use x="63.623047" xlink:href="#DejaVuSans-46"/>
       <use x="95.410156" xlink:href="#DejaVuSans-48"/>
      </g>
     </g>
    </g>
    <g id="ytick_12">
     <g id="line2d_75">
      <g>
       <use style="stroke:#000000;stroke-width:0.8;" x="99" xlink:href="#m75792fc746" y="380.639275"/>
      </g>
     </g>
     <g id="text_14">
      <!-- 0.1 -->
      <g transform="translate(76.096875 384.438494)scale(0.1 -0.1)">
       <use xlink:href="#DejaVuSans-48"/>
       <use x="63.623047" xlink:href="#DejaVuSans-46"/>
       <use x="95.410156" xlink:href="#DejaVuSans-49"/>
      </g>
     </g>
    </g>
    <g id="ytick_13">
     <g id="line2d_76">
      <g>
       <use style="stroke:#000000;stroke-width:0.8;" x="99" xlink:href="#m75792fc746" y="350.881752"/>
      </g>
     </g>
     <g id="text_15">
      <!-- 0.2 -->
      <g transform="translate(76.096875 354.680971)scale(0.1 -0.1)">
       <use xlink:href="#DejaVuSans-48"/>
       <use x="63.623047" xlink:href="#DejaVuSans-46"/>
       <use x="95.410156" xlink:href="#DejaVuSans-50"/>
      </g>
     </g>
    </g>
    <g id="ytick_14">
     <g id="line2d_77">
      <g>
       <use style="stroke:#000000;stroke-width:0.8;" x="99" xlink:href="#m75792fc746" y="321.124229"/>
      </g>
     </g>
     <g id="text_16">
      <!-- 0.3 -->
      <defs>
       <path d="M 40.578125 39.3125 
Q 47.65625 37.796875 51.625 33 
Q 55.609375 28.21875 55.609375 21.1875 
Q 55.609375 10.40625 48.1875 4.484375 
Q 40.765625 -1.421875 27.09375 -1.421875 
Q 22.515625 -1.421875 17.65625 -0.515625 
Q 12.796875 0.390625 7.625 2.203125 
L 7.625 11.71875 
Q 11.71875 9.328125 16.59375 8.109375 
Q 21.484375 6.890625 26.8125 6.890625 
Q 36.078125 6.890625 40.9375 10.546875 
Q 45.796875 14.203125 45.796875 21.1875 
Q 45.796875 27.640625 41.28125 31.265625 
Q 36.765625 34.90625 28.71875 34.90625 
L 20.21875 34.90625 
L 20.21875 43.015625 
L 29.109375 43.015625 
Q 36.375 43.015625 40.234375 45.921875 
Q 44.09375 48.828125 44.09375 54.296875 
Q 44.09375 59.90625 40.109375 62.90625 
Q 36.140625 65.921875 28.71875 65.921875 
Q 24.65625 65.921875 20.015625 65.03125 
Q 15.375 64.15625 9.8125 62.3125 
L 9.8125 71.09375 
Q 15.4375 72.65625 20.34375 73.4375 
Q 25.25 74.21875 29.59375 74.21875 
Q 40.828125 74.21875 47.359375 69.109375 
Q 53.90625 64.015625 53.90625 55.328125 
Q 53.90625 49.265625 50.4375 45.09375 
Q 46.96875 40.921875 40.578125 39.3125 
z
" id="DejaVuSans-51"/>
      </defs>
      <g transform="translate(76.096875 324.923448)scale(0.1 -0.1)">
       <use xlink:href="#DejaVuSans-48"/>
       <use x="63.623047" xlink:href="#DejaVuSans-46"/>
       <use x="95.410156" xlink:href="#DejaVuSans-51"/>
      </g>
     </g>
    </g>
    <g id="text_17">
     <!-- error signal -->
     <defs>
      <path id="DejaVuSans-32"/>
      <path d="M 45.40625 27.984375 
Q 45.40625 37.75 41.375 43.109375 
Q 37.359375 48.484375 30.078125 48.484375 
Q 22.859375 48.484375 18.828125 43.109375 
Q 14.796875 37.75 14.796875 27.984375 
Q 14.796875 18.265625 18.828125 12.890625 
Q 22.859375 7.515625 30.078125 7.515625 
Q 37.359375 7.515625 41.375 12.890625 
Q 45.40625 18.265625 45.40625 27.984375 
z
M 54.390625 6.78125 
Q 54.390625 -7.171875 48.1875 -13.984375 
Q 42 -20.796875 29.203125 -20.796875 
Q 24.46875 -20.796875 20.265625 -20.09375 
Q 16.0625 -19.390625 12.109375 -17.921875 
L 12.109375 -9.1875 
Q 16.0625 -11.328125 19.921875 -12.34375 
Q 23.78125 -13.375 27.78125 -13.375 
Q 36.625 -13.375 41.015625 -8.765625 
Q 45.40625 -4.15625 45.40625 5.171875 
L 45.40625 9.625 
Q 42.625 4.78125 38.28125 2.390625 
Q 33.9375 0 27.875 0 
Q 17.828125 0 11.671875 7.65625 
Q 5.515625 15.328125 5.515625 27.984375 
Q 5.515625 40.671875 11.671875 48.328125 
Q 17.828125 56 27.875 56 
Q 33.9375 56 38.28125 53.609375 
Q 42.625 51.21875 45.40625 46.390625 
L 45.40625 54.6875 
L 54.390625 54.6875 
z
" id="DejaVuSans-103"/>
      <path d="M 9.421875 75.984375 
L 18.40625 75.984375 
L 18.40625 0 
L 9.421875 0 
z
" id="DejaVuSans-108"/>
     </defs>
     <g transform="translate(70.017187 393.417602)rotate(-90)scale(0.1 -0.1)">
      <use xlink:href="#DejaVuSans-101"/>
      <use x="61.523438" xlink:href="#DejaVuSans-114"/>
      <use x="102.621094" xlink:href="#DejaVuSans-114"/>
      <use x="143.703125" xlink:href="#DejaVuSans-111"/>
      <use x="204.884766" xlink:href="#DejaVuSans-114"/>
      <use x="245.998047" xlink:href="#DejaVuSans-32"/>
      <use x="277.785156" xlink:href="#DejaVuSans-115"/>
      <use x="329.884766" xlink:href="#DejaVuSans-105"/>
      <use x="357.667969" xlink:href="#DejaVuSans-103"/>
      <use x="421.144531" xlink:href="#DejaVuSans-110"/>
      <use x="484.523438" xlink:href="#DejaVuSans-97"/>
      <use x="545.802734" xlink:href="#DejaVuSans-108"/>
     </g>
    </g>
   </g>
   <g id="line2d_78">
    <path clip-path="url(#p55f9bc63f2)" d="M 99.000054 410.396798 
L 105.200054 319.080593 
L 111.400054 347.317182 
L 117.600054 366.570485 
L 123.800054 378.192708 
L 130.000054 385.590426 
L 136.200054 390.576482 
L 142.400054 394.10162 
L 148.600054 396.692434 
L 154.800054 398.657747 
L 161.000054 400.188031 
L 167.200054 401.405924 
L 173.400054 402.393336 
L 179.600054 403.206709 
L 185.800054 403.88601 
L 192.000054 404.460204 
L 198.200054 404.950727 
L 204.400054 405.37373 
L 210.600054 405.741584 
L 216.800054 406.063898 
L 223.000054 406.348241 
L 229.200054 406.600637 
L 235.400054 406.825939 
L 241.600054 407.028092 
L 247.800054 407.210333 
L 254.000054 407.375337 
L 260.200054 407.525335 
L 266.400054 407.6622 
L 272.600054 407.787513 
L 278.800054 407.902619 
L 285.000054 408.008665 
L 291.200054 408.10664 
L 297.400054 408.197396 
L 303.600054 408.281672 
L 309.800054 408.360113 
L 316.000054 408.433282 
L 322.200054 408.501675 
L 328.400054 408.565727 
L 334.600054 408.625827 
L 340.800054 408.682315 
L 347.000054 408.735497 
L 353.200054 408.785646 
L 359.400054 408.833006 
L 365.600054 408.877795 
L 371.800054 408.920211 
L 378.000054 408.960433 
L 384.200054 408.99862 
L 390.400054 409.034919 
L 396.600054 409.069462 
L 402.800054 409.102371 
L 409.000054 409.133755 
L 415.200054 409.163715 
L 421.400054 409.192343 
L 427.600054 409.219724 
L 433.800054 409.245935 
L 440.000054 409.271048 
L 446.200054 409.295129 
L 452.400054 409.318238 
L 458.600054 409.340431 
L 464.800054 409.361762 
L 471.000054 409.382277 
L 477.200054 409.402021 
L 483.400054 409.421037 
L 489.600054 409.439363 
L 495.800054 409.457035 
L 502.000054 409.474086 
L 508.200054 409.490549 
L 514.400054 409.506451 
L 520.600054 409.521822 
L 526.800054 409.536686 
L 533.000054 409.551068 
L 539.200054 409.56499 
L 545.400054 409.578473 
L 551.600054 409.591538 
L 557.800054 409.604204 
L 564.000054 409.616487 
L 570.200054 409.628405 
L 576.400054 409.639974 
L 582.600054 409.651208 
L 588.800054 409.662122 
L 595.000054 409.672728 
L 601.200054 409.68304 
L 607.400054 409.693068 
L 613.600054 409.702826 
L 619.800054 409.712322 
L 626.000054 409.721568 
L 632.200054 409.730572 
L 638.400054 409.739345 
L 644.600054 409.747895 
L 650.800054 409.756229 
L 657.000054 409.764357 
L 663.200054 409.772285 
L 669.400054 409.780021 
L 675.600054 409.787571 
L 681.800054 409.794942 
L 688.000054 409.80214 
L 694.200054 409.809172 
L 700.400054 409.816042 
L 706.600054 409.822756 
L 712.800054 409.829319 
" style="fill:none;stroke:#1f77b4;stroke-linecap:square;stroke-width:1.5;"/>
   </g>
   <g id="line2d_79">
    <path clip-path="url(#p55f9bc63f2)" d="M 99.000054 410.396798 
L 712.800054 410.396798 
" style="fill:none;stroke:#a5a391;stroke-linecap:square;stroke-width:1.5;"/>
   </g>
   <g id="line2d_80">
    <path clip-path="url(#p55f9bc63f2)" d="M 99.000054 410.396798 
L 99.000054 410.396798 
" style="fill:none;stroke:#a5a391;stroke-dasharray:9.6,2.4,1.5,2.4;stroke-dashoffset:0;stroke-width:1.5;"/>
   </g>
   <g id="line2d_81">
    <path clip-path="url(#p55f9bc63f2)" d="M 99.020513 410.396798 
L 99.020513 403.989377 
" style="fill:none;stroke:#a5a391;stroke-dasharray:9.6,2.4,1.5,2.4;stroke-dashoffset:0;stroke-width:1.5;"/>
   </g>
   <g id="line2d_82">
    <path clip-path="url(#p55f9bc63f2)" d="M 115.368053 410.396798 
L 115.368053 360.755702 
" style="fill:none;stroke:#a5a391;stroke-dasharray:9.6,2.4,1.5,2.4;stroke-dashoffset:0;stroke-width:1.5;"/>
   </g>
   <g id="line2d_83">
    <path clip-path="url(#p55f9bc63f2)" d="M 125.598053 410.396798 
L 125.598053 380.669637 
" style="fill:none;stroke:#a5a391;stroke-dasharray:9.6,2.4,1.5,2.4;stroke-dashoffset:0;stroke-width:1.5;"/>
   </g>
   <g id="line2d_84">
    <path clip-path="url(#p55f9bc63f2)" d="M 134.805053 410.396798 
L 134.805053 389.607071 
" style="fill:none;stroke:#a5a391;stroke-dasharray:9.6,2.4,1.5,2.4;stroke-dashoffset:0;stroke-width:1.5;"/>
   </g>
   <g id="line2d_85">
    <path clip-path="url(#p55f9bc63f2)" d="M 160.789253 410.396798 
L 160.789253 400.14169 
" style="fill:none;stroke:#a5a391;stroke-dasharray:9.6,2.4,1.5,2.4;stroke-dashoffset:0;stroke-width:1.5;"/>
   </g>
   <g id="line2d_86">
    <path clip-path="url(#p55f9bc63f2)" d="M 197.208053 410.396798 
L 197.208053 404.877149 
" style="fill:none;stroke:#a5a391;stroke-dasharray:9.6,2.4,1.5,2.4;stroke-dashoffset:0;stroke-width:1.5;"/>
   </g>
   <g id="line2d_87">
    <path clip-path="url(#p55f9bc63f2)" d="M 248.971853 410.396798 
L 248.971853 407.242766 
" style="fill:none;stroke:#a5a391;stroke-dasharray:9.6,2.4,1.5,2.4;stroke-dashoffset:0;stroke-width:1.5;"/>
   </g>
   <g id="line2d_88">
    <path clip-path="url(#p55f9bc63f2)" d="M 322.627853 410.396798 
L 322.627853 408.506229 
" style="fill:none;stroke:#a5a391;stroke-dasharray:9.6,2.4,1.5,2.4;stroke-dashoffset:0;stroke-width:1.5;"/>
   </g>
   <g id="line2d_89">
    <path clip-path="url(#p55f9bc63f2)" d="M 426.360053 410.396798 
L 426.360053 409.214344 
" style="fill:none;stroke:#a5a391;stroke-dasharray:9.6,2.4,1.5,2.4;stroke-dashoffset:0;stroke-width:1.5;"/>
   </g>
   <g id="line2d_90">
    <path clip-path="url(#p55f9bc63f2)" d="M 569.580053 410.396798 
L 569.580053 409.62723 
" style="fill:none;stroke:#a5a391;stroke-dasharray:9.6,2.4,1.5,2.4;stroke-dashoffset:0;stroke-width:1.5;"/>
   </g>
   <g id="patch_13">
    <path d="M 99 414.962609 
L 99 314.514783 
" style="fill:none;stroke:#000000;stroke-linecap:square;stroke-linejoin:miter;stroke-width:0.8;"/>
   </g>
   <g id="patch_14">
    <path d="M 712.8 414.962609 
L 712.8 314.514783 
" style="fill:none;stroke:#000000;stroke-linecap:square;stroke-linejoin:miter;stroke-width:0.8;"/>
   </g>
   <g id="patch_15">
    <path d="M 99 414.962609 
L 712.8 414.962609 
" style="fill:none;stroke:#000000;stroke-linecap:square;stroke-linejoin:miter;stroke-width:0.8;"/>
   </g>
   <g id="patch_16">
    <path d="M 99 314.514783 
L 712.8 314.514783 
" style="fill:none;stroke:#000000;stroke-linecap:square;stroke-linejoin:miter;stroke-width:0.8;"/>
   </g>
  </g>
  <g id="axes_4">
   <g id="patch_17">
    <path d="M 99 535.5 
L 712.8 535.5 
L 712.8 435.052174 
L 99 435.052174 
z
" style="fill:#ffffff;"/>
   </g>
   <g id="matplotlib.axis_7">
    <g id="xtick_25">
     <g id="line2d_91">
      <g>
       <use style="stroke:#000000;stroke-width:0.8;" x="129.991088" xlink:href="#m49a12b7fab" y="535.5"/>
      </g>
     </g>
     <g id="text_18">
      <!-- 2019-01-25 -->
      <defs>
       <path d="M 10.984375 1.515625 
L 10.984375 10.5 
Q 14.703125 8.734375 18.5 7.8125 
Q 22.3125 6.890625 25.984375 6.890625 
Q 35.75 6.890625 40.890625 13.453125 
Q 46.046875 20.015625 46.78125 33.40625 
Q 43.953125 29.203125 39.59375 26.953125 
Q 35.25 24.703125 29.984375 24.703125 
Q 19.046875 24.703125 12.671875 31.3125 
Q 6.296875 37.9375 6.296875 49.421875 
Q 6.296875 60.640625 12.9375 67.421875 
Q 19.578125 74.21875 30.609375 74.21875 
Q 43.265625 74.21875 49.921875 64.515625 
Q 56.59375 54.828125 56.59375 36.375 
Q 56.59375 19.140625 48.40625 8.859375 
Q 40.234375 -1.421875 26.421875 -1.421875 
Q 22.703125 -1.421875 18.890625 -0.6875 
Q 15.09375 0.046875 10.984375 1.515625 
z
M 30.609375 32.421875 
Q 37.25 32.421875 41.125 36.953125 
Q 45.015625 41.5 45.015625 49.421875 
Q 45.015625 57.28125 41.125 61.84375 
Q 37.25 66.40625 30.609375 66.40625 
Q 23.96875 66.40625 20.09375 61.84375 
Q 16.21875 57.28125 16.21875 49.421875 
Q 16.21875 41.5 20.09375 36.953125 
Q 23.96875 32.421875 30.609375 32.421875 
z
" id="DejaVuSans-57"/>
       <path d="M 4.890625 31.390625 
L 31.203125 31.390625 
L 31.203125 23.390625 
L 4.890625 23.390625 
z
" id="DejaVuSans-45"/>
      </defs>
      <g transform="translate(80.531683 573.947247)rotate(-25)scale(0.1 -0.1)">
       <use xlink:href="#DejaVuSans-50"/>
       <use x="63.623047" xlink:href="#DejaVuSans-48"/>
       <use x="127.246094" xlink:href="#DejaVuSans-49"/>
       <use x="190.869141" xlink:href="#DejaVuSans-57"/>
       <use x="254.492188" xlink:href="#DejaVuSans-45"/>
       <use x="290.576172" xlink:href="#DejaVuSans-48"/>
       <use x="354.199219" xlink:href="#DejaVuSans-49"/>
       <use x="417.822266" xlink:href="#DejaVuSans-45"/>
       <use x="453.90625" xlink:href="#DejaVuSans-50"/>
       <use x="517.529297" xlink:href="#DejaVuSans-53"/>
      </g>
     </g>
    </g>
    <g id="xtick_26">
     <g id="line2d_92">
      <g>
       <use style="stroke:#000000;stroke-width:0.8;" x="211.831088" xlink:href="#m49a12b7fab" y="535.5"/>
      </g>
     </g>
     <g id="text_19">
      <!-- 2019-01-29 -->
      <g transform="translate(162.371683 573.947247)rotate(-25)scale(0.1 -0.1)">
       <use xlink:href="#DejaVuSans-50"/>
       <use x="63.623047" xlink:href="#DejaVuSans-48"/>
       <use x="127.246094" xlink:href="#DejaVuSans-49"/>
       <use x="190.869141" xlink:href="#DejaVuSans-57"/>
       <use x="254.492188" xlink:href="#DejaVuSans-45"/>
       <use x="290.576172" xlink:href="#DejaVuSans-48"/>
       <use x="354.199219" xlink:href="#DejaVuSans-49"/>
       <use x="417.822266" xlink:href="#DejaVuSans-45"/>
       <use x="453.90625" xlink:href="#DejaVuSans-50"/>
       <use x="517.529297" xlink:href="#DejaVuSans-57"/>
      </g>
     </g>
    </g>
    <g id="xtick_27">
     <g id="line2d_93">
      <g>
       <use style="stroke:#000000;stroke-width:0.8;" x="273.211088" xlink:href="#m49a12b7fab" y="535.5"/>
      </g>
     </g>
     <g id="text_20">
      <!-- 2019-02-01 -->
      <g transform="translate(223.751683 573.947247)rotate(-25)scale(0.1 -0.1)">
       <use xlink:href="#DejaVuSans-50"/>
       <use x="63.623047" xlink:href="#DejaVuSans-48"/>
       <use x="127.246094" xlink:href="#DejaVuSans-49"/>
       <use x="190.869141" xlink:href="#DejaVuSans-57"/>
       <use x="254.492188" xlink:href="#DejaVuSans-45"/>
       <use x="290.576172" xlink:href="#DejaVuSans-48"/>
       <use x="354.199219" xlink:href="#DejaVuSans-50"/>
       <use x="417.822266" xlink:href="#DejaVuSans-45"/>
       <use x="453.90625" xlink:href="#DejaVuSans-48"/>
       <use x="517.529297" xlink:href="#DejaVuSans-49"/>
      </g>
     </g>
    </g>
    <g id="xtick_28">
     <g id="line2d_94">
      <g>
       <use style="stroke:#000000;stroke-width:0.8;" x="355.051088" xlink:href="#m49a12b7fab" y="535.5"/>
      </g>
     </g>
     <g id="text_21">
      <!-- 2019-02-05 -->
      <g transform="translate(305.591683 573.947247)rotate(-25)scale(0.1 -0.1)">
       <use xlink:href="#DejaVuSans-50"/>
       <use x="63.623047" xlink:href="#DejaVuSans-48"/>
       <use x="127.246094" xlink:href="#DejaVuSans-49"/>
       <use x="190.869141" xlink:href="#DejaVuSans-57"/>
       <use x="254.492188" xlink:href="#DejaVuSans-45"/>
       <use x="290.576172" xlink:href="#DejaVuSans-48"/>
       <use x="354.199219" xlink:href="#DejaVuSans-50"/>
       <use x="417.822266" xlink:href="#DejaVuSans-45"/>
       <use x="453.90625" xlink:href="#DejaVuSans-48"/>
       <use x="517.529297" xlink:href="#DejaVuSans-53"/>
      </g>
     </g>
    </g>
    <g id="xtick_29">
     <g id="line2d_95">
      <g>
       <use style="stroke:#000000;stroke-width:0.8;" x="436.891088" xlink:href="#m49a12b7fab" y="535.5"/>
      </g>
     </g>
     <g id="text_22">
      <!-- 2019-02-09 -->
      <g transform="translate(387.431683 573.947247)rotate(-25)scale(0.1 -0.1)">
       <use xlink:href="#DejaVuSans-50"/>
       <use x="63.623047" xlink:href="#DejaVuSans-48"/>
       <use x="127.246094" xlink:href="#DejaVuSans-49"/>
       <use x="190.869141" xlink:href="#DejaVuSans-57"/>
       <use x="254.492188" xlink:href="#DejaVuSans-45"/>
       <use x="290.576172" xlink:href="#DejaVuSans-48"/>
       <use x="354.199219" xlink:href="#DejaVuSans-50"/>
       <use x="417.822266" xlink:href="#DejaVuSans-45"/>
       <use x="453.90625" xlink:href="#DejaVuSans-48"/>
       <use x="517.529297" xlink:href="#DejaVuSans-57"/>
      </g>
     </g>
    </g>
    <g id="xtick_30">
     <g id="line2d_96">
      <g>
       <use style="stroke:#000000;stroke-width:0.8;" x="518.731088" xlink:href="#m49a12b7fab" y="535.5"/>
      </g>
     </g>
     <g id="text_23">
      <!-- 2019-02-13 -->
      <g transform="translate(469.271683 573.947247)rotate(-25)scale(0.1 -0.1)">
       <use xlink:href="#DejaVuSans-50"/>
       <use x="63.623047" xlink:href="#DejaVuSans-48"/>
       <use x="127.246094" xlink:href="#DejaVuSans-49"/>
       <use x="190.869141" xlink:href="#DejaVuSans-57"/>
       <use x="254.492188" xlink:href="#DejaVuSans-45"/>
       <use x="290.576172" xlink:href="#DejaVuSans-48"/>
       <use x="354.199219" xlink:href="#DejaVuSans-50"/>
       <use x="417.822266" xlink:href="#DejaVuSans-45"/>
       <use x="453.90625" xlink:href="#DejaVuSans-49"/>
       <use x="517.529297" xlink:href="#DejaVuSans-51"/>
      </g>
     </g>
    </g>
    <g id="xtick_31">
     <g id="line2d_97">
      <g>
       <use style="stroke:#000000;stroke-width:0.8;" x="600.571088" xlink:href="#m49a12b7fab" y="535.5"/>
      </g>
     </g>
     <g id="text_24">
      <!-- 2019-02-17 -->
      <g transform="translate(551.111683 573.947247)rotate(-25)scale(0.1 -0.1)">
       <use xlink:href="#DejaVuSans-50"/>
       <use x="63.623047" xlink:href="#DejaVuSans-48"/>
       <use x="127.246094" xlink:href="#DejaVuSans-49"/>
       <use x="190.869141" xlink:href="#DejaVuSans-57"/>
       <use x="254.492188" xlink:href="#DejaVuSans-45"/>
       <use x="290.576172" xlink:href="#DejaVuSans-48"/>
       <use x="354.199219" xlink:href="#DejaVuSans-50"/>
       <use x="417.822266" xlink:href="#DejaVuSans-45"/>
       <use x="453.90625" xlink:href="#DejaVuSans-49"/>
       <use x="517.529297" xlink:href="#DejaVuSans-55"/>
      </g>
     </g>
    </g>
    <g id="xtick_32">
     <g id="line2d_98">
      <g>
       <use style="stroke:#000000;stroke-width:0.8;" x="682.411088" xlink:href="#m49a12b7fab" y="535.5"/>
      </g>
     </g>
     <g id="text_25">
      <!-- 2019-02-21 -->
      <g transform="translate(632.951683 573.947247)rotate(-25)scale(0.1 -0.1)">
       <use xlink:href="#DejaVuSans-50"/>
       <use x="63.623047" xlink:href="#DejaVuSans-48"/>
       <use x="127.246094" xlink:href="#DejaVuSans-49"/>
       <use x="190.869141" xlink:href="#DejaVuSans-57"/>
       <use x="254.492188" xlink:href="#DejaVuSans-45"/>
       <use x="290.576172" xlink:href="#DejaVuSans-48"/>
       <use x="354.199219" xlink:href="#DejaVuSans-50"/>
       <use x="417.822266" xlink:href="#DejaVuSans-45"/>
       <use x="453.90625" xlink:href="#DejaVuSans-50"/>
       <use x="517.529297" xlink:href="#DejaVuSans-49"/>
      </g>
     </g>
    </g>
   </g>
   <g id="matplotlib.axis_8">
    <g id="ytick_15">
     <g id="line2d_99">
      <g>
       <use style="stroke:#000000;stroke-width:0.8;" x="99" xlink:href="#m75792fc746" y="535.5"/>
      </g>
     </g>
     <g id="text_26">
      <!-- 0.00 -->
      <g transform="translate(69.734375 539.299219)scale(0.1 -0.1)">
       <use xlink:href="#DejaVuSans-48"/>
       <use x="63.623047" xlink:href="#DejaVuSans-46"/>
       <use x="95.410156" xlink:href="#DejaVuSans-48"/>
       <use x="159.033203" xlink:href="#DejaVuSans-48"/>
      </g>
     </g>
    </g>
    <g id="ytick_16">
     <g id="line2d_100">
      <g>
       <use style="stroke:#000000;stroke-width:0.8;" x="99" xlink:href="#m75792fc746" y="510.636677"/>
      </g>
     </g>
     <g id="text_27">
      <!-- 0.25 -->
      <g transform="translate(69.734375 514.435895)scale(0.1 -0.1)">
       <use xlink:href="#DejaVuSans-48"/>
       <use x="63.623047" xlink:href="#DejaVuSans-46"/>
       <use x="95.410156" xlink:href="#DejaVuSans-50"/>
       <use x="159.033203" xlink:href="#DejaVuSans-53"/>
      </g>
     </g>
    </g>
    <g id="ytick_17">
     <g id="line2d_101">
      <g>
       <use style="stroke:#000000;stroke-width:0.8;" x="99" xlink:href="#m75792fc746" y="485.773353"/>
      </g>
     </g>
     <g id="text_28">
      <!-- 0.50 -->
      <g transform="translate(69.734375 489.572572)scale(0.1 -0.1)">
       <use xlink:href="#DejaVuSans-48"/>
       <use x="63.623047" xlink:href="#DejaVuSans-46"/>
       <use x="95.410156" xlink:href="#DejaVuSans-53"/>
       <use x="159.033203" xlink:href="#DejaVuSans-48"/>
      </g>
     </g>
    </g>
    <g id="ytick_18">
     <g id="line2d_102">
      <g>
       <use style="stroke:#000000;stroke-width:0.8;" x="99" xlink:href="#m75792fc746" y="460.91003"/>
      </g>
     </g>
     <g id="text_29">
      <!-- 0.75 -->
      <g transform="translate(69.734375 464.709249)scale(0.1 -0.1)">
       <use xlink:href="#DejaVuSans-48"/>
       <use x="63.623047" xlink:href="#DejaVuSans-46"/>
       <use x="95.410156" xlink:href="#DejaVuSans-55"/>
       <use x="159.033203" xlink:href="#DejaVuSans-53"/>
      </g>
     </g>
    </g>
    <g id="ytick_19">
     <g id="line2d_103">
      <g>
       <use style="stroke:#000000;stroke-width:0.8;" x="99" xlink:href="#m75792fc746" y="436.046707"/>
      </g>
     </g>
     <g id="text_30">
      <!-- 1.00 -->
      <g transform="translate(69.734375 439.845926)scale(0.1 -0.1)">
       <use xlink:href="#DejaVuSans-49"/>
       <use x="63.623047" xlink:href="#DejaVuSans-46"/>
       <use x="95.410156" xlink:href="#DejaVuSans-48"/>
       <use x="159.033203" xlink:href="#DejaVuSans-48"/>
      </g>
     </g>
    </g>
    <g id="text_31">
     <!-- control -->
     <g transform="translate(63.654687 502.715931)rotate(-90)scale(0.1 -0.1)">
      <use xlink:href="#DejaVuSans-99"/>
      <use x="54.980469" xlink:href="#DejaVuSans-111"/>
      <use x="116.162109" xlink:href="#DejaVuSans-110"/>
      <use x="179.541016" xlink:href="#DejaVuSans-116"/>
      <use x="218.75" xlink:href="#DejaVuSans-114"/>
      <use x="259.832031" xlink:href="#DejaVuSans-111"/>
      <use x="321.013672" xlink:href="#DejaVuSans-108"/>
     </g>
    </g>
   </g>
   <g id="line2d_104">
    <path clip-path="url(#p6dd15325de)" d="M 99 535.5 
L 100.23006 535.493962 
L 101.46012 534.788796 
L 102.69018 531.880396 
L 103.92024 527.274559 
L 107.610421 511.69505 
L 110.070541 502.83377 
L 112.530661 495.531235 
L 114.990782 489.53181 
L 117.450902 484.562577 
L 119.911022 480.400237 
L 122.371142 476.873409 
L 124.831263 473.85241 
L 127.291383 471.238841 
L 129.751503 468.95736 
L 132.211623 466.949619 
L 134.671743 465.16989 
L 138.361924 462.850525 
L 142.052104 460.870496 
L 145.742285 459.160994 
L 149.432465 457.670486 
L 154.352705 455.957167 
L 159.272946 454.49441 
L 165.423246 452.941881 
L 171.573547 451.629733 
L 178.953908 450.300709 
L 187.564329 449.010306 
L 197.40481 447.794452 
L 208.475351 446.672929 
L 220.775952 445.653645 
L 235.536673 444.661808 
L 252.757515 443.73555 
L 273.668537 442.84755 
L 298.269739 442.033956 
L 329.021242 441.255038 
L 365.923046 440.551692 
L 412.665331 439.893624 
L 471.708216 439.294355 
L 549.202004 438.743043 
L 652.527054 438.245377 
L 712.8 438.031661 
L 712.8 438.031661 
" style="fill:none;stroke:#029386;stroke-linecap:square;stroke-width:1.5;"/>
   </g>
   <g id="line2d_105">
    <path clip-path="url(#p6dd15325de)" d="M 99 535.5 
L 146.972345 535.5 
L 148.202405 520.12806 
L 149.432465 509.780317 
L 150.662525 502.79325 
L 151.892585 497.395696 
L 153.122645 492.988707 
L 154.352705 489.274725 
L 155.582766 486.078183 
L 156.812826 483.284613 
L 158.042886 480.814324 
L 160.503006 476.625423 
L 162.963126 473.192874 
L 165.423246 470.319014 
L 167.883367 467.872433 
L 170.343487 465.761391 
L 172.803607 463.91944 
L 175.263727 462.297035 
L 178.953908 460.194709 
L 182.644088 458.408579 
L 186.334269 456.871405 
L 191.254509 455.125895 
L 196.174749 453.652533 
L 201.09499 452.391835 
L 207.245291 451.05029 
L 214.625651 449.706247 
L 222.006012 448.584025 
L 230.616433 447.488079 
L 240.456914 446.449398 
L 252.757515 445.389685 
L 266.288176 444.448588 
L 282.278958 443.555075 
L 301.95992 442.686276 
L 325.331062 441.884335 
L 353.622445 441.139811 
L 389.294188 440.434343 
L 433.576353 439.790652 
L 490.159118 439.199663 
L 563.962725 438.66136 
L 662.367535 438.176549 
L 712.8 437.991723 
L 712.8 437.991723 
" style="fill:none;stroke:#0343df;stroke-linecap:square;stroke-width:1.5;"/>
   </g>
   <g id="line2d_106">
    <path clip-path="url(#p6dd15325de)" d="M 569.58 436.046707 
L 573.368844 436.047628 
L 585.895374 436.050672 
L 598.421905 436.053716 
L 610.948436 436.056761 
L 623.474966 436.059805 
L 636.001497 436.062849 
L 648.528027 436.065893 
L 661.054558 436.068937 
L 673.581089 436.07198 
L 686.107619 436.075024 
L 698.63415 436.078068 
L 711.16068 436.081111 
" style="fill:none;stroke:#fe420f;stroke-linecap:square;stroke-width:1.5;"/>
   </g>
   <g id="line2d_107">
    <path clip-path="url(#p6dd15325de)" d="M 99 535.5 
L 99 436.046707 
" style="fill:none;stroke:#a5a391;stroke-dasharray:9.6,2.4,1.5,2.4;stroke-dashoffset:0;stroke-width:1.5;"/>
   </g>
   <g id="line2d_108">
    <path clip-path="url(#p6dd15325de)" d="M 99.02046 535.5 
L 99.02046 495.718683 
" style="fill:none;stroke:#a5a391;stroke-dasharray:9.6,2.4,1.5,2.4;stroke-dashoffset:0;stroke-width:1.5;"/>
   </g>
   <g id="line2d_109">
    <path clip-path="url(#p6dd15325de)" d="M 115.368 535.5 
L 115.368 491.740551 
" style="fill:none;stroke:#a5a391;stroke-dasharray:9.6,2.4,1.5,2.4;stroke-dashoffset:0;stroke-width:1.5;"/>
   </g>
   <g id="line2d_110">
    <path clip-path="url(#p6dd15325de)" d="M 125.598 535.5 
L 125.598 480.800689 
" style="fill:none;stroke:#a5a391;stroke-dasharray:9.6,2.4,1.5,2.4;stroke-dashoffset:0;stroke-width:1.5;"/>
   </g>
   <g id="line2d_111">
    <path clip-path="url(#p6dd15325de)" d="M 134.805 535.5 
L 134.805 471.849892 
" style="fill:none;stroke:#a5a391;stroke-dasharray:9.6,2.4,1.5,2.4;stroke-dashoffset:0;stroke-width:1.5;"/>
   </g>
   <g id="line2d_112">
    <path clip-path="url(#p6dd15325de)" d="M 160.7892 535.5 
L 160.7892 459.915497 
" style="fill:none;stroke:#a5a391;stroke-dasharray:9.6,2.4,1.5,2.4;stroke-dashoffset:0;stroke-width:1.5;"/>
   </g>
   <g id="line2d_113">
    <path clip-path="url(#p6dd15325de)" d="M 197.208 535.5 
L 197.208 452.953767 
" style="fill:none;stroke:#a5a391;stroke-dasharray:9.6,2.4,1.5,2.4;stroke-dashoffset:0;stroke-width:1.5;"/>
   </g>
   <g id="line2d_114">
    <path clip-path="url(#p6dd15325de)" d="M 248.9718 535.5 
L 248.9718 446.986569 
" style="fill:none;stroke:#a5a391;stroke-dasharray:9.6,2.4,1.5,2.4;stroke-dashoffset:0;stroke-width:1.5;"/>
   </g>
   <g id="line2d_115">
    <path clip-path="url(#p6dd15325de)" d="M 322.6278 535.5 
L 322.6278 436.046707 
" style="fill:none;stroke:#a5a391;stroke-dasharray:9.6,2.4,1.5,2.4;stroke-dashoffset:0;stroke-width:1.5;"/>
   </g>
   <g id="line2d_116">
    <path clip-path="url(#p6dd15325de)" d="M 426.36 535.5 
L 426.36 437.04124 
" style="fill:none;stroke:#a5a391;stroke-dasharray:9.6,2.4,1.5,2.4;stroke-dashoffset:0;stroke-width:1.5;"/>
   </g>
   <g id="line2d_117">
    <path clip-path="url(#p6dd15325de)" d="M 569.58 535.5 
L 569.58 437.04124 
" style="fill:none;stroke:#a5a391;stroke-dasharray:9.6,2.4,1.5,2.4;stroke-dashoffset:0;stroke-width:1.5;"/>
   </g>
   <g id="patch_18">
    <path d="M 99 535.5 
L 99 435.052174 
" style="fill:none;stroke:#000000;stroke-linecap:square;stroke-linejoin:miter;stroke-width:0.8;"/>
   </g>
   <g id="patch_19">
    <path d="M 712.8 535.5 
L 712.8 435.052174 
" style="fill:none;stroke:#000000;stroke-linecap:square;stroke-linejoin:miter;stroke-width:0.8;"/>
   </g>
   <g id="patch_20">
    <path d="M 99 535.5 
L 712.8 535.5 
" style="fill:none;stroke:#000000;stroke-linecap:square;stroke-linejoin:miter;stroke-width:0.8;"/>
   </g>
   <g id="patch_21">
    <path d="M 99 435.052174 
L 712.8 435.052174 
" style="fill:none;stroke:#000000;stroke-linecap:square;stroke-linejoin:miter;stroke-width:0.8;"/>
   </g>
  </g>
 </g>
 <defs>
  <clipPath id="p8260b453ca">
   <rect height="100.447826" width="613.8" x="99" y="73.44"/>
  </clipPath>
  <clipPath id="pacc21825b9">
   <rect height="100.447826" width="613.8" x="99" y="193.977391"/>
  </clipPath>
  <clipPath id="p55f9bc63f2">
   <rect height="100.447826" width="613.8" x="99" y="314.514783"/>
  </clipPath>
  <clipPath id="p6dd15325de">
   <rect height="100.447826" width="613.8" x="99" y="435.052174"/>
  </clipPath>
 </defs>
</svg>
